ply
format ascii 1.0
element vertex 20
property double x
property double y
property double z
property float nx
property float ny
property float nz
property float u
property float v
element face 32
property list uchar int vertex_indices
end_header
0 0 -1 0 0 0 0 0
-0.325243711471557617 0 -0.5 0 0 0 0 0
0 -0.325243711471557617 -0.5 0 0 0 0 0
0 0 -1 0 0 0 0 0
-0.125 0 0 0 0 0 0 0
0 -0.125 0 0 0 0 0 0
-0.325243711471557617 0 0.5 0 0 0 0 0
0 -0.325243711471557617 0.5 0 0 0 0 0
0 0 1 0 0 0 0 0
0 0 1 0 0 0 0 0
0 0 -1 0 0 0 0 0
0 0.325243711471557617 -0.5 0 0 0 0 0
0 0.125 0 0 0 0 0 0
0 0.325243711471557617 0.5 0 0 0 0 0
0 0 1 0 0 0 0 0
0.325243711471557617 0 -0.5 0 0 0 0 0
0 0 -1 0 0 0 0 0
0.125 0 0 0 0 0 0 0
0.325243711471557617 0 0.5 0 0 0 0 0
0 0 1 0 0 0 0 0
3 2 1 0
3 2 0 3
3 5 4 1
3 5 1 2
3 7 6 4
3 7 4 5
3 9 8 6
3 9 6 7
3 10 0 1
3 10 1 11
3 11 1 4
3 11 4 12
3 12 4 6
3 12 6 13
3 13 6 8
3 13 8 14
3 15 2 3
3 15 3 16
3 17 5 2
3 17 2 15
3 18 7 5
3 18 5 17
3 19 9 7
3 19 7 18
3 16 10 11
3 16 11 15
3 15 11 12
3 15 12 17
3 17 12 13
3 17 13 18
3 18 13 14
3 18 14 19
