ply
format ascii 1.0
comment this is a comment about hex_patch.ply
element vertex 7
property double x
property double y
property double z
element face 6
property list uchar int vertex_indices
end_header
0 0 0.100000000000000006
0.800037772793458668 0 0.100000000000000006
0.4708661098513231 0.815564025824799588 0.0500000000000000167
-0.486975877667049195 0.843466962179775792 -0.049999999999999982
-0.896809542530390247 1.0982749357046445e-16 -0.100000000000000006
-0.429690715088025088 -0.744246150073061274 -0.0500000000000000444
0.478786029569971683 -0.8292817291693656 0.0500000000000000167
3 0 1 2
3 0 2 3
3 0 3 4
3 0 4 5
3 0 5 6
3 0 6 1
