ply
format ascii 1.0
element vertex 54
property double x
property double y
property double z
element face 104
property list uchar int vertex_indices
end_header
-0.539999991655349731 -0.5 -0.5
-0.5 -0.539999991655349731 -0.5
-0.5 -0.5 -0.539999991655349731
-0.706666678190231323 -0.5 0
-0.5 -0.706666678190231323 0
-0.539999991655349731 -0.5 0.5
-0.5 -0.539999991655349731 0.5
-0.5 -0.5 0.539999961853027344
-0.706666678190231323 0 -0.5
-0.5 0 -0.706666678190231323
-0.873333334922790527 0 0
-0.706666678190231323 0 0.5
-0.5 0 0.706666707992553711
-0.539999991655349731 0.5 -0.5
-0.5 0.5 -0.539999991655349731
-0.706666678190231323 0.5 0
-0.539999991655349731 0.5 0.5
-0.5 0.5 0.539999961853027344
-0.5 0.539999961853027344 -0.5
-0.5 0.706666707992553711 0
-0.5 0.539999961853027344 0.5
0 -0.706666678190231323 -0.5
0 -0.5 -0.706666678190231323
0 -0.873333334922790527 0
0 -0.706666678190231323 0.5
0 -0.5 0.706666707992553711
0 0 -0.873333334922790527
0 0 0.873333334922790527
0 0.5 -0.706666678190231323
0 0.5 0.706666707992553711
0 0.706666707992553711 -0.5
0 0.873333334922790527 0
0 0.706666707992553711 0.5
0.5 -0.539999991655349731 -0.5
0.5 -0.5 -0.539999991655349731
0.5 -0.706666678190231323 0
0.5 -0.539999991655349731 0.5
0.5 -0.5 0.539999961853027344
0.5 0 -0.706666678190231323
0.5 0 0.706666707992553711
0.5 0.5 -0.539999991655349731
0.5 0.5 0.539999961853027344
0.5 0.539999961853027344 -0.5
0.5 0.706666707992553711 0
0.5 0.539999961853027344 0.5
0.539999961853027344 -0.5 -0.5
0.706666707992553711 -0.5 0
0.539999961853027344 -0.5 0.5
0.706666707992553711 0 -0.5
0.873333334922790527 0 0
0.706666707992553711 0 0.5
0.539999961853027344 0.5 -0.5
0.706666707992553711 0.5 0
0.539999961853027344 0.5 0.5
3 2 1 0
3 4 3 0
3 4 0 1
3 6 5 3
3 6 3 4
3 7 5 6
3 2 0 8
3 2 8 9
3 10 0 3
3 8 0 10
3 11 3 5
3 10 3 11
3 5 7 12
3 5 12 11
3 9 8 13
3 9 13 14
3 15 8 10
3 13 8 15
3 16 10 11
3 15 10 16
3 11 12 17
3 11 17 16
3 18 14 13
3 18 13 15
3 18 15 19
3 19 15 16
3 19 16 20
3 20 16 17
3 22 21 1
3 22 1 2
3 1 23 4
3 21 23 1
3 4 24 6
3 23 24 4
3 7 6 24
3 7 24 25
3 9 22 2
3 9 26 22
3 25 12 7
3 27 12 25
3 14 26 9
3 14 28 26
3 27 17 12
3 29 17 27
3 30 28 14
3 30 14 18
3 31 18 19
3 31 30 18
3 32 19 20
3 32 31 19
3 20 17 29
3 20 29 32
3 34 33 21
3 34 21 22
3 21 35 23
3 33 35 21
3 23 36 24
3 35 36 23
3 25 24 36
3 25 36 37
3 26 34 22
3 26 38 34
3 37 27 25
3 39 27 37
3 28 38 26
3 28 40 38
3 39 29 27
3 41 29 39
3 42 40 28
3 42 28 30
3 43 30 31
3 43 42 30
3 44 31 32
3 44 43 31
3 32 29 41
3 32 41 44
3 34 45 33
3 46 35 33
3 46 33 45
3 47 36 35
3 47 35 46
3 47 37 36
3 38 48 45
3 38 45 34
3 45 49 46
3 45 48 49
3 46 50 47
3 46 49 50
3 50 39 37
3 50 37 47
3 40 51 48
3 40 48 38
3 48 52 49
3 48 51 52
3 49 53 50
3 49 52 53
3 53 41 39
3 53 39 50
3 42 51 40
3 51 42 43
3 51 43 52
3 52 43 44
3 52 44 53
3 53 44 41
