ply
format ascii 1.0
element vertex 12
property double x
property double y
property double z
element face 20
property list uchar int vertex_indices
end_header
0 0.525731112119133592 -0.850650808352039878
0.525731112119133592 0.850650808352039878 0
-0.525731112119133592 0.850650808352039878 0
0 0.525731112119133592 0.850650808352039878
0 -0.525731112119133592 0.850650808352039878
-0.850650808352039878 0 0.525731112119133592
0 -0.525731112119133592 -0.850650808352039878
0.850650808352039878 0 -0.525731112119133592
0.850650808352039878 0 0.525731112119133592
-0.850650808352039878 0 -0.525731112119133592
0.525731112119133592 -0.850650808352039878 0
-0.525731112119133592 -0.850650808352039878 0
3 2 1 0
3 1 2 3
3 5 4 3
3 4 8 3
3 7 6 0
3 6 9 0
3 11 10 4
3 10 11 6
3 9 5 2
3 5 9 11
3 8 7 1
3 7 8 10
3 2 5 3
3 8 1 3
3 9 2 0
3 1 7 0
3 11 9 6
3 7 10 6
3 5 11 4
3 10 8 4
