ply
format ascii 1.0
element vertex 162
property double x
property double y
property double z
element face 320
property list uchar int vertex_indices
end_header
0 0.525731112119133592 -0.850650808352039878
0.525731112119133592 0.850650808352039878 0
-0.525731112119133592 0.850650808352039878 0
0 0.525731112119133592 0.850650808352039878
0 -0.525731112119133592 0.850650808352039878
-0.850650808352039878 0 0.525731112119133592
0 -0.525731112119133592 -0.850650808352039878
0.850650808352039878 0 -0.525731112119133592
0.850650808352039878 0 0.525731112119133592
-0.850650808352039878 0 -0.525731112119133592
0.525731112119133592 -0.850650808352039878 0
-0.525731112119133592 -0.850650808352039878 0
0 1 0
0.309016994374947396 0.80901699437494734 -0.5
-0.309016994374947396 0.80901699437494734 -0.5
-0.309016994374947396 0.80901699437494734 0.5
0.309016994374947396 0.80901699437494734 0.5
-0.5 -0.309016994374947396 0.80901699437494734
0 0 1
-0.5 0.309016994374947396 0.80901699437494734
0.5 -0.309016994374947396 0.80901699437494734
0.5 0.309016994374947396 0.80901699437494734
0.5 -0.309016994374947396 -0.80901699437494734
0 0 -1
0.5 0.309016994374947396 -0.80901699437494734
-0.5 -0.309016994374947396 -0.80901699437494734
-0.5 0.309016994374947396 -0.80901699437494734
0 -1 0
0.309016994374947396 -0.80901699437494734 0.5
-0.309016994374947396 -0.80901699437494734 0.5
-0.309016994374947396 -0.80901699437494734 -0.5
0.309016994374947396 -0.80901699437494734 -0.5
-1 0 0
-0.809016994374947451 0.500000000000000111 0.309016994374947451
-0.809016994374947451 0.500000000000000111 -0.309016994374947451
-0.809016994374947451 -0.500000000000000111 -0.309016994374947451
-0.809016994374947451 -0.500000000000000111 0.309016994374947451
1 0 0
0.809016994374947451 0.500000000000000111 -0.309016994374947451
0.809016994374947451 0.500000000000000111 0.309016994374947451
0.809016994374947451 -0.500000000000000111 0.309016994374947451
0.809016994374947451 -0.500000000000000111 -0.309016994374947451
-0.273266528912671669 0.961938357783917342 0
-0.162459848116453143 0.951056516295153531 -0.262865556059566796
-0.433888564552694755 0.862668480416186156 -0.259891913007754383
0.273266528912671669 0.961938357783917342 0
0.433888564552694755 0.862668480416186156 -0.259891913007754383
0.162459848116453143 0.951056516295153531 -0.262865556059566796
0 0.850650808352039767 -0.525731112119133592
0.160622035640023142 0.693780477560449249 -0.70204644477616307
-0.160622035640023142 0.693780477560449249 -0.70204644477616307
0.162459848116453143 0.951056516295153531 0.262865556059566796
0.433888564552694755 0.862668480416186156 0.259891913007754383
-0.433888564552694755 0.862668480416186156 0.259891913007754383
-0.162459848116453143 0.951056516295153531 0.262865556059566796
0 0.850650808352039767 0.525731112119133592
-0.160622035640023142 0.693780477560449249 0.70204644477616307
0.160622035640023142 0.693780477560449249 0.70204644477616307
-0.70204644477616307 -0.160622035640023142 0.693780477560449249
-0.525731112119133592 0 0.850650808352039767
-0.70204644477616307 0.160622035640023142 0.693780477560449249
-0.259891913007754383 -0.433888564552694755 0.862668480416186156
0 -0.273266528912671669 0.961938357783917342
-0.262865556059566796 -0.162459848116453143 0.951056516295153531
-0.262865556059566796 0.162459848116453143 0.951056516295153531
0 0.273266528912671669 0.961938357783917342
-0.259891913007754383 0.433888564552694755 0.862668480416186156
0.259891913007754383 -0.433888564552694755 0.862668480416186156
0.262865556059566796 -0.162459848116453143 0.951056516295153531
0.70204644477616307 -0.160622035640023142 0.693780477560449249
0.70204644477616307 0.160622035640023142 0.693780477560449249
0.525731112119133592 0 0.850650808352039767
0.262865556059566796 0.162459848116453143 0.951056516295153531
0.259891913007754383 0.433888564552694755 0.862668480416186156
0.70204644477616307 -0.160622035640023142 -0.693780477560449249
0.525731112119133592 0 -0.850650808352039767
0.70204644477616307 0.160622035640023142 -0.693780477560449249
0.259891913007754383 -0.433888564552694755 -0.862668480416186156
0 -0.273266528912671669 -0.961938357783917342
0.262865556059566796 -0.162459848116453143 -0.951056516295153531
0.262865556059566796 0.162459848116453143 -0.951056516295153531
0 0.273266528912671669 -0.961938357783917342
0.259891913007754383 0.433888564552694755 -0.862668480416186156
-0.259891913007754383 -0.433888564552694755 -0.862668480416186156
-0.262865556059566796 -0.162459848116453143 -0.951056516295153531
-0.70204644477616307 -0.160622035640023142 -0.693780477560449249
-0.70204644477616307 0.160622035640023142 -0.693780477560449249
-0.525731112119133592 0 -0.850650808352039767
-0.262865556059566796 0.162459848116453143 -0.951056516295153531
-0.259891913007754383 0.433888564552694755 -0.862668480416186156
-0.273266528912671669 -0.961938357783917342 0
-0.162459848116453143 -0.951056516295153531 0.262865556059566796
-0.433888564552694755 -0.862668480416186156 0.259891913007754383
0.273266528912671669 -0.961938357783917342 0
0.433888564552694755 -0.862668480416186156 0.259891913007754383
0.162459848116453143 -0.951056516295153531 0.262865556059566796
0 -0.850650808352039767 0.525731112119133592
0.160622035640023142 -0.693780477560449249 0.70204644477616307
-0.160622035640023142 -0.693780477560449249 0.70204644477616307
0.162459848116453143 -0.951056516295153531 -0.262865556059566796
0.433888564552694755 -0.862668480416186156 -0.259891913007754383
-0.433888564552694755 -0.862668480416186156 -0.259891913007754383
-0.162459848116453143 -0.951056516295153531 -0.262865556059566796
0 -0.850650808352039767 -0.525731112119133592
-0.160622035640023142 -0.693780477560449249 -0.70204644477616307
0.160622035640023142 -0.693780477560449249 -0.70204644477616307
-0.961938357783917564 0 -0.273266528912671725
-0.951056516295153531 0.262865556059566852 -0.16245984811645317
-0.862668480416186156 0.259891913007754438 -0.433888564552694811
-0.961938357783917564 0 0.273266528912671725
-0.862668480416186156 0.259891913007754438 0.433888564552694811
-0.951056516295153531 0.262865556059566852 0.16245984811645317
-0.850650808352039989 0.525731112119133703 0
-0.693780477560449249 0.70204644477616307 0.16062203564002317
-0.693780477560449249 0.70204644477616307 -0.16062203564002317
-0.951056516295153531 -0.262865556059566852 0.16245984811645317
-0.862668480416186156 -0.259891913007754438 0.433888564552694811
-0.862668480416186156 -0.259891913007754438 -0.433888564552694811
-0.951056516295153531 -0.262865556059566852 -0.16245984811645317
-0.850650808352039989 -0.525731112119133703 0
-0.693780477560449249 -0.70204644477616307 -0.16062203564002317
-0.693780477560449249 -0.70204644477616307 0.16062203564002317
0.961938357783917564 0 0.273266528912671725
0.951056516295153531 0.262865556059566852 0.16245984811645317
0.862668480416186156 0.259891913007754438 0.433888564552694811
0.961938357783917564 0 -0.273266528912671725
0.862668480416186156 0.259891913007754438 -0.433888564552694811
0.951056516295153531 0.262865556059566852 -0.16245984811645317
0.850650808352039989 0.525731112119133703 0
0.693780477560449249 0.70204644477616307 -0.16062203564002317
0.693780477560449249 0.70204644477616307 0.16062203564002317
0.951056516295153531 -0.262865556059566852 -0.16245984811645317
0.862668480416186156 -0.259891913007754438 -0.433888564552694811
0.862668480416186156 -0.259891913007754438 0.433888564552694811
0.951056516295153531 -0.262865556059566852 0.16245984811645317
0.850650808352039989 -0.525731112119133703 0
0.693780477560449249 -0.70204644477616307 0.16062203564002317
0.693780477560449249 -0.70204644477616307 -0.16062203564002317
-0.587785252292473137 0.688190960235586791 0.425325404176019994
-0.688190960235586791 0.425325404176019994 0.587785252292473137
-0.425325404176019994 0.587785252292473026 0.688190960235586791
0.688190960235586791 0.425325404176019994 0.587785252292473137
0.587785252292473137 0.688190960235586791 0.425325404176019994
0.425325404176019994 0.587785252292473026 0.688190960235586791
-0.688190960235586791 0.425325404176019994 -0.587785252292473137
-0.587785252292473137 0.688190960235586791 -0.425325404176019994
-0.425325404176019994 0.587785252292473026 -0.688190960235586791
0.587785252292473137 0.688190960235586791 -0.425325404176019994
0.688190960235586791 0.425325404176019994 -0.587785252292473137
0.425325404176019994 0.587785252292473026 -0.688190960235586791
-0.587785252292473137 -0.688190960235586791 -0.425325404176019994
-0.688190960235586791 -0.425325404176019994 -0.587785252292473137
-0.425325404176019994 -0.587785252292473026 -0.688190960235586791
0.688190960235586791 -0.425325404176019994 -0.587785252292473137
0.587785252292473137 -0.688190960235586791 -0.425325404176019994
0.425325404176019994 -0.587785252292473026 -0.688190960235586791
-0.688190960235586791 -0.425325404176019994 0.587785252292473137
-0.587785252292473137 -0.688190960235586791 0.425325404176019994
-0.425325404176019994 -0.587785252292473026 0.688190960235586791
0.587785252292473137 -0.688190960235586791 0.425325404176019994
0.688190960235586791 -0.425325404176019994 0.587785252292473137
0.425325404176019994 -0.587785252292473026 0.688190960235586791
3 2 42 44
3 42 12 43
3 44 43 14
3 42 43 44
3 12 45 47
3 45 1 46
3 47 46 13
3 45 46 47
3 14 48 50
3 48 13 49
3 50 49 0
3 48 49 50
3 12 47 43
3 47 13 48
3 43 48 14
3 47 48 43
3 1 45 52
3 45 12 51
3 52 51 16
3 45 51 52
3 12 42 54
3 42 2 53
3 54 53 15
3 42 53 54
3 16 55 57
3 55 15 56
3 57 56 3
3 55 56 57
3 12 54 51
3 54 15 55
3 51 55 16
3 54 55 51
3 5 58 60
3 58 17 59
3 60 59 19
3 58 59 60
3 17 61 63
3 61 4 62
3 63 62 18
3 61 62 63
3 19 64 66
3 64 18 65
3 66 65 3
3 64 65 66
3 17 63 59
3 63 18 64
3 59 64 19
3 63 64 59
3 4 67 62
3 67 20 68
3 62 68 18
3 67 68 62
3 20 69 71
3 69 8 70
3 71 70 21
3 69 70 71
3 18 72 65
3 72 21 73
3 65 73 3
3 72 73 65
3 20 71 68
3 71 21 72
3 68 72 18
3 71 72 68
3 7 74 76
3 74 22 75
3 76 75 24
3 74 75 76
3 22 77 79
3 77 6 78
3 79 78 23
3 77 78 79
3 24 80 82
3 80 23 81
3 82 81 0
3 80 81 82
3 22 79 75
3 79 23 80
3 75 80 24
3 79 80 75
3 6 83 78
3 83 25 84
3 78 84 23
3 83 84 78
3 25 85 87
3 85 9 86
3 87 86 26
3 85 86 87
3 23 88 81
3 88 26 89
3 81 89 0
3 88 89 81
3 25 87 84
3 87 26 88
3 84 88 23
3 87 88 84
3 11 90 92
3 90 27 91
3 92 91 29
3 90 91 92
3 27 93 95
3 93 10 94
3 95 94 28
3 93 94 95
3 29 96 98
3 96 28 97
3 98 97 4
3 96 97 98
3 27 95 91
3 95 28 96
3 91 96 29
3 95 96 91
3 10 93 100
3 93 27 99
3 100 99 31
3 93 99 100
3 27 90 102
3 90 11 101
3 102 101 30
3 90 101 102
3 31 103 105
3 103 30 104
3 105 104 6
3 103 104 105
3 27 102 99
3 102 30 103
3 99 103 31
3 102 103 99
3 9 106 108
3 106 32 107
3 108 107 34
3 106 107 108
3 32 109 111
3 109 5 110
3 111 110 33
3 109 110 111
3 34 112 114
3 112 33 113
3 114 113 2
3 112 113 114
3 32 111 107
3 111 33 112
3 107 112 34
3 111 112 107
3 5 109 116
3 109 32 115
3 116 115 36
3 109 115 116
3 32 106 118
3 106 9 117
3 118 117 35
3 106 117 118
3 36 119 121
3 119 35 120
3 121 120 11
3 119 120 121
3 32 118 115
3 118 35 119
3 115 119 36
3 118 119 115
3 8 122 124
3 122 37 123
3 124 123 39
3 122 123 124
3 37 125 127
3 125 7 126
3 127 126 38
3 125 126 127
3 39 128 130
3 128 38 129
3 130 129 1
3 128 129 130
3 37 127 123
3 127 38 128
3 123 128 39
3 127 128 123
3 7 125 132
3 125 37 131
3 132 131 41
3 125 131 132
3 37 122 134
3 122 8 133
3 134 133 40
3 122 133 134
3 41 135 137
3 135 40 136
3 137 136 10
3 135 136 137
3 37 134 131
3 134 40 135
3 131 135 41
3 134 135 131
3 2 113 53
3 113 33 138
3 53 138 15
3 113 138 53
3 33 110 139
3 110 5 60
3 139 60 19
3 110 60 139
3 15 140 56
3 140 19 66
3 56 66 3
3 140 66 56
3 33 139 138
3 139 19 140
3 138 140 15
3 139 140 138
3 8 124 70
3 124 39 141
3 70 141 21
3 124 141 70
3 39 130 142
3 130 1 52
3 142 52 16
3 130 52 142
3 21 143 73
3 143 16 57
3 73 57 3
3 143 57 73
3 39 142 141
3 142 16 143
3 141 143 21
3 142 143 141
3 9 108 86
3 108 34 144
3 86 144 26
3 108 144 86
3 34 114 145
3 114 2 44
3 145 44 14
3 114 44 145
3 26 146 89
3 146 14 50
3 89 50 0
3 146 50 89
3 34 145 144
3 145 14 146
3 144 146 26
3 145 146 144
3 1 129 46
3 129 38 147
3 46 147 13
3 129 147 46
3 38 126 148
3 126 7 76
3 148 76 24
3 126 76 148
3 13 149 49
3 149 24 82
3 49 82 0
3 149 82 49
3 38 148 147
3 148 24 149
3 147 149 13
3 148 149 147
3 11 120 101
3 120 35 150
3 101 150 30
3 120 150 101
3 35 117 151
3 117 9 85
3 151 85 25
3 117 85 151
3 30 152 104
3 152 25 83
3 104 83 6
3 152 83 104
3 35 151 150
3 151 25 152
3 150 152 30
3 151 152 150
3 7 132 74
3 132 41 153
3 74 153 22
3 132 153 74
3 41 137 154
3 137 10 100
3 154 100 31
3 137 100 154
3 22 155 77
3 155 31 105
3 77 105 6
3 155 105 77
3 41 154 153
3 154 31 155
3 153 155 22
3 154 155 153
3 5 116 58
3 116 36 156
3 58 156 17
3 116 156 58
3 36 121 157
3 121 11 92
3 157 92 29
3 121 92 157
3 17 158 61
3 158 29 98
3 61 98 4
3 158 98 61
3 36 157 156
3 157 29 158
3 156 158 17
3 157 158 156
3 10 136 94
3 136 40 159
3 94 159 28
3 136 159 94
3 40 133 160
3 133 8 69
3 160 69 20
3 133 69 160
3 28 161 97
3 161 20 67
3 97 67 4
3 161 67 97
3 40 160 159
3 160 20 161
3 159 161 28
3 160 161 159
