ply
format ascii 1.0
element vertex 42
property double x
property double y
property double z
element face 80
property list uchar int vertex_indices
end_header
0 0.525731112119133592 -0.850650808352039878
0.525731112119133592 0.850650808352039878 0
-0.525731112119133592 0.850650808352039878 0
0 0.525731112119133592 0.850650808352039878
0 -0.525731112119133592 0.850650808352039878
-0.850650808352039878 0 0.525731112119133592
0 -0.525731112119133592 -0.850650808352039878
0.850650808352039878 0 -0.525731112119133592
0.850650808352039878 0 0.525731112119133592
-0.850650808352039878 0 -0.525731112119133592
0.525731112119133592 -0.850650808352039878 0
-0.525731112119133592 -0.850650808352039878 0
0 1 0
0.309016994374947396 0.80901699437494734 -0.5
-0.309016994374947396 0.80901699437494734 -0.5
-0.309016994374947396 0.80901699437494734 0.5
0.309016994374947396 0.80901699437494734 0.5
-0.5 -0.309016994374947396 0.80901699437494734
0 0 1
-0.5 0.309016994374947396 0.80901699437494734
0.5 -0.309016994374947396 0.80901699437494734
0.5 0.309016994374947396 0.80901699437494734
0.5 -0.309016994374947396 -0.80901699437494734
0 0 -1
0.5 0.309016994374947396 -0.80901699437494734
-0.5 -0.309016994374947396 -0.80901699437494734
-0.5 0.309016994374947396 -0.80901699437494734
0 -1 0
0.309016994374947396 -0.80901699437494734 0.5
-0.309016994374947396 -0.80901699437494734 0.5
-0.309016994374947396 -0.80901699437494734 -0.5
0.309016994374947396 -0.80901699437494734 -0.5
-1 0 0
-0.809016994374947451 0.500000000000000111 0.309016994374947451
-0.809016994374947451 0.500000000000000111 -0.309016994374947451
-0.809016994374947451 -0.500000000000000111 -0.309016994374947451
-0.809016994374947451 -0.500000000000000111 0.309016994374947451
1 0 0
0.809016994374947451 0.500000000000000111 -0.309016994374947451
0.809016994374947451 0.500000000000000111 0.309016994374947451
0.809016994374947451 -0.500000000000000111 0.309016994374947451
0.809016994374947451 -0.500000000000000111 -0.309016994374947451
3 2 12 14
3 12 1 13
3 14 13 0
3 12 13 14
3 1 12 16
3 12 2 15
3 16 15 3
3 12 15 16
3 5 17 19
3 17 4 18
3 19 18 3
3 17 18 19
3 4 20 18
3 20 8 21
3 18 21 3
3 20 21 18
3 7 22 24
3 22 6 23
3 24 23 0
3 22 23 24
3 6 25 23
3 25 9 26
3 23 26 0
3 25 26 23
3 11 27 29
3 27 10 28
3 29 28 4
3 27 28 29
3 10 27 31
3 27 11 30
3 31 30 6
3 27 30 31
3 9 32 34
3 32 5 33
3 34 33 2
3 32 33 34
3 5 32 36
3 32 9 35
3 36 35 11
3 32 35 36
3 8 37 39
3 37 7 38
3 39 38 1
3 37 38 39
3 7 37 41
3 37 8 40
3 41 40 10
3 37 40 41
3 2 33 15
3 33 5 19
3 15 19 3
3 33 19 15
3 8 39 21
3 39 1 16
3 21 16 3
3 39 16 21
3 9 34 26
3 34 2 14
3 26 14 0
3 34 14 26
3 1 38 13
3 38 7 24
3 13 24 0
3 38 24 13
3 11 35 30
3 35 9 25
3 30 25 6
3 35 25 30
3 7 41 22
3 41 10 31
3 22 31 6
3 41 31 22
3 5 36 17
3 36 11 29
3 17 29 4
3 36 29 17
3 10 40 28
3 40 8 20
3 28 20 4
3 40 20 28
