ply
format ascii 1.0
element vertex 392
property double x
property double y
property double z
element face 788
property list uchar int vertex_indices
end_header
-0.64784170948110209 -0.146953567397307056 -0.0929902808872364872
-0.620601474552265664 -0.196530355858364703 -0.0993162999482214426
-0.637481236792757588 -0.0922390402252410424 -0.122675225943357238
-0.664383751006998202 -0.133802849400959378 -0.0325977612715396894
-0.636381459211763256 -0.193345270894369592 -0.0548960820449729478
-0.655338274554283839 -0.131256643313848259 0.0365034861543363232
-0.629720355530855036 -0.193206612140657985 0.00168853595562153559
-0.620932259768075645 -0.137476893282387463 0.0983487360409766032
-0.592783521086777676 -0.200687732671069652 0.0524582971239868703
-0.606532342344265341 -0.10466620900636224 0.127133457707422903
-0.671153672793330491 -0.0646748539817675466 -0.0725684815029302294
-0.61941017552096822 -0.0278567346263331045 -0.135400584412107838
-0.680148936585056263 -0.0511032698883992845 -0.000724999866756867169
-0.668314580088206989 -0.0462230779187272969 0.0710878701001978475
-0.643214052558776395 -0.0345762989774924118 0.118143530650526116
-0.6064153897086767 -0.00921867224300074346 0.118666982474161117
-0.662448007205235889 0.0081507521010423592 -0.100385411952590459
-0.596235947132481403 0.0483859957886418682 -0.13281320415248421
-0.681053827789066424 0.0300560137820705051 -0.0347570410980420075
-0.679993761789278395 0.0394395730991851171 0.0417012570732243626
-0.66062799445831577 0.0462592971290245597 0.103885499492601077
-0.621793490446791663 0.0597172813918049189 0.133100017832306433
-0.642365614397846119 0.0800504590525678711 -0.118165644624392024
-0.606306576148500032 0.14820684216364019 -0.129099366887680173
-0.666248376693429067 0.104284825945016965 -0.0638454536260732869
-0.671485012890361332 0.116446863240555268 0.0113338997663901663
-0.66045380399033693 0.120176106721717676 0.081750343002350484
-0.62761387874255592 0.126077945510514461 0.126458023201566072
-0.636281370557093329 0.164897674602062755 -0.0898724319517579251
-0.645424569795368441 0.178252643369596286 -0.021659301092829264
-0.640964945752606874 0.180690156541281177 0.0533976214107488509
-0.626934278222759156 0.173739666239190765 0.105711357509133005
-0.582227451186047018 -0.21165360862447366 -0.115783613423966009
-0.531225489457712419 -0.23191330910601643 -0.107539421059616877
-0.604309408373145951 -0.168721936878287432 -0.126858094091330337
-0.592976866987278584 -0.225687226592312301 -0.077822644038590405
-0.53968902218363779 -0.246553883380846467 -0.0564313483238469971
-0.60097326332637746 -0.226720608556697456 -0.0313682985708004999
-0.560500406216842939 -0.236832327421423405 0.000682138876331102296
-0.555367551669887272 -0.18215557322689041 0.126799246054509485
-0.53225101113527129 -0.216786775506935675 0.0903257185077827596
-0.492008620830291898 -0.199773120290653167 0.140974506426784801
-0.57424227351641588 -0.125774190327954366 -0.14190711930836003
-0.552419155784554583 -0.147265198063399327 0.132106433538083684
-0.544723262295486621 -0.0727278422985686152 -0.132948189731850797
-0.560239412753966493 -0.0124622372285430032 -0.0886933271867525602
-0.525282224789198504 -0.05701104265145953 -0.0266083029024645305
-0.566377210095802441 -0.0166963350623622227 -0.00882269797331037414
-0.551411786543757443 -0.0640975048326922203 0.0497451089535299387
-0.581748481046183485 -0.0180228214903412516 0.0656691457766649389
-0.526854590091188402 -0.113703903904415579 0.103468826752673382
-0.581006705000154167 -0.0797172901457410821 0.106646866524875414
-0.559372854642140815 0.0767807134659331675 -0.112353669956518548
-0.562710767466381045 0.0390111620926157504 -0.0546556051623323935
-0.565671450118164887 0.0304630934442105122 0.0175301695002078768
-0.565091964209538333 0.0426229384220530791 0.0849597000928736246
-0.526885680467004569 0.090143774761350895 -0.0786463957453018975
-0.555069663762602139 0.143012627336382925 -0.136271403096581395
-0.542719992172456367 0.0648172759246279373 -0.0238436057368426914
-0.526766384078726224 0.067943899510644612 0.0359189698021817258
-0.565217931089070924 0.0807855051893603959 0.129068903500236226
-0.569262266853789556 0.135629801278769252 0.142797103482094845
-0.595609898660344528 0.205530563274041123 -0.105474109385894355
-0.548538554914514198 0.206234172316923925 -0.124127170404573384
-0.601937715298970333 0.221068435763061344 -0.0530437447091880593
-0.599649388871178912 0.22591583245174543 0.0217463108079094629
-0.588571125452384214 0.216054101200381626 0.0896365829462502095
-0.576433287317107523 0.185486675733968098 0.130451892712903417
-0.54429284755224483 0.241544543944047563 -0.07992545652077232
-0.540641725563843933 0.253268102323367106 -0.0109904931700672108
-0.530189417621778847 0.248014908245668575 0.0627407284346719885
-0.513733836182289516 0.225216586176514494 0.118433321622932047
-0.454545385712464001 -0.246540678583314798 -0.0933700244506556615
-0.457767294881034736 -0.215649927348402187 -0.132810417518035628
-0.466651386914752608 -0.256105200994878768 -0.0328823052905174579
-0.495312836700759984 -0.245400067071765232 0.0332053693239014805
-0.464083950325773709 -0.228039349931581259 0.117315652580750662
-0.439486981391161158 -0.196398112292581362 0.148663135021042087
-0.538822899968595004 -0.192630592122154026 -0.135671393719867361
-0.4955837398908845 -0.073445886322146256 -0.0937382159199731391
-0.47632753182574239 -0.15764728531637609 -0.145590029141514199
-0.489210771575404713 -0.163526322223578796 0.137070100581947935
-0.45814741216604854 -0.120982328302409625 0.113823380966932619
-0.420474809615156875 -0.16124396753310935 0.144360546300283277
-0.458327251049311823 -0.0628540826518340229 -0.0392052187788176701
-0.481497692161946822 -0.0772434279151341663 0.0454024650231272114
-0.488611198205110286 0.141926378462526537 -0.12314076814367976
-0.465177015061541743 0.107546401115166987 -0.0841206622291484907
-0.497295858846362848 0.0838402756862234172 -0.0249670150732312357
-0.462733246971779755 0.0726683646792526255 0.0438640584510062506
-0.493013367397226232 0.0899130329877474155 0.103685832159662469
-0.493092949769532551 0.136949189614596095 0.142009196321187414
-0.405865064850166046 0.132743327464190874 -0.123352731251615763
-0.478061674990158503 0.20301609341853985 -0.128361268081803287
-0.499253470900871132 0.185607134727830525 0.144658547958954747
-0.4081136258404367 0.167712975529649311 0.151672351297337693
-0.476876013477448124 0.244643017140315805 -0.0969695555175830726
-0.47279364793770795 0.263530652763815154 -0.0395734384321775531
-0.460783027904608566 0.263916030621440645 0.0313375128436518269
-0.4422382627359005 0.247527701976137687 0.0954802025580979152
-0.36667036819277804 -0.226982824359264895 -0.121122059059547649
-0.379686213526420568 -0.187861608986294198 -0.146785311287880582
-0.386871813523109287 -0.25680717983786161 -0.00128668706606157083
-0.423199989029357682 -0.248138816757605241 0.0668664522417913992
-0.404900141663675939 -0.219815893893973213 0.13778431661812568
-0.365895414941130259 -0.188919807286504038 0.149833235965944278
-0.446628088480306273 -0.111404158771316972 -0.13288516054387417
-0.392020424008348467 -0.146141100332515428 -0.148814948203549902
-0.396580429726188399 -0.11629642784134149 0.132462142528045335
-0.344481771884073473 -0.138257941294365694 0.150706585793544595
-0.417010520670000495 -0.0749720977259417248 -0.100384819848487156
-0.402223654826808608 -0.0276533043193495018 -0.0606349124789705013
-0.352048342122113722 -0.0409013260967670822 -0.114402608258705157
-0.425306716103408311 -0.0313229350969045708 0.0120402547687078303
-0.40793214301345837 -0.0595218352408168339 0.0911257858509493951
-0.338617195205436539 -0.0745104111247243545 0.138496591742214598
-0.440776089879934996 0.0712970095267728698 -0.0236197531919976472
-0.367975313320076158 0.0259165612704662096 -0.0938634522949310657
-0.40680367049788696 0.0270387194444223419 -0.0319369353412346582
-0.411091020495835735 0.0233719548615565799 0.0491158875322712518
-0.40707589860994553 0.0816139763232518328 -0.0851807321795929329
-0.344125753694187686 0.0824575610594281139 -0.127757300177593708
-0.315034131807057416 0.139340124700770535 -0.141507643702664054
-0.405420098188795819 0.114354669250709445 0.140327496024498871
-0.406035327344090369 0.0654259361649829202 0.105853849130802896
-0.304914464835640331 0.120690139686695536 0.156412731494618651
-0.382616331435124746 0.191052260084325215 -0.125318092679280318
-0.420910591187035832 0.214180182379978434 0.136750011486091561
-0.40110259003903348 0.239866991970680676 -0.0970390889324199979
-0.417188300179668292 0.261743681292770369 -0.0608961188408112045
-0.39725950901177659 0.266227565904073649 -0.00657909426432040471
-0.373394080840756093 0.256322333675655101 0.0576753351027955649
-0.286381883781750557 -0.188351160485740937 -0.139326138753721296
-0.36660350042337625 -0.249373688631357282 -0.0695048407463329382
-0.282043958062927591 -0.243164408638112256 -0.0317593695149580163
-0.314989103217328592 -0.247676647311312587 0.041274390749678376
-0.358186841781214849 -0.237941108263043405 0.10174555595107021
-0.255389380437637592 -0.225973346622715371 0.0855089276878090998
-0.271624612611941763 -0.222658210681022761 -0.0977831257753725563
-0.315730388381543214 -0.142473213353612987 -0.151179934040256175
-0.307496968724400022 -0.20985289596819301 0.130655369305553687
-0.275166545967818865 -0.163047689901002157 0.149698454109234547
-0.36266601908111229 -0.101385879264893813 -0.137093176912838594
-0.28534558377898156 -0.0737230113085772243 -0.146152858562943105
-0.355161865386647513 -0.000279727652419613194 0.118812021637413057
-0.261303089430877433 -0.099273753828672387 0.156193845925542724
-0.297654399315339824 0.00766508122707910793 -0.13596707375148534
-0.250664605408521368 0.0683912876504088468 -0.152151324843489005
-0.320384711557298252 0.0571378438365191393 0.145147616081986397
-0.270524806570776377 -0.0216638747239965256 0.152669827010759623
-0.210562092268119977 0.132312519967024755 -0.147460835595965456
-0.316899895416296651 0.182933769777122529 0.145656703381463304
-0.265376190857455951 0.18754650569721526 -0.119973157595687108
-0.309289269561864033 0.232551820684036403 -0.0723292608040698726
-0.200700160107113196 0.213186328614501791 -0.0639348177102422727
-0.345477016953476712 0.22952261779230515 0.111581765123767135
-0.285445858050557444 0.237806461670561659 0.0629803672959797778
-0.244166931586257185 0.200465614768656902 0.115393296641311316
-0.363139112351704374 0.257332380419523998 -0.049233254835861856
-0.323810601903761319 0.253478909190950175 0.00040477535604183947
-0.164272059721982944 -0.212201575209881477 -0.0596429225215174691
-0.210938251175716629 -0.230099470276777462 0.0198315120829611197
-0.184932969859938651 -0.1774380174032128 -0.125123741784520709
-0.224212067734963771 -0.126017333737467763 -0.15133579319373397
-0.101412054292618528 -0.21029277861933493 0.0122587999582890166
-0.156006440204525559 -0.207239295880347979 0.0732783537148853775
-0.208865019318290046 -0.188508677887843479 0.123001331519757007
-0.179280354940704129 -0.135390402551147648 0.149084529938546206
-0.192225267854424842 -0.0314666234383458102 -0.158091223517697443
-0.170894171825403451 -0.0636635553333393667 0.162029112422456462
-0.126967230735397868 0.0622205109974445086 -0.162308726926774338
-0.193788003173262752 0.0338649773357108108 0.163415072018603447
-0.1186016851788982 0.134387849440382096 -0.144209054908871814
-0.185067262144312072 0.128253894455269302 0.15171061542873443
-0.155772138555262812 0.176394755226540551 -0.112150016402665184
-0.147013675914808906 0.214350727297488636 0.00929419415649985342
-0.242940523844783818 0.234036670917875139 -0.00276474918382812627
-0.114939199790001834 0.19828967149805285 0.0711153146505929812
-0.196717376530792104 0.21570020690176861 0.0633643160964900837
-0.138524443039596989 0.17522418948077062 0.115581030201431872
-0.0730702376553500066 -0.167394134906244718 -0.113878649464670301
-0.117905369937985893 -0.11301487802656407 -0.150427689608670812
-0.0313759516530407664 -0.195525131854487749 -0.0518434298165472776
-0.067212023444961605 -0.193793832251234976 0.0699314950994556483
-0.110435455681476252 -0.171097264842902802 0.116728603725385904
-0.0779265799963066857 -0.119723471293541606 0.147498912576412539
-0.0631831514725690324 -0.035375903826093763 -0.166096838623371212
-0.0649361944687019826 -0.048147103613734657 0.165156013199890261
0.000322212040553366327 0.0404147323049016821 -0.168507480793060271
-0.0562730640803756621 0.0356617057015288785 0.166757697564901636
-0.0293807365917587368 0.116415401581938915 -0.14947353266818339
-0.0436428465530603396 0.112378740714332861 0.149343024325764684
-0.0471116133675952425 0.167327819453900017 -0.10895494928762621
-0.0720116497642686315 0.197972517719842978 -0.0401550276909362486
-0.0411804409430131108 0.195554825666621607 0.0481740368360729504
-0.0334209421637898449 0.166342336421342274 0.11089197924001569
0.0422015707339438023 -0.166374841826912812 -0.110258978122604975
-0.00391551361779580477 -0.112492503993966431 -0.149655693855380578
0.0849853968602532345 -0.19800045119373913 -0.0502160357012787079
0.021335781071295936 -0.197840346876392431 0.0291786565117700888
-0.0084614036578272555 -0.167657194648920371 0.105919153153736928
0.033230155843383069 -0.122383865251063303 0.144142584250674916
0.0537698467144278255 -0.0466021774940622233 -0.168242152147426882
0.0575712385051745448 -0.0568757991718938927 0.16501682307833937
0.11356267517625078 0.0226527056692189081 -0.170702593116689755
0.091346430861417055 0.0235987089273847345 0.164403481260168377
0.081569576652187295 0.105834399328351675 -0.155723637538910581
0.0750369210402369174 0.11740378812663449 0.145294394239634722
0.0620314289165982413 0.163784345172992951 -0.117376350463373497
0.0470559508870731572 0.194496296183490958 -0.0549945893478362008
0.0524542582769801438 0.200827914620516523 0.0227152945876309374
0.0840837005545185673 0.177370551966251705 0.100603959835370377
0.150505299490859112 -0.180714393315704797 -0.109328145538180377
0.108685204982139294 -0.123852261581642642 -0.148772453159729673
0.182162223398487505 -0.215965193437722497 -0.0553373690725980152
0.139043860907766548 -0.213294076069272143 0.0111968470487277087
0.11521342557876342 -0.185872666934835507 0.0910000728769652378
0.151215914734622953 -0.142443564651853788 0.143383483426255315
0.166963057413599153 -0.0693383746293898956 -0.166439154165495179
0.186493073728890069 -0.0882791815735689545 0.161935065006542755
0.220842850585836359 -0.00934445302652651792 -0.16824788141783778
0.191246858897130168 0.0662636910129003887 0.157080109819202618
0.188689849129371701 0.0863958077502531008 -0.162099514060140198
0.182772565453655444 0.141301344458860861 0.143272405660084395
0.187612744979973101 0.168401155771972594 -0.1312188612848664
0.149479508044812415 0.203463051427923231 -0.0757770866476558391
0.14121480864626218 0.21565353776658247 -0.00833100178754765663
0.160147534644660389 0.211385859272583548 0.0614393484938013587
0.208952289192308738 -0.232705471524937479 -0.00810494471635770514
0.313291683022357326 -0.253372525753300548 -0.00959613157801826773
0.255833353902381322 -0.237786724180577974 -0.0468392811514581758
0.207988341360686779 -0.226140304820542815 0.048168037493084126
0.254479518296479135 -0.24423168451507779 0.00791485164982744412
0.285319190750616847 -0.242271833062161296 0.05543097245267814
0.248335528928567861 -0.207864997760432269 -0.103051053508977697
0.220069306556643585 -0.150816732848361418 -0.144574949035940648
0.229770387189355357 -0.205716203705808842 0.105651987639401784
0.305503447986244181 -0.130699286682377847 0.155898178394879738
0.319109763229554921 -0.0524474389434030838 -0.158639680000317196
0.248308335505265876 -0.0347537439836815149 0.1575077093573371
0.280002666460544947 0.0472657120144419768 -0.161411191055972986
0.274869996310259157 0.111046852734526899 0.149033689688526316
0.284052186210945079 0.140545890636793874 -0.151904941922550107
0.275007976245413455 0.172499388529244208 0.141153009720519529
0.251300885884605918 0.223377352332005535 -0.0880483120189521629
0.210964758158870835 0.229508511548044941 -0.0409528191496760854
0.287056922325981179 0.247209812280956842 -0.0349842130558973285
0.22552347336780551 0.235138931349335417 0.0150706259784114741
0.251167496111523503 0.229137531217628476 0.0760816376791985938
0.206654594043534784 0.194042622718279073 0.115193927001108587
0.307465136831280295 0.250771224506803114 0.0300834817009409117
0.328841577562644871 0.237493983151935067 0.0907137757256228638
0.328392262938237922 -0.23868691385982585 -0.0772389877539680914
0.421010126065543278 -0.239430312922077893 -0.0927453221617839524
0.340130960076797051 -0.189890647450942585 -0.131751988557715943
0.394377616846153689 -0.259364600590465622 -0.025628301953633699
0.36918811016881703 -0.255189133504192533 0.047357683291389327
0.265911961369755367 -0.172673272813182122 0.143177992357545247
0.328841523193805829 -0.227192771616179817 0.106150286777054625
0.373212862866665773 -0.195646008800189841 0.138802977155356472
0.279237302869291826 -0.106158365055186915 -0.159205901652799131
0.346049225364162549 -0.0962149023765706823 0.147609164903102635
0.41560444874303526 -0.0367354652230020215 -0.111599697822940325
0.352942013178733582 -0.00071605711005058581 -0.14680512305610019
0.425168508384961175 0.000701823947585679809 -0.0837524624707021714
0.334860440491431932 -0.0354940399681030888 0.136177471338787243
0.390788921150027613 -0.0445146156062804429 0.109177249275734883
0.369813373034448556 -0.0767548080215067485 0.133590754943825191
0.390041068855942807 0.044340131289363531 -0.13054772197105366
0.460685554822282128 0.0456477073953375986 -0.0308592619424264657
0.294505987912041411 0.0372340280115419156 0.143322250409402496
0.371093691943981396 0.0245985257617694561 0.109709658480334732
0.432337195169077426 0.0741092201658968136 -0.113963830565919522
0.349846485237538807 0.0967669994785852333 -0.151551667529526812
0.35853411591006551 0.0920422535456375951 0.128627859902836456
0.352330743509613353 0.152697264722206266 0.141159829400759079
0.31886577842846886 0.209410637656000737 -0.123496415539376805
0.401563856016422804 0.184135057022674214 -0.141682641764811046
0.282281084334778887 0.213110905333636996 0.117190727351250051
0.345569084687660455 0.20396263706978901 0.129995673890832691
0.355161160747227367 0.24791028846095936 -0.0747812748109042968
0.376773953985637899 0.261416639877106727 -0.0087239467456896938
0.39198473897257452 0.254732217373684844 0.0609497278091660696
0.408265866977114311 0.227707404830901794 0.11389133394019503
0.512285690383813108 -0.239544480474021215 -0.09684234091467471
0.470543989185679301 -0.190568028399863254 -0.132302857184202843
0.481694553427973182 -0.259520920510925623 -0.0356248080224706859
0.458198779838748016 -0.259707217571341908 0.0380589659567480629
0.426505907956053698 -0.237969752198079365 0.100610945655501591
0.483169437459112228 -0.193172490982137235 0.13163358413389889
0.387430910179047738 -0.134591927428013014 -0.148536512032761331
0.407137454072255212 -0.0816263620356631747 -0.136757232200866191
0.488826782508175461 -0.0751273253847571931 -0.0865291835603789611
0.407598631402446399 -0.101610881582875873 0.128015951788771953
0.439505641010912496 -0.063948450246078356 0.0845843304003394414
0.403658383192601833 -0.149815290593322076 0.143866491560650483
0.471415522345892568 -0.050492721422612484 -0.0484392478448646552
0.458919892041788346 -0.0328506510396581949 -0.0144740996404760739
0.482808677676202336 -0.0706544517547062073 0.0602804839382175273
0.446429753410566454 -0.015655448041144944 0.0158598200172891321
0.441370481832133732 0.0276903126273153818 -0.0577186057048083359
0.429129630154208019 0.0139075024112481939 0.0533128742310486695
0.422357625649940782 0.126451240659149283 -0.142818152639878293
0.477258990203581424 0.0819200008621378817 -0.0971042794863311298
0.488639939428715808 0.0646820391752093715 0.0075539683984150478
0.428063629461487127 0.0765719844415542472 0.0841776554154132911
0.426993146235595866 0.131095867742588967 0.120929604513636144
0.490294045933871991 0.101989878087666005 0.0783828316614312154
0.488576092810502682 0.126693036767451472 -0.135204491723745907
0.494982209653486438 0.176933672899868055 -0.144440339362439663
0.421940198435382496 0.182882679278547733 0.134359246503460678
0.489222225602852667 0.19737621673592759 0.12940205742868971
0.43201061424611098 0.23870835908021118 -0.101817257701778685
0.453876732067598598 0.260719288437935237 -0.0381943618061002244
0.466186818969183459 0.260771549295014116 0.0355750834829621845
0.476801305117357743 0.239839663008412446 0.0977227665220690989
0.573721365983369869 -0.233285457210124725 -0.0954670421945175707
0.561531193901738668 -0.200932301906724731 -0.12487342619425057
0.557976641821521402 -0.248811154267488704 -0.0445349006019790453
0.540649156911894191 -0.252226157869627099 0.0275688463243039875
0.518546078383490983 -0.236463765295203104 0.0925602942136320578
0.575358817677025125 -0.194677966671523955 0.122697656052402349
0.481793021594177251 -0.124818422241029445 -0.129961880905707317
0.561293805049353223 -0.127797042090826402 -0.128739270764450936
0.48048334350650046 -0.123987850300748048 0.118996817921630471
0.562960609997019246 -0.140350130210738028 0.130597209543860254
0.544683210229109704 -0.0729050557093031543 -0.094365530605052067
0.535626001383728845 -0.0491590938084443957 -0.00426968244835540783
0.516796731151957456 -0.0587879646595097088 0.0314989411256686655
0.547685968806918888 -0.0864671376580316287 0.0989088788109958039
0.520327872621703991 0.0676891000791090963 -0.0764429981490845067
0.546794798412695293 0.096547923373260125 -0.1239295124390484
0.562763729445848959 0.144227669542969922 -0.141731668607134792
0.552716913747681615 0.0366681976791708164 -0.0557825784989148532
0.539383500822532613 0.0594686042086403632 0.0196199807785929665
0.494171861018014913 0.146343962349575057 0.121527553043662861
0.545934432097135547 0.0915411351607987034 0.0860686619696303251
0.564520881800265162 0.132842193561569899 0.123668348064478184
0.573631861534736331 0.191028088698302179 -0.133160361819413792
0.553191370535899507 0.203169139885374245 0.119805120120136763
0.508322875537510543 0.220686240179062076 -0.121089865917099693
0.527314754298038757 0.24691636009365589 -0.0658943600083594788
0.539005663201660434 0.252685257138237696 0.00787843081683746796
0.544479200965367727 0.240011459084013501 0.0769877732866535019
0.607312103056352637 -0.204285463144601886 -0.10627134349415783
0.612138278067112962 -0.220527638562698275 -0.0593283407854669903
0.605458865300474547 -0.228500262216981664 0.0109660965761376756
0.591567380917107033 -0.222778523506000081 0.0787911647238777463
0.643702841224306099 -0.169499059452399653 -0.0778492739866554762
0.616644946544489092 -0.15076683586549311 -0.119996501157961885
0.648432673643330348 -0.18406641229064491 -0.00982685593464219763
0.640739480396611438 -0.190673481747736379 0.0600999845649658748
0.62596933108588515 -0.185538983185464856 0.106584373658434303
0.625535153533853139 -0.141196444070200794 0.123494982471776996
0.580929402768904479 -0.0347037414414488946 -0.100798967651737223
0.620193786174009776 -0.065243197883611298 -0.119617354568244683
0.551594970407011664 -0.0338943274208819215 -0.0294982065864525383
0.571474537334454413 -0.00964774342563441863 0.0371051885605030232
0.580168741145071776 -0.0268830226447961812 0.0784324957872777062
0.618848893332331951 -0.0633559803518910919 0.117329960938232031
0.592147309728336513 0.0301004481959006136 -0.109953379537908957
0.61543528493641475 0.0876119864026272399 -0.127203177785888799
0.562755410658330235 -0.00125753397137314546 -0.0415015353887544652
0.566085535172610843 0.0275617892297845245 0.030684752894207877
0.583581100760352522 0.0463552109334923121 0.088592619987578336
0.621781797269914005 0.0505395283457765326 0.113964706789780518
0.623616985921367051 0.146223835863457635 -0.128492106994780808
0.614522679672126149 0.149537657210793623 0.116569736935060134
0.624140055836329699 0.18596467722351856 -0.112111817146986939
0.586562167026559389 0.219446008870099074 -0.0935820842274099757
0.638507078211900669 0.191184523808199891 -0.0653783635689962755
0.598609700058358563 0.228200910999487194 -0.0270993816815392821
0.645461642199765095 0.184957698071103821 0.00519698534963953032
0.602287051747833146 0.222210361770949022 0.0467726096682530013
0.640228725071253835 0.169676205404975688 0.0738254226019195298
0.597804169669522434 0.205373179991205967 0.0984684744013809704
0.657030249830444224 -0.0935914676667760903 -0.0892196035047388702
0.671578759042669171 -0.116941405219052774 -0.0252112781396818426
0.668111619025537284 -0.13534768188692628 0.0458155891646098573
0.653323579975406576 -0.151660072024270037 0.0951125258844135318
0.653070882813758247 0.00882667435158799793 -0.0974550870175254491
0.679359402932620982 -0.0303993011363502749 -0.0334914697362560035
0.679721309324537004 -0.0572774940954513812 0.0383472487343496232
0.660747353210421551 -0.0915623047362534581 0.094895732034362329
0.658155322026103051 0.0980887249870651262 -0.0977298833266511263
0.677599255172502413 0.0608055795805701252 -0.0388322880548898006
0.680509396219799223 0.0331438047857281481 0.0330617526330487591
0.662728734669451036 -0.00241502028519103911 0.0913396748085150839
0.651776672381965794 0.154130113185902362 -0.0974621902952994973
0.666277876829704185 0.13749937598112616 -0.0469364482310593717
0.670225223679274063 0.118083139584950772 0.0241725415502208087
0.657452350161139121 0.0923444032420953076 0.0865390453471266696
3 0 2 34
3 4 3 0
3 4 0 1
3 6 5 3
3 6 3 4
3 8 7 5
3 8 5 6
3 7 8 40
3 2 0 10
3 2 10 16
3 3 12 10
3 10 0 3
3 5 13 12
3 12 3 5
3 7 14 13
3 13 5 7
3 9 15 14
3 14 7 9
3 16 11 2
3 11 16 22
3 18 10 12
3 16 10 18
3 19 12 13
3 18 12 19
3 20 13 14
3 19 13 20
3 21 20 14
3 60 21 15
3 22 17 11
3 17 22 23
3 24 16 18
3 22 16 24
3 25 18 19
3 24 18 25
3 26 19 20
3 25 19 26
3 20 21 27
3 20 27 26
3 28 62 23
3 28 22 24
3 28 24 29
3 29 24 25
3 29 25 30
3 30 25 26
3 30 26 31
3 31 26 27
3 32 34 78
3 35 32 33
3 33 36 35
3 37 35 36
3 36 38 37
3 6 37 38
3 8 38 75
3 39 40 76
3 34 32 1
3 34 1 0
3 42 34 2
3 1 32 35
3 4 1 35
3 35 37 4
3 37 6 4
3 38 8 6
3 40 39 7
3 39 9 7
3 39 41 43
3 43 9 39
3 44 11 17
3 11 44 42
3 42 2 11
3 45 46 79
3 45 47 46
3 49 48 47
3 47 48 46
3 51 50 48
3 48 49 51
3 43 50 51
3 51 15 9
3 9 43 51
3 45 44 17
3 17 52 45
3 45 53 47
3 45 52 53
3 47 54 49
3 47 53 54
3 55 60 15
3 49 54 55
3 21 14 15
3 15 51 49
3 52 57 86
3 17 57 52
3 23 57 17
3 52 56 53
3 53 56 58
3 53 58 54
3 59 55 54
3 54 58 59
3 55 59 90
3 15 49 55
3 61 27 21
3 21 60 61
3 23 22 28
3 63 23 62
3 57 23 63
3 29 64 28
3 28 64 62
3 30 65 29
3 29 65 64
3 31 66 30
3 30 66 65
3 67 71 66
3 27 67 31
3 61 67 27
3 68 63 62
3 68 62 64
3 68 64 69
3 69 64 65
3 69 65 70
3 70 65 66
3 70 66 71
3 66 31 67
3 73 72 33
3 78 33 32
3 36 33 72
3 72 74 36
3 38 36 74
3 74 75 38
3 75 40 8
3 40 75 103
3 76 41 39
3 41 76 104
3 44 106 80
3 78 73 33
3 34 42 78
3 80 78 42
3 83 108 82
3 77 83 81
3 81 43 41
3 41 77 81
3 44 79 106
3 79 84 110
3 79 44 45
3 46 84 79
3 46 48 85
3 114 113 85
3 50 81 82
3 85 50 82
3 48 50 85
3 81 50 43
3 86 56 52
3 56 86 87
3 88 56 87
3 58 56 88
3 59 58 88
3 88 116 89
3 90 89 124
3 90 60 55
3 59 89 90
3 60 90 91
3 126 92 86
3 57 93 86
3 63 93 57
3 86 92 87
3 91 94 61
3 91 61 60
3 94 95 127
3 67 61 94
3 96 93 63
3 96 63 68
3 97 68 69
3 97 96 68
3 98 69 70
3 98 97 69
3 99 70 71
3 99 98 70
3 71 67 94
3 127 71 94
3 100 72 73
3 73 101 100
3 72 100 133
3 133 74 72
3 75 74 102
3 102 103 75
3 103 76 40
3 76 103 136
3 104 77 41
3 104 136 140
3 73 78 80
3 101 73 80
3 80 107 101
3 80 106 107
3 82 81 83
3 109 115 108
3 83 77 105
3 105 109 83
3 106 110 142
3 112 110 111
3 111 110 84
3 110 106 79
3 80 42 44
3 85 84 46
3 84 113 111
3 113 84 85
3 85 82 114
3 114 82 108
3 108 115 114
3 108 83 109
3 111 118 117
3 117 112 111
3 118 111 113
3 118 116 120
3 114 144 119
3 119 113 114
3 121 120 92
3 120 121 117
3 120 117 118
3 87 120 116
3 88 87 116
3 89 59 88
3 116 118 119
3 123 91 90
3 90 124 123
3 119 124 89
3 119 89 116
3 123 124 148
3 92 122 121
3 86 93 126
3 126 122 92
3 92 120 87
3 95 94 91
3 91 123 95
3 125 95 123
3 95 125 151
3 128 126 93
3 128 93 96
3 129 96 97
3 129 128 96
3 130 97 98
3 130 129 97
3 131 98 99
3 131 130 98
3 127 99 71
3 99 127 155
3 101 132 100
3 100 132 138
3 133 134 102
3 133 102 74
3 102 135 103
3 134 161 135
3 135 137 136
3 136 104 76
3 103 135 136
3 105 77 104
3 132 139 163
3 101 139 132
3 107 139 101
3 138 133 100
3 137 140 136
3 140 105 104
3 141 105 140
3 109 105 141
3 142 107 106
3 142 143 139
3 139 107 142
3 112 142 110
3 144 114 115
3 115 145 149
3 109 145 115
3 141 145 109
3 143 142 112
3 146 147 168
3 117 146 112
3 112 146 143
3 144 148 124
3 119 118 113
3 149 144 115
3 144 149 148
3 147 146 121
3 122 147 121
3 150 147 122
3 121 146 117
3 124 119 144
3 148 125 123
3 148 149 171
3 173 151 125
3 153 152 126
3 152 150 122
3 122 126 152
3 153 154 152
3 157 156 155
3 151 157 155
3 127 151 155
3 151 127 95
3 126 128 153
3 153 158 159
3 128 158 153
3 129 158 128
3 158 129 130
3 130 159 158
3 131 155 156
3 159 131 156
3 130 131 159
3 155 131 99
3 134 133 138
3 161 137 135
3 161 134 160
3 135 102 134
3 162 138 132
3 132 163 162
3 138 162 160
3 160 134 138
3 160 162 180
3 160 164 161
3 161 164 165
3 165 166 137
3 137 161 165
3 166 140 137
3 141 140 166
3 141 166 167
3 143 163 139
3 143 146 168
3 167 145 141
3 169 145 167
3 168 181 163
3 168 147 170
3 169 149 145
3 171 125 148
3 150 170 147
3 150 172 170
3 149 169 171
3 171 189 173
3 174 172 150
3 174 150 152
3 176 175 154
3 154 175 193
3 174 152 154
3 178 177 175
3 175 176 178
3 157 179 178
3 178 156 157
3 179 177 178
3 157 151 173
3 157 173 179
3 176 154 153
3 159 176 153
3 176 159 156
3 156 178 176
3 181 180 162
3 181 162 163
3 182 164 160
3 180 182 160
3 164 183 165
3 182 198 199
3 165 184 166
3 183 184 165
3 167 166 184
3 167 184 185
3 163 143 168
3 168 186 181
3 185 169 167
3 187 169 185
3 170 186 168
3 170 188 186
3 187 171 169
3 189 171 187
3 170 172 190
3 190 188 170
3 173 125 171
3 191 173 189
3 192 190 172
3 192 172 174
3 193 174 154
3 193 192 174
3 194 175 177
3 194 193 175
3 195 177 179
3 195 194 177
3 179 173 191
3 179 191 195
3 197 196 180
3 197 180 181
3 182 180 196
3 196 198 182
3 199 183 164
3 199 164 182
3 183 200 184
3 199 200 183
3 185 184 200
3 185 200 201
3 186 197 181
3 186 202 197
3 201 187 185
3 203 187 201
3 188 202 186
3 188 204 202
3 203 189 187
3 205 189 203
3 188 190 206
3 206 204 188
3 205 191 189
3 207 191 205
3 208 206 190
3 208 190 192
3 209 192 193
3 209 208 192
3 210 193 194
3 210 209 193
3 211 194 195
3 211 210 194
3 195 191 207
3 195 207 211
3 213 212 196
3 213 196 197
3 198 196 212
3 212 214 198
3 198 214 215
3 215 199 198
3 199 215 216
3 216 200 199
3 201 200 216
3 217 201 216
3 202 213 197
3 202 218 213
3 217 203 201
3 219 203 217
3 204 218 202
3 204 220 218
3 219 205 203
3 239 221 205
3 204 206 222
3 222 220 204
3 221 207 205
3 221 241 223
3 224 222 206
3 224 206 208
3 225 208 209
3 225 224 208
3 226 209 210
3 226 247 245
3 227 210 211
3 227 226 210
3 211 207 223
3 211 223 249
3 230 229 232
3 232 231 228
3 232 228 230
3 233 231 232
3 235 234 212
3 235 212 213
3 228 214 230
3 214 234 230
3 214 212 234
3 214 228 215
3 215 228 231
3 233 236 231
3 231 236 216
3 216 215 231
3 216 236 217
3 217 236 257
3 218 235 213
3 260 218 220
3 219 217 257
3 239 219 237
3 220 238 260
3 240 263 238
3 205 219 239
3 221 239 270
3 222 240 220
3 242 273 240
3 223 207 221
3 243 223 241
3 242 222 224
3 224 244 276
3 246 280 244
3 244 225 245
3 244 224 225
3 225 209 226
3 245 225 226
3 247 226 227
3 227 248 247
3 227 249 248
3 223 243 249
3 249 227 211
3 246 245 247
3 247 250 246
3 250 247 248
3 248 251 250
3 254 253 252
3 229 230 252
3 252 253 255
3 255 229 252
3 229 256 233
3 255 256 229
3 258 257 236
3 233 232 229
3 256 258 233
3 259 257 258
3 254 252 234
3 235 254 234
3 260 235 218
3 234 252 230
3 236 233 258
3 257 237 219
3 259 237 257
3 295 259 289
3 262 263 268
3 291 238 263
3 260 254 235
3 263 262 291
3 267 266 265
3 261 267 265
3 239 261 265
3 237 261 239
3 263 240 273
3 238 220 240
3 268 264 262
3 272 300 264
3 265 266 271
3 271 270 265
3 270 241 221
3 270 239 265
3 268 273 302
3 273 268 263
3 277 273 242
3 300 272 303
3 274 241 270
3 270 271 274
3 275 243 241
3 241 274 275
3 276 242 224
3 242 276 277
3 240 222 242
3 244 245 246
3 278 248 249
3 278 249 243
3 243 279 278
3 275 279 243
3 276 280 312
3 280 276 244
3 246 250 281
3 281 280 246
3 282 250 251
3 282 281 250
3 251 248 278
3 251 278 279
3 282 251 283
3 279 283 251
3 285 284 253
3 285 253 254
3 253 286 255
3 284 286 253
3 255 287 256
3 286 287 255
3 256 288 258
3 287 288 256
3 259 258 288
3 259 288 289
3 290 260 238
3 254 290 285
3 254 260 290
3 291 292 322
3 293 295 324
3 295 293 261
3 295 261 237
3 289 325 324
3 238 291 290
3 297 296 264
3 264 296 262
3 296 292 262
3 292 291 262
3 299 298 297
3 298 329 328
3 298 299 294
3 294 299 301
3 266 293 294
3 266 267 293
3 293 267 261
3 300 297 264
3 264 268 272
3 299 297 300
3 299 300 269
3 301 271 266
3 301 266 294
3 302 272 268
3 272 302 308
3 303 269 300
3 269 303 330
3 304 305 301
3 269 301 299
3 301 269 304
3 305 307 306
3 305 306 274
3 305 274 271
3 271 301 305
3 306 275 274
3 309 308 302
3 302 273 277
3 277 309 302
3 308 303 272
3 306 307 335
3 275 306 310
3 283 279 310
3 279 275 310
3 277 312 340
3 312 277 276
3 313 280 281
3 313 312 280
3 314 281 282
3 314 313 281
3 315 282 283
3 315 314 282
3 310 311 283
3 283 311 315
3 317 316 284
3 317 284 285
3 284 318 286
3 316 318 284
3 286 319 287
3 318 319 286
3 287 320 288
3 319 320 287
3 289 288 320
3 289 320 321
3 285 290 322
3 285 322 323
3 323 317 285
3 322 290 291
3 324 298 294
3 295 237 259
3 324 295 289
3 321 325 289
3 354 355 323
3 326 322 292
3 292 296 327
3 292 327 356
3 328 296 297
3 328 327 296
3 324 294 293
3 329 298 324
3 328 297 298
3 329 324 325
3 331 330 303
3 330 304 269
3 330 331 360
3 333 304 330
3 304 334 307
3 333 334 304
3 336 335 307
3 307 305 304
3 334 336 307
3 337 335 336
3 308 332 331
3 309 332 308
3 338 332 309
3 303 308 331
3 335 310 306
3 311 310 335
3 337 339 311
3 311 335 337
3 340 338 309
3 340 309 277
3 341 312 313
3 341 340 312
3 342 313 314
3 342 341 313
3 343 314 315
3 343 342 314
3 315 311 339
3 315 339 343
3 317 344 316
3 345 318 316
3 345 316 344
3 346 319 318
3 346 318 345
3 347 320 319
3 347 319 346
3 347 321 320
3 349 348 344
3 317 349 344
3 323 349 317
3 344 348 345
3 345 348 350
3 345 350 346
3 346 350 351
3 346 351 347
3 347 351 352
3 321 347 352
3 353 321 352
3 325 321 353
3 326 354 323
3 323 322 326
3 355 349 323
3 356 326 292
3 326 356 362
3 327 328 358
3 327 357 356
3 329 358 328
3 358 357 327
3 359 358 329
3 325 359 329
3 353 359 325
3 355 354 360
3 380 355 360
3 362 354 326
3 354 362 333
3 363 356 357
3 362 356 363
3 364 357 358
3 363 357 364
3 359 387 365
3 358 365 364
3 360 333 330
3 332 361 331
3 366 361 332
3 331 361 360
3 333 360 354
3 333 362 334
3 334 362 363
3 334 363 336
3 336 363 364
3 337 336 364
3 365 367 337
3 337 364 365
3 338 369 368
3 366 338 368
3 332 338 366
3 371 370 369
3 369 370 368
3 373 372 371
3 371 372 370
3 375 374 373
3 373 374 372
3 367 374 375
3 339 367 375
3 337 367 339
3 340 369 338
3 369 340 341
3 369 341 371
3 371 341 342
3 371 342 373
3 373 342 343
3 373 343 375
3 375 343 339
3 349 376 348
3 377 350 348
3 377 348 376
3 378 351 350
3 378 350 377
3 379 352 351
3 379 351 378
3 379 353 352
3 355 380 376
3 355 376 349
3 376 381 377
3 376 380 381
3 377 382 378
3 377 381 382
3 378 383 379
3 378 382 383
3 383 359 353
3 383 353 379
3 361 384 380
3 360 361 380
3 380 385 381
3 380 384 385
3 381 386 382
3 381 385 386
3 382 387 383
3 382 386 387
3 365 358 359
3 387 359 383
3 366 388 384
3 366 384 361
3 384 389 385
3 384 388 389
3 385 390 386
3 385 389 390
3 386 391 387
3 386 390 391
3 391 367 365
3 391 365 387
3 368 388 366
3 388 368 370
3 388 370 389
3 389 370 372
3 389 372 390
3 390 372 374
3 390 374 391
3 391 374 367
