ply
format ascii 1.0
element vertex 472
property double x
property double y
property double z
element face 940
property list uchar int vertex_indices
end_header
-0.883953002340563287 -0.0742279491939289576 0.00655670343056317592
-0.858966792185483774 -0.127499579174431943 0.0108903456345662616
-0.852605809065738462 -0.12948372136832681 -0.057787507635841201
-0.852352084629055096 -0.11478812094499094 0.0854589194992557977
-0.797377822104695433 -0.212796813510999883 0.0191214545624522891
-0.827543223935449546 -0.175362340699953739 0.0246220184621163858
-0.891024966390649098 -0.0153917413612056717 -0.0496335416505476953
-0.875330605405608697 -0.0702017604823508556 -0.0669442466733171648
-0.809361146490814587 -0.103107513313954319 -0.167689722639497552
-0.892246119306549956 0.0372174509351607397 -0.00402949185207291186
-0.895384407818421768 -0.0230169069282517881 0.0178474015843384584
-0.838113181421673126 -0.0820753293057537581 0.150782489299739531
-0.878433410306514784 -0.0542009147526196847 0.0798891030732065965
-0.86292919814562552 -0.0155285934055012509 0.138516301283738652
-0.86942747179042501 -0.0049600539287645122 -0.118371011099010978
-0.851205563280185595 -0.071533059906825347 -0.126551954193433097
-0.878282340626635571 0.0525697347931187442 -0.0791860195354891355
-0.887019706826279619 0.0142130290163024857 0.07020765815289505
-0.864327789150919568 0.0548735344828695654 0.126713641449199416
-0.840981518527312955 0.0230922461530399872 0.177451756012617284
-0.84518220178918102 0.0484215780386106007 -0.150508767292988815
-0.848118033514362768 0.111821901875923502 -0.100980812641781353
-0.870599135110574629 0.107658998087910157 -0.0201814429127399782
-0.874679511285480271 0.0871009871528267143 0.0575779868703020573
-0.840650499054085731 0.122023679759166531 0.120778825305582482
-0.822649813730278567 0.0795526278712077872 0.179186759312166682
-0.835100163650379423 0.165007505949502892 -0.0364834994974556903
-0.805244565027084191 0.201221984809019205 0.0343860173767585528
-0.827708309210805071 -0.178066319474052381 -0.0384485153606627661
-0.690967340809945929 -0.261645951920192799 -0.059168646362099786
-0.79901568740391804 -0.202747952450617691 -0.0596582269058800047
-0.76961639358535483 -0.236047875758654241 -0.00364059054407101781
-0.720243469845950002 -0.25965115265273675 0.0136123165440704096
-0.742880703577519452 -0.241303323280544657 0.0688870955028646204
-0.827085392796379049 -0.144638779202862028 -0.105280214311810727
-0.780724367576558942 -0.179019075716664033 -0.131029607832673839
-0.744355808360792848 -0.153046870690950521 -0.190111383237452053
-0.813072392026805035 -0.165235970075803151 0.0969395894086239052
-0.794612589287425841 -0.139672546301732203 0.16098145438531164
-0.777664711702604761 -0.0930098333105650737 0.211060466669715313
-0.77421287926056348 -0.0746297571890142952 -0.213424325739368703
-0.73111141048984174 -0.0499161198733564376 -0.24596130800307292
-0.754089199057165427 0.0353295168990420058 -0.231337770440736945
-0.753438504389102315 -0.0318598570722910812 0.244236032727021546
-0.817985207755491328 -0.0324410375938937942 0.196961921384958744
-0.701200594243436393 -0.0920251782618660419 0.252059966796115642
-0.796218729247305301 0.00727721044648777047 -0.207821201975322362
-0.708337639120656837 0.0716922249244851539 -0.247300344672275352
-0.792083095331381326 0.027650080135614135 0.220563986054434086
-0.711383091483475449 0.0276494473105530492 0.261025821312646955
-0.830174374153227923 -0.0230940850935220481 -0.174523093929794731
-0.802216060677382936 0.158467250383064057 -0.121981822202466256
-0.805701237209594634 0.0879793145631832252 -0.174953078393449257
-0.784004873874584285 0.136576134830076856 0.180020189603133957
-0.73264252016550524 0.182390190808859709 0.176630034859468071
-0.751809917137419625 0.0858284520194728257 0.228471913858057818
-0.753005874333469549 0.125786860846574006 -0.194044434497952584
-0.785812257551988913 0.209110465415864061 -0.0567706464915867723
-0.720972136457504353 0.244883884857542367 -0.0750656230528161245
-0.754304921757936619 0.239397050439716708 0.0133979014053525747
-0.844532816821475851 0.152081626477503173 0.0482732283740686524
-0.800842144232254638 0.176528591757273173 0.115821557865565833
-0.687539528629119712 0.269811101159756372 -0.00456302283933900446
-0.698740809525356998 0.252794136113573764 0.0813417322188273173
-0.752217390603056479 -0.232129074106065675 -0.0685732412810304837
-0.637651909479146184 -0.249385963410296646 -0.129026222752539277
-0.715383084808049352 -0.218100887488146433 -0.137177484146252582
-0.615105550392526457 -0.281726668347390519 -0.0495220046206754153
-0.651314267104490918 -0.281094933484296428 0.0227543017513344922
-0.772935594879595511 -0.208003827386973567 0.096071558375408872
-0.67060322260703098 -0.2636064597270803 0.0908328812095860194
-0.697591817173296547 -0.231020523153806778 0.140421893034233469
-0.692873765454132484 -0.124893738380353808 -0.235002362836484485
-0.659165351302630542 -0.193774586195712362 -0.195537680476431774
-0.691518456336223442 -0.011975320282942863 -0.266908095378393828
-0.72018923116351008 -0.148589929588659214 0.214309885017972129
-0.741844954891645703 -0.187923662018975646 0.162744030017180435
-0.633326212764588448 -0.154150766467896827 0.237621993428476841
-0.667088195103729298 0.0343942730836282948 -0.275803378926402665
-0.610398764358102364 -0.0975076029541069311 0.269546471265150134
-0.617116784792309025 0.0609044824837262078 -0.281049919636411294
-0.666870434501230624 -0.0340837278843332328 0.275723091090338546
-0.664213587562935581 0.096026130873046206 -0.260266306854353813
-0.546428228819192841 0.0919802528368257877 -0.277369029251940624
-0.69592595771526633 0.1333973195969472 0.229707932158706163
-0.650432712168773963 0.0744795706226189375 0.265433528646558725
-0.606935596357149998 0.13550701854966582 -0.253708853878190199
-0.738487538428988843 0.198181052453229367 -0.14043722779327461
-0.656334370567802861 0.232473895883014758 -0.147914828868615955
-0.753691766100575755 0.218607251308357314 0.102574004021787166
-0.6766061394809747 0.21957850724476935 0.161705590495554496
-0.634076143711568951 0.171584439039776077 0.221931565095016409
-0.638480646531270013 0.27159030323216149 -0.0783569202460664277
-0.604259771257710798 0.28947496030971398 -0.00708244387177676526
-0.628294047694850311 0.277600038200385368 0.0636835749869562318
-0.61649863264025484 0.249251217950246851 0.139583880196744392
-0.548218718001134864 -0.265923668659273749 -0.113267264923588712
-0.56549232720759357 -0.222792614096514047 -0.183729875479754806
-0.530931968115196939 -0.286917981249688259 -0.0363644719974301617
-0.584652583476119814 -0.29182672224636097 0.0167136478511571464
-0.591443716554530763 -0.279533271548930262 0.0827566711818114586
-0.611636284744296765 -0.247959125489458893 0.148918234968094837
-0.581155642665977634 -0.151442622949842037 -0.242012779201057904
-0.644278945987787677 -0.0808881455835127466 -0.26733223181403154
-0.65727282021538691 -0.201702388376513081 0.195087837945462084
-0.535997119430104418 -0.162133870545622255 0.233963704418531371
-0.620460770695811292 -0.0157124167588199304 -0.284748376389437174
-0.582773621801841224 -0.0500829682776401247 0.286166653845322305
-0.546527592788719652 0.0132020571176316229 -0.287627336572296388
-0.609254080063829306 0.00854663884894541447 0.284414294228308329
-0.516299564059168548 0.149959748180021529 -0.249613346502848166
-0.581491731530236255 0.111035649649640855 0.259988161713943899
-0.675547347636762718 0.160392116353634651 -0.212791000582990719
-0.566831784571203978 0.203293795738723054 -0.201968494250218122
-0.517248255363597531 0.231240523809561505 0.174579132944997523
-0.574960917202130273 0.204246462613824092 0.202982315291251075
-0.562085248618145572 0.258485573766317089 -0.130929605693057838
-0.547302157032099945 0.286227907474339904 -0.0602460230775802227
-0.550883065170274078 0.289523612589184798 0.0522128909808435987
-0.547783473514886543 0.26907394943653784 0.11470023080495062
-0.473665015943001089 -0.237684783675013139 -0.158168360010212866
-0.408276366325030227 -0.200469743412162338 -0.184913872046294142
-0.448107209697748532 -0.277531458232292472 -0.0114605229892311908
-0.517749121570782678 -0.285382990380750878 0.0424146644186062724
-0.523497162420069606 -0.259882273233075056 0.1221370154435438
-0.563751023107735172 -0.213369733799918221 0.192028962471841119
-0.486525549009950764 -0.189012434657416684 -0.216610468711096626
-0.479360845686389814 -0.121975714391277162 -0.256048260195523958
-0.441407746684956859 -0.159067680716904136 0.221026388126136564
-0.516447452989631794 -0.102500643052839152 0.267093559904350797
-0.5518714443543008 -0.07059317790142286 -0.277434619007393746
-0.511655858779207162 -0.03548618995602109 0.282551162352894347
-0.469911437079679528 0.0427343709814525588 -0.278464776836237216
-0.535521867022965226 0.0391962054353242051 0.279693431035307638
-0.472351495621573303 0.103636012388931081 -0.26803246064381625
-0.518177031237311625 0.14444380291001524 0.244194830799418894
-0.450058874568689871 0.185662589614427553 -0.208163583553042875
-0.46884641530185639 0.23499562269192259 -0.1559783179931995
-0.458946990557941414 0.250922701140353754 0.132947171611775466
-0.464676912241319018 0.176255118417569689 0.217033427993994193
-0.471000929583915262 0.269466546183118827 -0.0921899705242509165
-0.466597592572385367 0.285880670844691098 -0.0253290507025451667
-0.524386876644268973 0.294020146117408177 0.00326517254837443505
-0.484555948061239083 0.278437814119814608 0.0815911710604593776
-0.38810837914960683 -0.234243246511540382 -0.119428413020165824
-0.456505362456924746 -0.265811239736059246 -0.0873080957315157391
-0.386546108495899765 -0.260699874896163752 0.0192529196703881134
-0.444210332600711411 -0.265088481061079295 0.0695596803818504805
-0.457673640662758452 -0.220918837047169192 0.159380190066422345
-0.374383018273497459 -0.237678020997503209 0.0863414973884645415
-0.422483044254724049 -0.156410380343754873 -0.228845339185857533
-0.357927971148991941 -0.14786802233500701 -0.203310085283009007
-0.331143421627308199 -0.191208452009120039 -0.140144350274939433
-0.368686182330443923 -0.194777901587987134 0.157149205579522222
-0.363093119267528852 -0.136513728216587193 0.210275217496464772
-0.309803944200030601 -0.106694450123059142 0.199071664826946187
-0.400885769466836239 -0.0950319908811668723 -0.247230491785817963
-0.467591158877621482 -0.0402628192708761254 -0.275216461365572096
-0.430417754250814077 -0.0904967092394106387 0.255220442322207475
-0.434275593161242868 -0.011691208194317522 0.268674417502368201
-0.391147044009122535 -0.0137803255504879499 -0.258139576234255319
-0.465133139196066248 0.0704358158514260813 0.26459568172605441
-0.397181955099842887 0.0638723646030468079 -0.256741696972408118
-0.418744565839738458 0.128675231411465779 -0.241234738009349303
-0.34954373051751747 0.149593707977556334 -0.196322383161824154
-0.413955603209641976 0.204575878005085116 0.173985035872088717
-0.360262104135645078 0.137787214194726754 0.201768843665079772
-0.408440628686755736 0.104266025352570194 0.239544065228441683
-0.370414356505588349 0.203352522300760841 -0.152916097127566292
-0.38675138493252359 0.241730451847184946 -0.0984045264883687126
-0.328685707158091533 0.233064951204755011 -0.0253613385828966378
-0.374884702094925082 0.23084887976501639 0.110720734767740955
-0.418980408445402186 0.264575077547137938 0.0770440612274578274
-0.30807582919599269 0.169837258275025965 0.138916356329525204
-0.40002367923503801 0.264957209192148713 -0.0362990428790269451
-0.468967203518435738 0.286689040458476985 0.0333288452090714782
-0.378116874007189241 -0.253660950457053724 -0.0455133514185940211
-0.328805983120885326 -0.23393489081569746 0.0162942777955342212
-0.262544581615793693 -0.173171128016366666 -0.0794692427719850408
-0.283215854617841656 -0.132303444295097716 -0.159280616460088731
-0.316746709571722185 -0.218341668710199749 -0.0617377305454092501
-0.307730656394476831 -0.203740742391435553 0.0878284018015156737
-0.303377143704304075 -0.158602332053961403 0.153341233941555299
-0.260082854838528998 -0.105559497301063343 0.153246929384134867
-0.318316566230961662 0.0042105313682858957 -0.227593508773350967
-0.327195452529208453 -0.0761838072425807672 -0.218745066417785017
-0.358705930153467578 -0.0643169199396276398 0.238002229409560728
-0.299703250159099155 -0.0395667272059132616 0.208056882382136488
-0.329061746965550961 0.0821344320748154944 -0.221557799006964679
-0.247109046163739382 0.0251680688904591457 -0.186987945274225437
-0.369728822674783686 0.0195102613492744922 0.245653629858079259
-0.31647137558919658 0.050401761850714516 0.211752779452963003
-0.260888148945528364 0.10251178379239835 -0.173223263707083797
-0.267327379643853058 0.0828431071113287093 0.16969983740443445
-0.277961064313535011 0.162098473402465693 -0.135714583278777612
-0.299432917447072122 0.204111637870552892 -0.0835756113908666387
-0.417781199115018875 0.275115776394226297 0.01951484799892831
-0.304764456867215705 0.211982233550377042 0.0581048907208702656
-0.366721877513512262 0.251156723132920923 0.0348074313796243456
-0.227180389799265664 0.160076896503091592 0.0750399393482238386
-0.203835411050797055 -0.114264786186558331 -0.09426436016753105
-0.119174752061788181 -0.087921032723271314 -0.0603524368078717094
-0.21903644257523458 -0.151582137844364001 -0.000906143277019965439
-0.270836372450322549 -0.195118120519171934 0.00983136800138662177
-0.252714037806779368 -0.160278388274860045 0.0850190843645192013
-0.209239164408206169 -0.110180712802028388 0.0828213958412991336
-0.161439780144114031 -0.0351430236022938908 -0.131479966222529859
-0.251182540366295337 -0.05782453272701292 -0.176724315872627297
-0.167060815997186501 -0.0624463020539508737 0.0859078896240014489
-0.237357889413165407 -0.0244036678524185424 0.156520783332352392
-0.178527595106624748 0.0521548134161816113 -0.144259474529718795
-0.187057812169739962 0.0208684260763697602 0.130575205953692236
-0.125744503950483255 0.121142966918365846 -0.0524762917772382959
-0.113207768526551095 0.0800581364639901261 -0.0992616202258120583
-0.19427986495396049 0.117411660198545126 -0.116495405252041481
-0.211618318998588156 0.10393206010526311 0.125366023685322819
-0.143262144707345607 0.102254217582801538 0.0848763911261362497
-0.131910593431044415 0.0394390627788286791 0.106231699155290044
-0.212275344351678275 0.15990029658682714 -0.0650329929252152356
-0.248901540840054142 0.189474708483184762 -0.0037396908798820387
-0.166595593108604417 -0.110971507683657572 0.00235155142837189428
-0.106511651932105295 -0.0831334830309217176 0.0192896568492674156
-0.0885210278018697116 0.0147585826058591867 -0.116156583474036318
-0.0555428919234161322 -0.0497162719476325898 -0.0925080266961659375
0.0254677126325962289 -0.0739013043058641961 0.037054141755018026
-0.0411407661442087236 -0.0712436896419634813 0.0282716089454928647
-0.115412431964447448 -0.0324737649357898506 0.0821354665513220478
-0.0545046265890083564 -0.0221644315136205611 0.0757555467491885098
-0.0242028268079115538 0.0572547505486927372 -0.0864525825066150971
0.0640350965747151363 0.0477471819585518487 -0.0936906875346024404
-0.0629208990855752853 0.0399977418064154239 0.0904148145561998601
0.0224947233819047902 0.0357714269781170616 0.0955261353531050156
-0.0337330329394765274 0.10021830239977228 -0.0404454215658963459
-0.150351000306528731 0.13813497811682543 0.0172303185228286256
-0.0417934205222153798 0.111749493258502697 0.0175219355070699578
-0.0579215619416225611 0.0901072772347154133 0.0668566873847188242
-0.0367101544804318905 -0.083119135808555511 -0.0362810491894825435
0.0399927098354597721 -0.0745774456574051087 -0.0765962192443929712
0.092637942012115837 -0.0823912598717591871 0.0601317906804712532
0.0166063358243268323 -0.0231922208118216996 0.0807834273512849921
0.0231452947523807483 -0.0127748422517780721 -0.104503289405798699
0.0477508039865709166 0.0848118137263161459 0.0792027580997685526
0.140864360415341894 0.0393415427281604835 -0.124779911814380653
0.0529039791767093454 0.0975923383328136801 -0.0442036176338864162
0.0402281388627054315 -0.094978015980082181 -0.0217599071984875027
0.241894440654939036 -0.18876508821232954 -0.0040652876738069459
0.12234335183799025 -0.114947449336536001 -0.0648424597689436638
0.107604362152257688 -0.11563936428680277 -0.00149265097301473138
0.225059891277100105 -0.16265577113102056 0.0688449247897425232
0.167045981449531228 -0.13755282110801148 0.0304709389039788392
0.122239401056630975 -0.0776138099849541657 -0.109609440498401461
0.198884519235611235 -0.0313758566229985283 -0.160825590698813026
0.207393732156709476 0.0340028748163875572 -0.165740546319674775
0.0947530581120518828 -0.0279329107530470223 0.103980379284300595
0.159828483059453547 -0.0964880260280707031 0.0934710154174851066
0.27900606698340874 -0.0875257326205497593 0.181594107218982642
0.121949883748288732 -0.0199246266887640675 -0.126168526953153753
0.230257246462964416 0.0875227910705545925 -0.167095692110567989
0.177607539976493756 -0.0445648731334923748 0.138220969082058276
0.216089447269696477 0.0101914672820614099 0.164395546879595678
0.185548643623580811 0.0940537904407426489 -0.127237739498196473
0.12570138722743246 0.100052805613530318 -0.0781936906814864746
0.216541412443743059 0.157576354449795814 -0.0797067432811853493
0.146449977955847049 0.140432913641072965 -0.0167281337968196789
0.0764833285227245058 0.116717197677574117 0.0286605344170552251
0.119705226156928204 0.0314368579356636701 0.121944092881725058
0.243805808647438393 0.190033834556265324 -0.00480664023176869456
0.200585138947496938 0.155803617506026615 0.0584751553919763203
0.187628931263269294 -0.154610017860851184 -0.0416810552090938757
0.20327494460061904 -0.139974002632659522 -0.103291119193299807
0.203728754686895136 -0.0941825482442658624 -0.143280023300876413
0.265837300085188744 -0.190926618160206257 -0.0774867707205614542
0.35054105518206502 -0.215754294005879005 0.133160341177137709
0.233018839058756866 -0.125096483153423366 0.129170846894356789
0.289237397805653607 -0.191181779548337538 0.107184484410205963
0.316037313465237668 -0.167435431258887157 0.157758643858205205
0.266118615104136202 -0.0248758908883727758 -0.197521548341457936
0.301286579379003494 -0.0263759203456616145 0.211581413061952189
0.269281189799131293 0.0542836431584040741 -0.197537829638620099
0.362337809959285329 0.0644981334599997874 0.244735976777584241
0.251086043054200292 0.139175917567465585 -0.144313087749846358
0.278021574525190274 0.11399267333756373 -0.182927660800976027
0.173597831092209803 0.0947632244996864659 0.116365220752016649
0.273000482939129208 0.0632778127545421121 0.18434918630268754
0.314518342811169971 0.196127833524563588 -0.119394369623199298
0.339402424865485997 0.236726262740248022 0.0119112469452493357
0.300490161106642228 0.204779747323461381 0.0719048600834471391
0.292384214567311229 0.151903338757326922 0.143507181357194646
0.320509093832382075 -0.228613280291708965 -0.0344551621661867633
0.398492075541062696 -0.249922369515004822 -0.0678910749326082918
0.340843512263696691 -0.213305034679500377 -0.112600964854151012
0.298408110967165574 -0.21703163489466798 0.043169790190024239
0.379203026597379422 -0.254523938078176748 0.0193657982442450097
0.360768796287172899 -0.238464816029776372 0.0889298828799584828
0.278814293875415231 -0.161399495408543592 -0.13864648299265464
0.334479215926771323 -0.0879712135510063303 -0.213890192291570858
0.405965388694369933 -0.209319088075690468 0.16886092707717465
0.367544997090551995 -0.0928595924457831651 0.23051482483293384
0.274045430997679862 -0.101484303843777379 -0.179105759781223117
0.387726481556630143 -0.0505595734442031847 -0.241993452605289483
0.438421532660502711 -0.00164996853271507727 -0.261992858622900726
0.331318072043528256 0.0223612269482510242 0.230933406230475619
0.377511402899489756 0.00608338647543517526 0.258821069296916617
0.415439860483761803 -0.0588684811983602174 0.261596325700869436
0.327056169450107015 0.00820259105534799221 -0.224633355275334651
0.485633008442034664 0.0357661021616300923 -0.273146831250297761
0.411297922777793978 0.0679135135996738748 0.26395079343728256
0.443362658805783572 0.00196977899783775875 0.275829908551473491
0.388284892529090708 0.0577285364966691333 -0.239906981810325881
0.332253095601897031 0.0997156381892683741 -0.210417524738462619
0.339731894092673625 0.10459562947240035 0.211041168519439437
0.470141521121327677 0.123738540857416451 0.260542585460384113
0.329943597810477274 0.16256962867039354 -0.172870376181633201
0.412113183927500959 0.244471064591690768 -0.0927282261434198563
0.315803525513958738 0.21945356508334618 -0.0574026165269027611
0.43688799636449871 0.267540204861735964 0.0336137198083804462
0.391755172601893464 0.243472078762479921 0.085324592889434156
0.384795559517127295 0.210601284382294307 0.144250884988569805
0.420427005165201151 0.260380554439007761 -0.0324879349330248895
0.482952839388683552 0.26367208249744073 0.0998977740619147736
0.344654757212819574 -0.165061915302164075 -0.175263593939971929
0.470603254919753355 -0.251141487929701757 -0.10716511514115519
0.408661794239066567 -0.213466057499548584 -0.15194379749544315
0.529218248618117948 -0.277203377080446456 -0.0468268887947616078
0.458974123316683968 -0.273606834509629249 -0.0117909806401307448
0.427282209961632187 -0.246560600779525463 0.126588284619242208
0.445343499685270039 -0.268803612787944013 0.0684742374713384616
0.50578559400265477 -0.239682643596033862 0.155165854246060053
0.401720239059917494 -0.145139973480641948 -0.212584685688400471
0.47116535589504982 -0.193807198500945466 -0.190649925328989389
0.45508532697947135 -0.10614450615780073 -0.243780616145318096
0.358031842334051942 -0.0403291688080858607 0.244713638038161069
0.385728994202956976 -0.15455361132493442 0.203356077257127232
0.457469655824725374 -0.130025213924847727 0.24244808674900134
0.503949860801665261 -0.0535279729550279595 -0.2675446517621618
0.501070342908773614 -0.0804671999492483914 0.268497560320494322
0.55286881235707297 0.00469264436752688321 -0.277396674193982118
0.532432724541541114 -0.0176752654598497962 0.283204621113494481
0.417112615738438108 0.158143178256397204 -0.207550445365721703
0.529066128972407568 0.0975099603605788789 -0.262607108091156172
0.400741098187948452 0.122901135358048086 0.23949694787273651
0.491862528207048066 0.0617112958895910946 0.279762774452719742
0.455497639151612899 0.0967461904207633783 -0.250534393802635591
0.412889615044181313 0.216379106022154627 -0.149964331118640298
0.515419519188493824 0.171159796496224093 -0.223665848347024188
0.473466917577840762 0.23585363734276163 0.152147722204754643
0.39350986403964483 0.170002219613385491 0.199263669725010167
0.456408803485461256 0.166279952931653263 0.233673661977137209
0.518508397048171643 0.254110760572088479 -0.120978615432438097
0.532704486481539341 0.278409529859422966 -0.00651610187630854813
0.539591263278603184 0.278419469511595685 0.0571297438889610959
0.565445961190605972 0.267483171942201337 0.111944088681424012
0.603867327019783295 -0.238326523933654583 -0.135364602056543354
0.536752933427194434 -0.240275702751363451 -0.138321773597385872
0.583327848926607939 -0.271497097856633118 -0.0715491912465989477
0.514362347518883767 -0.283375787605926743 0.0327727954380011427
0.518790024666362592 -0.270600566369427142 0.0934902279566214717
0.591290679252561291 -0.218232848306207816 0.180665758016051697
0.63003225145841113 -0.187113021294007836 -0.19370519432025049
0.541094165868069688 -0.163133324448552941 -0.217598022604007707
0.487822162179829877 -0.192729874681814711 0.205712079323758706
0.599544658275440789 -0.105659343116156088 0.260073668605067032
0.587717806568821444 -0.0968537730941634034 -0.25559459237454496
0.631407849536795185 -0.0468621062377556422 0.273573220066977318
0.612377366668757639 0.0581945911809361449 -0.268521417897302106
0.587580729867140716 0.0365344588131551046 0.284243464897581954
0.682493398160017084 0.105529189779279067 -0.245344286165706527
0.560604131494923164 0.110585266577730434 0.271324583098422223
0.599370625392018574 0.151689847893036328 -0.23681434408865018
0.599651550481938078 0.216332466386897737 -0.188129642883073184
0.47286501452373475 0.201952215857524153 0.201147095317415925
0.530211017064187606 0.16753532880167285 0.24289368524213889
0.511454084297648381 0.223132353677503004 -0.173811126893667234
0.530876545352187867 0.269727037138801862 -0.0659797933918822299
0.63625148329778547 0.266921946212449912 0.0868909487979299955
0.562186283786282215 0.242822326179219755 0.157583590614603836
0.671170438158766203 -0.24296559849780186 -0.0937835295871116414
0.702343128674114303 -0.207797754737002183 -0.145694407378064356
0.633355057075966621 -0.268738856286116323 -0.0304469992164725645
0.576497197080835355 -0.281500411627545966 0.0151223549676003863
0.609973368891426282 -0.260236676182015125 0.0901514187769651559
0.557755617379499191 -0.159156126491072164 0.235177127058977087
0.740410862804977477 -0.169035531683391832 -0.173015211579988865
0.671358466407587118 -0.137605386421375264 -0.224552057973812474
0.657042542231080828 -0.173948204143581725 0.211567393993338737
0.725749371789506381 -0.0660050536756086464 0.241489086401381309
0.640301897829061883 -0.0446923421411740407 -0.265210938692703235
0.682003213418320486 0.00926009990144812008 0.268097664393499913
0.743262291981643286 0.0307852080298594982 -0.247681455609567003
0.652504202331455785 0.0874422754296603488 0.266813926055646189
0.749836000361269295 0.0973034008419279561 -0.233810724206038573
0.618489153147929516 0.155252021278837415 0.245045485201824453
0.734338209766486116 0.158607789966272505 -0.201353079679686769
0.675245577004956132 0.189915357236033033 -0.195758949897227058
0.641607468620515209 0.243175113719868025 0.147156193827199494
0.559584533157160391 0.206067853032520121 0.206505206855528561
0.596823841864478899 0.248389389469284017 -0.144351750807126505
0.64530390346999611 0.267148915852855773 -0.0404455097247682707
0.640081085550346596 0.271599139411595081 0.0227530088672694003
0.713765162512442819 0.236075764222232864 0.121055316313890188
0.761239759387946413 -0.214560940540903022 -0.0839629663208395494
0.836938037154384973 -0.158699469733454473 -0.0273050760296319993
0.730627257344087955 -0.239998881026586064 -0.0366695377010671092
0.689658590829964169 -0.254751685586527277 0.0257413186817780117
0.694381582731266822 -0.224994400306979536 0.130851618104191103
0.742178264744404181 -0.236229885181397897 0.0573348074987133291
0.719902756407793998 -0.0944711769868767925 -0.23175812169034582
0.816961772592534108 -0.0844749681060660146 -0.172727809692360013
0.794752676466562447 -0.178732323645990981 -0.105558659118506787
0.773666050136704975 -0.207550032803666407 0.099483277753459276
0.744522154991993035 -0.175274182691631947 0.171550665665609892
0.778623377420668783 -0.125389603655623905 0.18543204000818253
0.762860751786161084 -0.0533896730866987856 -0.22753590508760968
0.69507962553889846 -0.000747095996260485271 -0.258247267819750992
0.697820093838728228 -0.12060903880486408 0.232310928354935164
0.765523334973517988 0.00174354840335175926 0.229218032260698534
0.797873263449487391 -0.0182253027136758151 -0.217239998130797723
0.732173958873442388 0.0751454549928417675 0.240795024697431109
0.800247705396127884 0.0812488994690647448 -0.210048703128062259
0.781714267506204097 0.129254062602747188 -0.197189862345533845
0.820715661230425275 0.127729675180909552 -0.152601304771641799
0.642438209491900669 0.201743525072883789 0.201096305843495082
0.757989299758353274 0.145595752719089505 0.196257442571694307
0.696604147347914093 0.144559438178207766 0.229285431454093747
0.789131325653988802 0.167581404091232788 -0.145399119757827877
0.674801016199140014 0.235127157848876334 -0.141047450614565278
0.742703952516275523 0.204953156470425751 -0.138728106326350686
0.710159317590726924 0.200541728024827087 0.178255615537139478
0.759669798506574789 0.196976890439972574 0.149828172801587806
0.802462523406761052 0.152363034351288062 0.147555905427930817
0.630073403300370538 0.259555696973337857 -0.0979861212767462603
0.726360409923517469 0.245149090926733038 0.057582055513586361
0.807992468465600577 -0.19881209554935847 -0.0208520002700557962
0.778318802124121634 -0.222985665350471568 0.0143831682070222067
0.782145412651465755 -0.127193192509784142 -0.176978560743651175
0.830113885900008008 -0.133333070900061745 -0.104108407944392606
0.835509426416489953 -0.164135295017877963 0.0491672297483315354
0.810559515249337004 -0.19675417761228628 0.0530106001281500094
0.807680955879630402 -0.168012130345179367 0.116875294983334418
0.833744681368078111 -0.118485809468455633 0.124974131133185465
0.826579748938862657 0.00551527449794645547 -0.199838899912002682
0.84355256549306068 -0.0432213029453145381 -0.164104729316324943
0.858602211076371136 -0.0833576911644069579 -0.0990694011298540456
0.855108581819678193 -0.0532696791513704512 0.127948870746058985
0.804360932048188371 -0.0633466642226745008 0.189040574617863527
0.879064407009887083 -0.0480041852895273652 0.0572992960855244274
0.788522851493643984 0.0417964135708050119 -0.22800740808479214
0.836554510828109832 0.0402917480706103531 -0.185023054344305105
0.795128493846104289 0.0803743167200171305 0.19565276723549016
0.82946086335358471 0.0123919854195585176 0.173648714104322338
0.833252867284369869 0.0848815225225183489 -0.168616096567231227
0.859614904345456621 0.0855604876023226546 -0.106892527506799354
0.839609901486090493 0.139815863323656059 -0.0844094745350137954
0.841758319196920235 0.0890301077587746514 0.136388729543564707
0.834840409650173587 0.152399975931085618 0.0839727875597808954
0.869781826922320311 0.0877415771064434941 0.0633766673329374253
0.723394596666665723 0.237984398957310328 -0.0807353766718239135
0.737268600332889212 0.241057539018959377 -0.0120153075764054332
0.801287812160096813 0.201567515573735367 0.0297388510134433785
0.780925970070741493 0.205462800743408058 0.0987323399943336316
0.873538238107031573 -0.0301624128951720437 -0.105047084444995178
0.864979038554008484 -0.1041343860373182 -0.0191864586815392729
0.856227259539540375 -0.00464548141501264396 -0.159564338216682616
0.883824425005656722 0.019995770245749795 -0.0580490660159514588
0.883362571166055321 -0.0442561451327622285 -0.0255761309058385664
0.859063958113228998 -0.111601158910583712 0.0570280459839801815
0.864772779457609442 0.0315829287259336566 -0.132167358949642932
0.87485979460031027 0.0838509367432984237 -0.02386279384505351
0.88655771570651587 0.0190082875994399825 0.0282629275050596609
0.868984490601577342 0.0197507363819117016 0.107688663670517049
0.797358647043641566 0.194663925953840744 -0.0609277382892055297
0.848270313903570439 0.145865559202799755 0.00368952459160406306
3 1 0 7
3 3 0 1
3 5 1 2
3 37 3 1
3 7 6 14
3 7 2 1
3 0 6 7
3 6 0 10
3 12 10 0
3 10 9 6
3 1 5 37
3 12 3 11
3 0 3 12
3 11 44 13
3 7 14 15
3 15 8 34
3 16 6 9
3 14 6 16
3 17 9 10
3 9 17 23
3 17 12 13
3 17 10 12
3 18 13 19
3 13 18 17
3 20 14 16
3 14 20 50
3 16 21 20
3 22 26 21
3 23 22 9
3 22 16 9
3 24 23 18
3 18 25 24
3 17 18 23
3 19 25 18
3 21 16 22
3 22 23 60
3 26 22 60
3 23 24 60
3 32 31 64
3 4 28 30
3 31 30 64
3 33 31 32
3 35 34 8
3 30 28 34
3 34 35 30
3 2 34 28
3 2 28 5
3 28 4 5
3 30 31 4
3 37 5 69
3 5 4 69
3 4 33 69
3 31 33 4
3 38 39 11
3 41 40 46
3 40 41 72
3 36 35 8
3 8 40 36
3 34 2 15
3 2 7 15
3 3 37 38
3 44 43 48
3 13 12 11
3 39 44 11
3 38 11 3
3 43 44 39
3 46 42 41
3 52 42 46
3 8 15 50
3 40 8 50
3 48 19 44
3 19 13 44
3 43 45 81
3 43 49 48
3 46 50 20
3 20 52 46
3 51 56 52
3 50 46 40
3 50 15 14
3 21 51 52
3 53 24 25
3 53 25 55
3 25 19 48
3 55 84 53
3 48 55 25
3 55 48 49
3 52 20 21
3 57 58 87
3 51 57 87
3 51 21 26
3 26 57 51
3 27 59 57
3 57 26 27
3 27 60 61
3 60 27 26
3 61 60 24
3 53 61 24
3 61 53 54
3 58 57 59
3 59 62 58
3 62 59 63
3 59 27 89
3 65 67 29
3 64 29 32
3 29 64 66
3 29 66 65
3 29 67 68
3 68 32 29
3 33 70 71
3 70 33 32
3 32 68 70
3 71 69 33
3 103 72 41
3 73 66 36
3 66 64 35
3 36 72 73
3 35 36 66
3 35 64 30
3 37 69 76
3 75 39 38
3 38 76 75
3 76 38 37
3 69 71 76
3 75 76 104
3 41 74 103
3 42 74 41
3 47 78 74
3 72 36 40
3 39 75 45
3 45 43 39
3 77 45 75
3 79 45 77
3 74 42 47
3 78 47 82
3 45 79 81
3 81 49 43
3 42 52 56
3 80 82 86
3 82 80 78
3 56 47 42
3 84 54 53
3 85 84 55
3 49 85 55
3 49 81 109
3 86 83 80
3 87 88 112
3 56 87 112
3 112 82 47
3 47 56 112
3 87 56 51
3 61 89 27
3 89 61 54
3 54 90 89
3 91 90 54
3 84 91 54
3 111 91 84
3 88 87 58
3 58 92 88
3 62 92 58
3 93 92 62
3 94 62 63
3 94 93 62
3 89 63 59
3 63 89 90
3 94 63 95
3 90 95 63
3 96 65 97
3 65 66 73
3 67 65 96
3 96 98 67
3 67 99 68
3 98 99 67
3 68 100 70
3 99 100 68
3 70 100 101
3 101 71 70
3 102 73 72
3 72 103 102
3 73 97 65
3 97 73 102
3 101 104 71
3 71 104 76
3 104 77 75
3 77 104 125
3 74 78 106
3 106 103 74
3 105 79 77
3 129 107 79
3 80 106 78
3 80 108 106
3 107 81 79
3 109 81 107
3 83 108 80
3 83 110 134
3 109 85 49
3 85 109 133
3 110 83 86
3 112 88 113
3 112 86 82
3 113 86 112
3 115 114 95
3 90 91 115
3 84 85 111
3 91 111 135
3 116 113 88
3 116 88 92
3 117 92 93
3 117 116 92
3 118 93 94
3 93 118 142
3 119 94 95
3 119 118 94
3 95 90 115
3 95 114 119
3 120 96 97
3 97 126 120
3 98 96 145
3 96 120 145
3 98 122 123
3 123 99 98
3 100 99 123
3 123 124 100
3 101 100 124
3 101 124 125
3 126 97 102
3 103 106 130
3 102 127 126
3 126 121 120
3 105 125 148
3 104 101 125
3 125 105 77
3 79 105 129
3 130 102 103
3 130 127 102
3 105 128 129
3 131 107 129
3 108 130 106
3 108 132 157
3 131 109 107
3 133 109 131
3 132 108 83
3 134 132 83
3 133 111 85
3 111 133 161
3 163 134 110
3 113 110 86
3 113 136 110
3 136 113 137
3 114 139 165
3 114 115 139
3 135 115 91
3 115 135 139
3 137 113 116
3 116 140 137
3 117 141 140
3 140 116 117
3 142 117 93
3 142 141 117
3 143 118 119
3 175 142 118
3 119 114 138
3 119 138 143
3 121 144 120
3 144 176 145
3 122 145 176
3 145 122 98
3 122 147 123
3 146 147 122
3 147 149 148
3 124 147 148
3 123 147 124
3 148 125 124
3 127 150 126
3 150 151 121
3 121 126 150
3 151 179 152
3 121 151 152
3 144 152 180
3 153 154 128
3 154 153 182
3 128 148 153
3 148 149 153
3 148 128 105
3 128 154 158
3 156 150 127
3 127 130 157
3 157 156 127
3 156 185 151
3 154 155 186
3 158 129 128
3 158 159 131
3 131 129 158
3 157 130 108
3 132 160 157
3 159 133 131
3 161 133 159
3 134 163 162
3 132 134 162
3 162 160 132
3 188 164 192
3 166 165 139
3 139 167 166
3 135 161 167
3 161 135 111
3 110 136 163
3 169 168 137
3 137 168 136
3 168 164 136
3 164 163 136
3 169 170 195
3 171 173 197
3 173 171 165
3 165 166 173
3 171 138 165
3 165 138 114
3 139 135 167
3 140 169 137
3 174 170 169
3 140 141 174
3 174 169 140
3 175 196 141
3 141 142 175
3 138 171 172
3 175 143 172
3 118 143 175
3 172 143 138
3 176 146 122
3 146 177 149
3 177 146 176
3 149 147 146
3 179 178 152
3 152 144 121
3 145 120 144
3 152 178 180
3 180 203 177
3 180 176 144
3 177 176 180
3 177 181 149
3 181 153 149
3 181 182 153
3 182 155 154
3 182 204 183
3 156 157 160
3 185 156 160
3 151 150 156
3 185 179 151
3 186 158 154
3 155 187 186
3 183 209 187
3 186 159 158
3 184 160 162
3 160 184 185
3 184 189 207
3 189 184 188
3 186 187 190
3 190 187 191
3 190 161 159
3 190 159 186
3 162 188 184
3 188 162 163
3 192 189 188
3 188 163 164
3 191 166 167
3 167 190 191
3 191 193 166
3 190 167 161
3 194 192 164
3 194 164 168
3 198 170 174
3 195 168 169
3 195 194 168
3 198 197 170
3 170 197 219
3 198 172 171
3 197 198 171
3 173 199 197
3 173 166 193
3 193 215 173
3 174 196 198
3 196 174 141
3 172 196 175
3 172 198 196
3 179 200 178
3 200 201 220
3 200 220 202
3 178 202 203
3 203 180 178
3 203 181 177
3 204 203 202
3 204 182 181
3 181 203 204
3 183 155 182
3 200 207 206
3 179 207 200
3 185 207 179
3 201 206 223
3 183 204 205
3 205 208 209
3 187 155 183
3 209 183 205
3 206 207 189
3 207 185 184
3 209 211 193
3 209 193 191
3 213 212 232
3 210 192 214
3 189 192 210
3 213 214 212
3 217 216 215
3 211 217 215
3 193 211 215
3 191 187 209
3 192 194 214
3 214 213 210
3 194 218 214
3 195 218 194
3 219 195 170
3 219 218 195
3 199 215 216
3 199 216 233
3 197 199 219
3 215 199 173
3 202 178 200
3 205 202 220
3 220 221 208
3 202 205 204
3 189 210 206
3 223 236 201
3 206 222 223
3 206 201 200
3 236 225 221
3 221 201 236
3 221 220 201
3 225 227 226
3 221 225 226
3 226 208 221
3 208 205 220
3 208 226 211
3 222 210 213
3 210 222 206
3 240 222 228
3 228 229 240
3 227 230 217
3 230 227 239
3 217 226 227
3 211 209 208
3 213 228 222
3 212 233 234
3 212 214 218
3 228 232 243
3 232 228 213
3 235 234 233
3 232 234 264
3 235 231 241
3 231 235 230
3 216 217 230
3 230 235 216
3 217 211 226
3 218 233 212
3 233 219 199
3 233 218 219
3 216 235 233
3 225 236 244
3 223 237 236
3 224 238 239
3 244 224 225
3 227 225 224
3 239 227 224
3 240 223 222
3 240 237 223
3 239 231 230
3 231 239 253
3 242 260 252
3 229 243 261
3 232 212 234
3 243 229 228
3 241 234 235
3 234 241 264
3 249 268 245
3 247 244 246
3 247 246 268
3 249 247 268
3 256 251 270
3 270 250 256
3 246 244 237
3 237 250 246
3 236 237 244
3 224 244 247
3 247 238 224
3 253 239 238
3 238 254 253
3 238 247 249
3 249 254 238
3 254 273 258
3 251 256 242
3 260 257 252
3 240 256 250
3 250 237 240
3 253 258 265
3 231 253 265
3 259 258 255
3 258 253 254
3 242 252 251
3 262 280 260
3 261 260 242
3 256 229 242
3 256 240 229
3 243 263 261
3 261 242 229
3 264 263 243
3 264 243 232
3 241 265 282
3 265 241 231
3 265 258 259
3 262 261 263
3 263 266 262
3 266 263 267
3 267 263 264
3 271 245 268
3 245 291 248
3 269 268 246
3 268 269 271
3 245 248 249
3 245 271 288
3 248 274 273
3 273 254 248
3 274 248 291
3 275 273 274
3 269 246 250
3 251 252 276
3 251 276 298
3 250 270 269
3 254 249 248
3 273 255 258
3 275 255 273
3 255 275 332
3 278 276 252
3 252 257 278
3 255 277 259
3 283 277 301
3 257 260 280
3 281 257 280
3 278 257 281
3 260 261 262
3 282 267 264
3 282 265 259
3 282 259 283
3 283 259 277
3 284 314 313
3 284 280 262
3 314 284 262
3 262 266 314
3 267 287 286
3 285 314 266
3 264 241 282
3 287 267 282
3 286 266 267
3 283 310 287
3 289 324 292
3 291 245 288
3 288 290 289
3 293 291 292
3 294 269 270
3 270 298 294
3 271 294 290
3 290 288 271
3 271 269 294
3 288 292 291
3 293 272 274
3 325 296 272
3 274 291 293
3 272 296 275
3 275 274 272
3 275 296 332
3 304 299 295
3 276 304 295
3 298 295 320
3 298 270 251
3 301 331 302
3 277 255 297
3 277 297 331
3 331 303 302
3 299 304 308
3 308 300 299
3 278 304 276
3 295 298 276
3 302 307 306
3 301 279 310
3 302 303 307
3 306 279 302
3 300 308 342
3 304 278 309
3 309 308 304
3 278 281 309
3 306 311 340
3 279 306 340
3 282 283 287
3 306 307 341
3 312 309 281
3 280 284 312
3 312 281 280
3 266 286 285
3 314 285 318
3 286 317 316
3 285 316 315
3 315 318 285
3 316 285 286
3 287 310 346
3 310 283 301
3 317 286 287
3 318 349 373
3 318 313 314
3 350 349 315
3 319 315 316
3 323 321 353
3 290 320 322
3 322 289 290
3 289 322 321
3 292 288 289
3 324 289 321
3 326 325 293
3 292 324 326
3 326 293 292
3 325 326 356
3 330 329 328
3 329 321 322
3 328 322 320
3 295 299 328
3 320 290 294
3 320 294 298
3 272 293 325
3 332 360 333
3 332 297 255
3 296 325 327
3 296 327 360
3 297 333 303
3 330 328 299
3 300 330 299
3 334 330 300
3 328 320 295
3 331 301 277
3 302 279 301
3 333 335 303
3 303 331 297
3 305 334 300
3 305 336 334
3 307 303 335
3 335 337 307
3 308 338 342
3 342 305 300
3 336 305 339
3 309 338 308
3 279 340 310
3 311 341 367
3 341 311 306
3 337 341 307
3 342 339 305
3 344 342 338
3 338 312 343
3 343 372 338
3 338 309 312
3 313 343 284
3 345 316 317
3 317 346 370
3 346 317 287
3 340 347 346
3 346 310 340
3 347 340 311
3 343 313 348
3 343 312 284
3 348 372 343
3 313 318 373
3 319 351 350
3 349 318 315
3 316 345 319
3 319 345 375
3 350 315 319
3 370 345 317
3 353 352 354
3 322 328 329
3 321 323 324
3 353 354 323
3 323 355 324
3 323 354 379
3 326 324 355
3 355 356 326
3 356 327 325
3 327 356 380
3 359 358 352
3 359 329 330
3 329 353 321
3 353 329 359
3 357 360 327
3 360 332 296
3 333 297 332
3 333 360 381
3 334 359 330
3 334 362 359
3 335 333 381
3 361 363 337
3 336 362 334
3 336 364 386
3 337 335 361
3 365 337 363
3 339 364 336
3 364 339 368
3 365 341 337
3 367 341 365
3 368 366 364
3 339 342 344
3 344 369 368
3 368 339 344
3 370 346 347
3 347 371 370
3 367 371 311
3 371 347 311
3 372 369 344
3 372 344 338
3 373 348 313
3 348 373 430
3 350 374 398
3 398 349 350
3 351 375 394
3 374 350 351
3 345 370 395
3 395 375 345
3 376 352 358
3 352 353 359
3 352 378 354
3 376 378 352
3 379 355 323
3 378 379 354
3 356 355 379
3 379 380 356
3 380 357 327
3 380 403 404
3 383 382 377
3 358 359 362
3 358 377 376
3 377 358 383
3 381 384 361
3 360 357 381
3 381 361 335
3 363 361 414
3 362 383 358
3 362 386 383
3 361 384 414
3 387 363 385
3 386 362 336
3 413 364 366
3 387 365 363
3 389 365 387
3 366 388 413
3 366 392 390
3 389 367 365
3 391 367 389
3 392 419 390
3 366 368 393
3 368 369 393
3 393 392 366
3 375 395 421
3 370 371 395
3 371 367 391
3 371 391 395
3 369 396 425
3 396 369 372
3 373 397 430
3 396 372 348
3 349 398 397
3 397 373 349
3 394 374 351
3 374 399 431
3 375 351 319
3 394 399 374
3 377 400 402
3 432 400 408
3 402 376 377
3 376 402 403
3 378 403 380
3 403 378 376
3 403 405 404
3 380 379 378
3 404 357 380
3 357 404 384
3 406 434 382
3 434 406 412
3 382 383 406
3 382 408 400
3 400 377 382
3 408 401 432
3 410 409 438
3 409 410 404
3 410 384 404
3 404 405 409
3 384 381 357
3 384 410 414
3 412 407 434
3 406 383 386
3 413 386 364
3 406 413 412
3 411 414 410
3 414 385 363
3 385 414 411
3 387 385 415
3 413 406 386
3 388 390 446
3 387 415 417
3 417 389 387
3 390 388 366
3 390 419 418
3 388 416 412
3 419 420 450
3 423 422 427
3 423 421 391
3 423 391 389
3 389 417 423
3 418 446 390
3 426 424 392
3 392 393 426
3 424 420 419
3 419 392 424
3 393 425 426
3 428 427 422
3 422 429 428
3 427 421 423
3 427 394 421
3 421 394 375
3 421 395 391
3 425 393 369
3 425 430 456
3 430 425 396
3 430 396 348
3 398 431 457
3 457 397 398
3 399 394 427
3 399 428 459
3 431 398 374
3 427 428 399
3 400 432 433
3 405 403 402
3 433 402 400
3 402 433 405
3 434 435 408
3 435 401 408
3 408 382 434
3 401 435 461
3 436 432 401
3 436 439 438
3 437 433 432
3 438 437 436
3 409 437 438
3 409 405 433
3 433 437 409
3 438 411 410
3 412 413 388
3 407 412 416
3 416 441 407
3 441 460 442
3 407 442 435
3 435 434 407
3 444 411 439
3 443 445 469
3 411 444 385
3 439 443 444
3 411 438 439
3 444 449 415
3 416 446 440
3 416 440 441
3 462 441 440
3 440 446 418
3 449 444 443
3 448 417 415
3 444 415 385
3 449 448 415
3 446 416 388
3 451 466 450
3 450 418 419
3 418 447 440
3 418 450 447
3 452 470 471
3 455 454 453
3 448 453 429
3 449 469 453
3 453 448 449
3 422 423 417
3 417 448 422
3 420 424 452
3 456 426 425
3 426 456 470
3 424 426 470
3 452 451 420
3 458 457 431
3 457 458 470
3 458 459 454
3 454 459 429
3 459 428 429
3 429 453 454
3 429 422 448
3 456 430 397
3 397 457 456
3 431 459 458
3 459 431 399
3 461 435 442
3 465 436 401
3 401 461 465
3 437 432 436
3 441 462 460
3 442 460 464
3 442 407 441
3 460 462 466
3 464 461 442
3 460 463 464
3 443 439 465
3 465 439 436
3 461 464 445
3 465 445 443
3 440 447 462
3 466 462 447
3 466 463 460
3 463 466 451
3 463 468 464
3 463 467 468
3 468 469 445
3 445 464 468
3 469 449 443
3 445 465 461
3 447 450 466
3 450 420 451
3 452 471 467
3 451 467 463
3 467 471 455
3 467 451 452
3 471 454 455
3 455 469 468
3 455 468 467
3 469 455 453
3 470 452 424
3 470 456 457
3 470 458 471
3 471 458 454
