ply
format ascii 1.0
comment half-edge mesh generated by tinyply 2.3
element vertex 20
property double x
property double y
property double z
property uint e
element face 32
property uint e
element edge 96
property uint v
property uint f
property uint n
property int t
end_header
0 0 -1 25 
-0.325244 0 -0.5 31 
0 -0.325244 -0.5 58 
0 0 -1 52 
-0.125 0 0 37 
0 -0.125 0 64 
-0.325244 0 0.5 43 
0 -0.325244 0.5 70 
0 0 1 46 
0 0 1 67 
0 0 -1 73 
0 0.325244 -0.5 79 
0 0.125 0 85 
0 0.325244 0.5 91 
0 0 1 94 
0.325244 0 -0.5 81 
0 0 -1 75 
0.125 0 0 87 
0.325244 0 0.5 93 
0 0 1 95 
2 
5 
8 
11 
14 
17 
20 
23 
26 
29 
32 
35 
38 
41 
44 
47 
50 
53 
56 
59 
62 
65 
68 
71 
74 
77 
80 
83 
86 
89 
92 
95 
1 0 1 0 
0 0 2 1 
2 0 0 2 
0 1 4 3 
3 1 5 4 
2 1 3 5 
4 2 7 6 
1 2 8 7 
5 2 6 8 
1 3 10 9 
2 3 11 10 
5 3 9 11 
6 4 13 12 
4 4 14 13 
7 4 12 14 
4 5 16 15 
5 5 17 16 
7 5 15 17 
8 6 19 18 
6 6 20 19 
9 6 18 20 
6 7 22 21 
7 7 23 22 
9 7 21 23 
0 8 25 24 
1 8 26 25 
10 8 24 26 
1 9 28 27 
11 9 29 28 
10 9 27 29 
1 10 31 30 
4 10 32 31 
11 10 30 32 
4 11 34 33 
12 11 35 34 
11 11 33 35 
4 12 37 36 
6 12 38 37 
12 12 36 38 
6 13 40 39 
13 13 41 40 
12 13 39 41 
6 14 43 42 
8 14 44 43 
13 14 42 44 
8 15 46 45 
14 15 47 46 
13 15 45 47 
2 16 49 48 
3 16 50 49 
15 16 48 50 
3 17 52 51 
16 17 53 52 
15 17 51 53 
5 18 55 54 
2 18 56 55 
17 18 54 56 
2 19 58 57 
15 19 59 58 
17 19 57 59 
7 20 61 60 
5 20 62 61 
18 20 60 62 
5 21 64 63 
17 21 65 64 
18 21 63 65 
9 22 67 66 
7 22 68 67 
19 22 66 68 
7 23 70 69 
18 23 71 70 
19 23 69 71 
10 24 73 72 
11 24 74 73 
16 24 72 74 
11 25 76 75 
15 25 77 76 
16 25 75 77 
11 26 79 78 
12 26 80 79 
15 26 78 80 
12 27 82 81 
17 27 83 82 
15 27 81 83 
12 28 85 84 
13 28 86 85 
17 28 84 86 
13 29 88 87 
18 29 89 88 
17 29 87 89 
13 30 91 90 
14 30 92 91 
18 30 90 92 
14 31 94 93 
19 31 95 94 
18 31 93 95 
