ply
format ascii 1.0
element vertex 7
property double x
property double y
property double z
element face 6
property list uchar int vertex_indices
end_header
0 0 0.100000000000000006
0.883792622918527893 0 0.100000000000000006
0.48111040660771931 0.83330766829469094 0.0500000000000000167
-0.39740396490602925 0.688323858346562067 -0.049999999999999982
-0.847898106211467883 1.03837570177497669e-16 -0.100000000000000006
-0.476656657540984074 -0.825593548626942231 -0.0500000000000000444
0.475165572881133758 -0.823010914237695679 0.0500000000000000167
3 0 1 2
3 0 2 3
3 0 3 4
3 0 4 5
3 0 5 6
3 0 6 1
