ply
format ascii 1.0
element vertex 30
property double x
property double y
property double z
element face 56
property list uchar int vertex_indices
end_header
-0.573333323001861572 0 0
-0.5 -0.219999969005584717 0
-0.5 0 -0.495000004768371582
-0.5 0 0.495000004768371582
-0.5 0.220000028610229492 0
-0.219999969005584717 -0.5 0
0 -0.573333323001861572 0
0 -0.5 -0.495000004768371582
0 -0.5 0.495000004768371582
-0.497777760028839111 0 -0.5
0 -0.497777760028839111 -0.5
0 0 -0.873333334922790527
-0.497777760028839111 0 0.5
0 -0.497777760028839111 0.5
0 0 0.873333334922790527
0 0.497777819633483887 -0.5
-0.219999969005584717 0.5 0
0 0.5 -0.495000004768371582
0 0.5 0.495000004768371582
0 0.497777819633483887 0.5
0 0.573333382606506348 0
0.220000028610229492 -0.5 0
0.497777819633483887 0 -0.5
0.5 0 -0.495000004768371582
0.5 -0.219999969005584717 0
0.497777819633483887 0 0.5
0.5 0 0.495000004768371582
0.5 0.220000028610229492 0
0.220000028610229492 0.5 0
0.573333382606506348 0 0
3 2 1 0
3 3 0 1
3 4 2 0
3 4 0 3
3 7 6 5
3 8 5 6
3 11 10 9
3 9 10 7
3 9 7 5
3 2 9 5
3 1 2 5
3 13 12 3
3 13 3 1
3 8 13 1
3 5 8 1
3 14 12 13
3 15 11 9
3 17 15 16
3 16 15 4
3 15 9 4
3 9 2 4
3 18 16 4
3 18 4 3
3 19 18 3
3 12 19 3
3 19 12 14
3 20 17 16
3 20 16 18
3 7 21 6
3 21 8 6
3 11 22 10
3 22 23 10
3 10 23 7
3 23 24 7
3 24 21 7
3 24 26 25
3 24 25 13
3 21 24 13
3 8 21 13
3 25 14 13
3 15 22 11
3 28 27 17
3 17 27 15
3 27 23 15
3 23 22 15
3 27 28 26
3 26 28 25
3 28 18 25
3 18 19 25
3 25 19 14
3 20 28 17
3 28 20 18
3 23 29 24
3 29 26 24
3 27 29 23
3 29 27 26
