ply
format ascii 1.0
element vertex 392
property double x
property double y
property double z
element face 788
property list uchar int vertex_indices
end_header
-0.680127981370284074 -0.134988830570066387 -0.102351148823917146
-0.644154930951118754 -0.191846722027465777 -0.128676117536574847
-0.645935073895528511 -0.138612917783765444 -0.150423931105075459
-0.690286994238272889 -0.135846047922225321 -0.01629352891606866
-0.660325010245728095 -0.201266268373269386 -0.0632817048602152682
-0.687354968290503132 -0.132023265184672389 0.074261027367419602
-0.66604136390961477 -0.200218774144742206 0.028360241316252463
-0.673286185183678554 -0.125634582749710233 0.13508573425233586
-0.659402464141700229 -0.187082519712527484 0.110427986507528997
-0.633378623053886147 -0.165250485877934616 0.153356649831290465
-0.684329788039166775 -0.0489078222336277874 -0.117669484427106036
-0.644072873574706328 -0.0533753428260078724 -0.151604951393870091
-0.69994053778102161 -0.0477244841686219196 -0.0387673983285445889
-0.698815131570553194 -0.0470954544741686021 0.0527857177691664278
-0.682190270929566189 -0.0469201473172411107 0.125547419048260389
-0.646083260493406919 -0.0659401036984975236 0.151864352194420016
-0.681967571700525799 0.0477626459197252676 -0.125054462862737858
-0.643796275105708804 0.0691279230248598719 -0.153520113018301901
-0.698693847766357568 0.0477536541462862257 -0.0510679892651773049
-0.699828857157060447 0.0482964592791248828 0.0403671468620811214
-0.684210644802040413 0.0491848097195925968 0.11785100867286899
-0.643311353960316135 0.0520714314556840197 0.14761472242340487
-0.672446064556127099 0.126775378281283324 -0.134223124076434774
-0.632232245598051135 0.168368060689824017 -0.153443781269686746
-0.686807655725144905 0.132301312427487078 -0.0728988698179052486
-0.689904792473072459 0.13581718874785681 0.0172660156785303907
-0.679883791386143521 0.13451321282554432 0.102035737195250664
-0.645870959449497684 0.137267798637468269 0.148238085213510534
-0.65866437606132866 0.188007101660598891 -0.109043988741433007
-0.665638179097709171 0.200461760038517844 -0.0261462182145795231
-0.66059568945762448 0.200554992485528494 0.0651887382618733385
-0.646007751215246784 0.189988918069165125 0.128674482377655941
-0.603668954067329677 -0.240779259799026479 -0.10186861842086882
-0.527007354192072675 -0.258870793494780982 -0.116422181272989991
-0.573132966800286026 -0.209471461864988689 -0.150983102588167606
-0.620579960771374228 -0.247288528947907621 -0.0165481208797441347
-0.550916867227143059 -0.273192603737311523 -0.0375170414929091728
-0.623565477397826529 -0.240690649664342143 0.0723870617305087116
-0.562629405111362724 -0.270229651010839289 0.0521821738707231308
-0.613291311823422225 -0.224722896307289699 0.132745916266903879
-0.573738206900403558 -0.254582550806880914 0.117485210219919478
-0.552980094203362249 -0.220283555735453912 0.154070817329645976
-0.582890050930015891 -0.146567851998711723 -0.157053065949047943
-0.575007467655993865 -0.141969906568698429 0.153363741088373556
-0.574763115220851439 -0.10575771645721177 -0.134129892013605811
-0.608011121030696655 -0.0182132419241280846 -0.115319416065300953
-0.545782017279082932 -0.0776793817881067244 -0.0543382622222982892
-0.583464195952733244 -0.023228616287300486 -0.0254491530651377654
-0.564618350359910481 -0.0652981284463597794 0.0474867982008838688
-0.590709445293586821 -0.0128827184647925721 0.056470918815708801
-0.541701044891933381 -0.112116092811337789 0.116875843721614983
-0.601196454446968009 -0.0631804852810129436 0.119864533793173425
-0.594929954736740707 0.0781247100735744104 -0.133812888509192596
-0.5857310533524277 0.039716562240892414 -0.0700277142812893577
-0.581757914015165745 0.026729840543427752 0.00120012906948896913
-0.615165858551349642 0.016855650778729532 0.118375010372776188
-0.552666882093334588 0.0993892827041675669 -0.0967705955263916673
-0.565099504245012207 0.155343173038970245 -0.158354522839479206
-0.565076220772696924 0.0660994613365676609 -0.031234154484995974
-0.57588297975455327 0.0522900036807550997 0.0444875248601242085
-0.574781097829710763 0.0926744280061784359 0.10262178477007905
-0.566878156384996168 0.143106885310970822 0.143778883910706867
-0.611363375330884251 0.227186664079616268 -0.129685673345249913
-0.55649576432325476 0.226452133199793487 -0.151076567694855057
-0.62085103550775067 0.241970648819617107 -0.065077492848162305
-0.619903613166112422 0.246852198680436674 0.0263305862609088427
-0.60610483351021327 0.237142817922779636 0.108760814561656094
-0.58767953650151139 0.203887007627197109 0.149756387278998815
-0.554723385524275137 0.261236657868639977 -0.102164560096364168
-0.55594905059468358 0.273214071099300626 -0.0170460936733975998
-0.550784210560734122 0.268082812830116701 0.0732912147974970341
-0.535235940501880281 0.241897673280094538 0.137618451080738419
-0.432088324336062923 -0.262765607677353796 -0.118195613906199481
-0.46433454221086623 -0.218735610102148564 -0.153799566568699975
-0.461893347853823966 -0.280649389745279199 -0.0430935457643317268
-0.477106936832213613 -0.280456611358683938 0.0463059788001902728
-0.500948815545757542 -0.262610572258162089 0.120043259441003136
-0.447677530622549003 -0.229363006916091045 0.15718679136988975
-0.511749972387966601 -0.176040841385082358 -0.151853985378359285
-0.539743559712240084 -0.147767786123608247 -0.147476531179171644
-0.506787852492804447 -0.13297582954216125 -0.119907957161746639
-0.506274677031288811 -0.147733481588336157 0.147247464966155789
-0.459264432133343781 -0.119658981758367491 0.122083047773150127
-0.48409974428218272 -0.180841188451622725 0.159869359131469602
-0.454637371503459731 -0.0950620443810226284 -0.0580171791158957326
-0.482826087559564021 -0.0861205937360810941 0.0455430729502396409
-0.537414923602895445 0.132504382281889294 -0.13957326613726917
-0.48677218040099135 0.126772506013620029 -0.103889556654702273
-0.522026065513988557 0.0977748231215621738 -0.0103975384444712007
-0.434917551213633069 0.090392448176051049 0.0687071904256336824
-0.5044145281343001 0.118772378481958693 0.0807157321145911266
-0.472187232681303526 0.140097330653416285 0.127927848163886998
-0.473463391211386364 0.161342653915691941 -0.149157900113795372
-0.45507616891392344 0.217806521498057459 -0.15740047048508013
-0.504010614444351579 0.189539277625323854 0.152545554115778553
-0.446703594739309096 0.215050012224195952 0.158305383245405717
-0.467572760185126113 0.262495137689468416 -0.117645194348929838
-0.468876458169270649 0.280696558117702888 -0.039580313140564545
-0.468444823162924739 0.279832424048736317 0.0508654370142448894
-0.463164515984421654 0.259312316593467207 0.125036127072030656
-0.341671304103247309 -0.257393683549112628 -0.113511701421172034
-0.368231415937011586 -0.223178399133672573 -0.153710993013120217
-0.36760642078360134 -0.27465544649407253 -0.0441626067986997523
-0.384715035484026024 -0.276372122497457851 0.0430936412781810496
-0.407906342757249019 -0.262065985445597283 0.118519198443487503
-0.349952595049673132 -0.224377457749086962 0.154374819002196295
-0.445337786920805279 -0.152686965748355524 -0.134637383968771174
-0.375457702979186958 -0.158266344442401119 -0.154593886818012866
-0.439453413431193873 -0.149178589477246715 0.151716800020135018
-0.375047630102667395 -0.165125012175441205 0.163054131392381368
-0.387603540801317981 -0.0984486001039395486 -0.112860651002145651
-0.399957006204535004 -0.0489254527267427783 -0.0453824558204221767
-0.362493985608779268 -0.0231899092716070163 -0.0866695510620276582
-0.413396990174694556 -0.0406025527767304648 0.0257707782421758881
-0.398117216909303351 -0.0599125836351976707 0.0940624819484410235
-0.37404439807656642 -0.105378542884247001 0.143465485056092329
-0.441076965947292343 0.0912793496307596069 -0.0280461539728129421
-0.376928231302219363 0.0571230365931232331 -0.0857179022127396301
-0.397873058854087525 0.0254914535032606734 -0.0012065144949045736
-0.380558182070251716 0.0282584894911996273 0.086908783464917011
-0.416566756750703759 0.122538999136761972 -0.120983506693336268
-0.349326890807594548 0.0904217277374957246 -0.140080661327344147
-0.366540499309047585 0.152744129613862634 -0.15906670636730974
-0.41941335613737718 0.150374745750768479 0.151370780980671665
-0.402952318640121709 0.102946382028940409 0.12293459736336021
-0.352824997181217515 0.147620465407430956 0.164570357448896892
-0.339327602877715073 0.21828904286949577 -0.154485065656204734
-0.368833671990147438 0.221052379480690148 0.156613438929704696
-0.37387479097420695 0.256096556977772616 -0.122720646305489484
-0.375619062816474558 0.274371127653287472 -0.0509740481376181748
-0.375605870076762494 0.276083010586581523 0.0360734769344561723
-0.376262640804765736 0.260294830747849426 0.112919449228646968
-0.287709526689834016 -0.218471777033578257 -0.144926207117467731
-0.274079277646721631 -0.247480743214937515 -0.101956545123378456
-0.285382555482578182 -0.262155829725582545 -0.0458719046090592109
-0.298560670960948127 -0.264352397921220394 0.0353895942054910095
-0.323642230547777965 -0.253288654401356894 0.110772178495341059
-0.243965503361135622 -0.23827441602817806 0.0923995749234028385
-0.218682458919480599 -0.21563276636611034 -0.114671368608865343
-0.294412097796628913 -0.151134425113673115 -0.163772194890639128
-0.272747257941222232 -0.218538747310840109 0.141546280578439848
-0.26823280779898151 -0.169689746298817529 0.163683985925898473
-0.322135506616746004 -0.0764150865682863278 -0.143300819619456066
-0.255421293754635237 -0.0575215472211771314 -0.163430944342079471
-0.327108664914346592 -0.0214617034421975689 0.137693370009775301
-0.272176895958847476 -0.0841818911370105227 0.16433495336266063
-0.315270159633911307 0.0146813819873586916 -0.135802175667457697
-0.263915123444918853 0.0535594297297750654 -0.165109519867400856
-0.345532596139089376 0.0741498273192955082 0.143588733015684311
-0.265388098587656551 0.0398402279330882583 0.166760606584135274
-0.241125597560164828 0.148439243880039012 -0.164463269603503465
-0.268279106826375902 0.144898406657583162 0.171282874390561002
-0.246986837508092499 0.215717555050419396 -0.128265521673165683
-0.30511723402303792 0.247220820719576378 -0.122505078621125529
-0.248921328713717971 0.244963340550101299 -0.0848540896108941206
-0.289263918018498656 0.218495020219858616 0.146783677364648202
-0.29317268574290023 0.252298740509080077 0.092452869089611589
-0.229520746593808805 0.21478908901957755 0.128682883464816211
-0.29745322306445654 0.261827081535850437 -0.0659358056338884557
-0.290991630015716651 0.264053854529174126 0.0156692799495516469
-0.230429218608929037 -0.244900649379490243 -0.057915863413436651
-0.225540430960942173 -0.247110536999368441 0.0150932897551744553
-0.125621163395877311 -0.183314727894640483 -0.118439874360580608
-0.199225066851393823 -0.147985971609293054 -0.159422240099623524
-0.15373608489861873 -0.219243877290242056 -0.03396987969012049
-0.158064091037569465 -0.216093155424617878 0.0662973536913732259
-0.192805954520814921 -0.193068942920932712 0.134657348636441854
-0.16877890453522898 -0.136278326997100824 0.163625590917978792
-0.165578551447313843 -0.0481274789566092653 -0.175021823004460036
-0.161083133728044114 -0.0514036840914711621 0.175830897220240978
-0.151840207844064656 0.0491985823629679242 -0.178953264970235809
-0.160952285907936171 0.0494328392250523371 0.179737740770062771
-0.117009183896701022 0.127343779628365933 -0.165705166453371189
-0.171774551642548789 0.147595398714037984 0.165452550813060262
-0.148721212423453625 0.183054425561582162 -0.123634004339791007
-0.160988045646711736 0.219304012808271664 -0.0480723800872912416
-0.225216443421279333 0.247069766001501739 -0.0161945869479487095
-0.144889215641302499 0.215814090489449967 0.0514153707849468941
-0.221256396334176431 0.237360146176175568 0.0678131554393076735
-0.147690476548458655 0.189471439630330363 0.12559290383612226
-0.0204732790629763399 -0.170939434398233975 -0.121346729084289062
-0.0857534144993611497 -0.127349686879751428 -0.16134470114035146
-0.0454355581111266435 -0.197566411758320709 -0.0432428980232669735
-0.0609105593139711021 -0.198732629662352278 0.0492108762881360504
-0.0943676323378617454 -0.175161286039291736 0.125590950291464831
-0.0639369842522739262 -0.124888958897400162 0.162592755965503377
-0.059732456446379166 -0.0455691016459375126 -0.180171321203514118
-0.05526144287957694 -0.0453880247233341902 0.180312558177646659
-0.0425214059841803188 0.0451728608518211158 -0.181567977442753797
-0.0549208141192905064 0.0487702141506674985 0.181515300474458963
-0.00856648523247692875 0.122738608106575581 -0.16368550507841248
-0.0528705183292228764 0.128634531671020014 0.16364003698811258
-0.0413870744564567086 0.17019467061606719 -0.121780353078175044
-0.0509913451198982653 0.197354965172869434 -0.0451212572818458987
-0.0510415017001510998 0.198581569989300821 0.0453669853717410532
-0.049540234745964043 0.174085293040952938 0.12179406163312409
0.0839381861180561045 -0.175034115669891077 -0.126627715242072253
0.0213521974767215579 -0.124229198308739727 -0.163679851445802799
0.058059449425097609 -0.198941024495076724 -0.0508157960518427418
0.0438910515571081239 -0.198187981170657473 0.0410680939703950559
0.010722738734131718 -0.171331166706916782 0.120174892546297235
0.0429564939049271038 -0.126289223086221786 0.16237166805264247
0.0500734651289650445 -0.0484526894952274009 -0.181539088041262231
0.0510234302585987412 -0.0466384903950991248 0.181489548742524598
0.0686651625284061679 0.0415969497108415742 -0.179879498142496042
0.0546481252078129115 0.04583459982199415 0.179938509516878675
0.0976173524189972858 0.125182162981159639 -0.162674062709325773
0.0556597897732096017 0.124880395694266524 0.161855785597820656
0.0620679420616635572 0.173199327446664136 -0.121667316343726531
0.0539962010900911851 0.198589165198074569 -0.0443857383839609404
0.0536975988063461904 0.197749341818679869 0.0459858298180185615
0.0538934185535651228 0.171685182520732033 0.121233624531643575
0.185476824723055878 -0.192485954036629658 -0.135984726972396941
0.13112103685383425 -0.132819874084399436 -0.167182298814172681
0.155119638055343956 -0.216389740310911627 -0.0681971556175074017
0.141387285724257267 -0.21896111132491039 0.0204002280795399227
0.128391970930233662 -0.188230279822361207 0.113533687396784211
0.150582989313472915 -0.134797501758580046 0.165878030728492054
0.182110286547021549 -0.0664792071702094561 -0.17770436679571594
0.159128074783477513 -0.0500799267265638476 0.178942007566246009
0.189020460157198367 0.03759853121060662 -0.172263903973545518
0.176859327722521442 0.050144390503052437 0.172388613443431427
0.197186942777216961 0.139726618891595433 -0.163365062961946667
0.163111278503775159 0.137198785844177662 0.16064875816556981
0.158353159411260852 0.187207582338373701 -0.125810175942156072
0.147342536102475719 0.215655374771292541 -0.0505839284109873139
0.162808319272271074 0.219822543561308592 0.0487498455521025373
0.158130884500134433 0.18675478335721199 0.122675989991511247
0.221953062624916153 -0.246242173621055438 -0.0156763323239613138
0.298526851855692055 -0.264375280120785872 -0.0347154645292892319
0.243092748536732517 -0.238106322488968181 -0.0927808365685411501
0.216483403941642505 -0.235697615275913874 0.0692385574288115618
0.284950314688776074 -0.260896205805876691 0.0487173606856637006
0.277711004698583674 -0.246069100997242135 0.107253849989138728
0.271130703576732579 -0.217400004804812391 -0.142563183649017156
0.246039725064766873 -0.163905869319347974 -0.166845985757465093
0.23090201769303409 -0.204907481749075554 0.136040123565334292
0.264629516657979402 -0.152281118013766703 0.16695440877854878
0.290417750094232541 -0.0686129365257595741 -0.162377027747574065
0.259380817951786857 -0.0516167997399940223 0.166671657298925163
0.268434434515548048 0.0845547458828378035 -0.163596995922999339
0.285910222597491492 0.105074951657225787 0.159086072408881285
0.287661146733138584 0.172879225362305766 -0.163486263275438221
0.262746709160950609 0.170979868058872525 0.159667693839448899
0.245126194190413371 0.209034665863083946 -0.134773888564564154
0.223996360940480504 0.236725960388431411 -0.0685692392507303017
0.298558992224504105 0.253412819695666702 -0.0929863462574449795
0.225637159608782722 0.247136368699570952 0.0162758831793532177
0.250483397526347074 0.24536756935509646 0.0852122429550788568
0.252679670533546397 0.218595275943887501 0.127488630249253582
0.291798855750575459 0.264260235163537249 -0.0158204149294609436
0.298651983393675158 0.26224454694331667 0.0666303296401166839
0.325070654264229986 -0.252807990607954336 -0.11094332993389186
0.412514287189856665 -0.262017082460448303 -0.118242937557442682
0.35810021324005703 -0.217041552505069207 -0.155444899980027307
0.386561564390875356 -0.276612348516939721 -0.0417987244497074334
0.370071526636703008 -0.274559863960677775 0.0456707555782080166
0.304775867874781115 -0.227123544770194113 0.144564929580373536
0.346799923806139943 -0.257011088214192385 0.11435502644816542
0.380052438922707791 -0.216581406792028169 0.154713226797609599
0.325649204883459331 -0.142444590253718695 -0.16696813824303075
0.351694309200799138 -0.130469678062796968 0.157847954597533952
0.381241315170207429 -0.0851939204118994098 -0.128629965983664968
0.299477977352417879 -0.00888007234007949335 -0.147208901339695136
0.384022003271892454 -0.0175021853324880232 -0.0910122495256631553
0.320132282964010251 -0.047203235353497415 0.147094831639738965
0.39791671188099631 -0.0564828189300141809 0.0974466817647920286
0.36667463649125831 -0.079796542860399014 0.134221256976802844
0.336158575288369288 0.0602359037619108056 -0.13928399665708302
0.40308958975990733 0.0717262923156485599 -0.107855593598487495
0.290979057210663861 0.0288355402749313552 0.14979349972675482
0.357216945682089004 0.00236827106997225534 0.113270792940340301
0.386566017572379739 0.118097630942932769 -0.143499805958564292
0.346781459333395548 0.140639258197119726 -0.159972246761022951
0.367384078906254519 0.0775304737833981961 0.119988013994401121
0.354823225613053572 0.162832217499273263 0.16077156476003443
0.317025126540048663 0.232146835112673311 -0.141882947702445916
0.38593161346720295 0.219374086406917218 -0.155534311924427654
0.308944142336633254 0.24786032640791833 0.122838614939189905
0.355522842331007061 0.218959164472495832 0.154248435481747187
0.382966343083763705 0.26193693525337125 -0.111980665108648889
0.377536847148508048 0.276607410874267157 -0.0349115605890266759
0.376981419861146916 0.274797823463469759 0.0523153418423389638
0.377320775863047242 0.257532611408528289 0.122935929059027643
0.506205452388577504 -0.263115140464672492 -0.119413625298979462
0.46774110675874675 -0.229130463139775087 -0.154563955582507073
0.479709983564916786 -0.280738538033182661 -0.0448178120155235463
0.464868958008826105 -0.280558118098937492 0.0444518608563375037
0.439317177443074469 -0.261352323820049248 0.11833006544172768
0.497461792951910786 -0.217815123396347843 0.154131748668188406
0.433418405499069292 -0.176980801400005189 -0.155924321464186749
0.389788555932979341 -0.129385467628320067 -0.151804289198678388
0.475285967412133137 -0.127386150192539738 -0.122206523827042904
0.406865737991369103 -0.122550312812992279 0.1363737493016286
0.448725750707936966 -0.116700175143742202 0.11230672920627173
0.439844809488231125 -0.169833961867245087 0.149639533381353745
0.462407078223141532 -0.0779717614483666221 -0.0614483941397520744
0.444160849032139426 -0.0481317776954069271 -0.0111866309388386088
0.487980542865921796 -0.0937055748573393521 0.0745639593264896955
0.426606432235479616 -0.0437156063113856991 0.0467079075827333545
0.425457913219235984 0.0302522061941586096 -0.0382400837790514356
0.410794179023791339 0.0334478478457830367 0.0537760593057961672
0.425852866681641851 0.170345081941887522 -0.155828489710177542
0.443555428208506741 0.133018632374579976 -0.135975826233764946
0.480782667880020997 0.0769582872936835638 -0.0159327268612034327
0.453597326126756906 0.0950808333358021257 0.0739697594432707772
0.40465547705942323 0.131986999463901356 0.137450565437517019
0.490624822788737758 0.134469557700344494 0.118048844900651179
0.499273485899141223 0.159679541469409714 -0.14948060075147776
0.497093108998842625 0.218473081714340739 -0.158683561765003783
0.439465596708017325 0.180251268892271388 0.152997690688270849
0.459069514110198362 0.229156242975356639 0.154534035403994935
0.473801120379503171 0.261187456264312667 -0.12396899435929834
0.47102662533079126 0.280461652581401599 -0.0493149152685664199
0.470028008561832744 0.280774238906736195 0.0409773992146169677
0.468927592127454829 0.262872976503798761 0.117786508572163412
0.576911917973722765 -0.254647805879552103 -0.116580262262914014
0.563881258852459988 -0.217797319157674668 -0.152490130862360684
0.564642191777561808 -0.270313303857747045 -0.0504952904755467322
0.552864822032670067 -0.273102171686243511 0.0389457233491477192
0.533931236041615631 -0.258540289873711082 0.116406053886191838
0.589000355675589726 -0.214480756703693126 0.150594699936016735
0.52111751078421098 -0.171341906637673874 -0.150710066228017664
0.595327255433705238 -0.134551708468442749 -0.152198176066062063
0.509343671442610058 -0.150758492584793846 0.136924063327563128
0.580674555737293874 -0.155551810284403513 0.156220191358187932
0.561081504226410566 -0.107112636518290047 -0.116917378460680121
0.542646466595364196 -0.0761374031088764558 -0.0462063827856408205
0.536903374707427439 -0.0678192313737492336 0.0386202587530872291
0.568855595210110754 -0.101831433551817382 0.123720191847181818
0.488252500945903334 0.105100386614693189 -0.103676389498186222
0.569914789723996895 0.108069407913756993 -0.136582539413258541
0.577644975056580856 0.158437588731425771 -0.160358722971801676
0.554963306572128001 0.0747306179979913415 -0.0690359756409089503
0.538519200093738326 0.0803941137337046696 0.0345220223987802236
0.522342226717010805 0.17281268234933761 0.149809199771290258
0.562196772597549521 0.108821778314543774 0.114615055111380315
0.594726370416357675 0.135150590438697898 0.15147622062880442
0.59005347736542979 0.214376783262218762 -0.154233733416137747
0.557004217678303215 0.218480526988062196 0.150639058571359924
0.549403619907146035 0.252538325164711197 -0.134120038116175233
0.553827949423125632 0.269829776166440771 -0.0725661603990746668
0.556727114684088531 0.273176800988400081 0.0172530421886287755
0.554805229536898814 0.259867409566502727 0.101634172916139548
0.616492501212305033 -0.22343695717683032 -0.131188439194608514
0.624922216055457613 -0.240261630711164381 -0.0701317114101112637
0.621171962275097966 -0.247476155945872994 0.0185863889532687718
0.606281534844564041 -0.241151078530114804 0.102392708981699582
0.661403152385188431 -0.184913002281909628 -0.102901812708976914
0.638300383817077321 -0.160939986269517887 -0.149819081643794871
0.666149128414698422 -0.200791533508671127 -0.0183798215760381488
0.659770468586173942 -0.204173525497433672 0.0704067296723359104
0.64583506065926044 -0.195669295279667671 0.131257487872140921
0.646990563000929941 -0.147352598043079042 0.152303904240949167
0.608002841677104278 -0.0477694704966926745 -0.119160094370152306
0.649665312541118922 -0.0562164727423430308 -0.150010916398595456
0.582085875193059432 -0.0353905254729672547 -0.0445669375133388376
0.583760345720461093 -0.0251060599663048521 0.0435178428109544643
0.610979984483532412 -0.0299995273722209257 0.118462705630541509
0.644115239759577296 -0.0630942989135692273 0.150300108509353825
0.613338286984447922 0.0324311553620031806 -0.124497153884233477
0.644027453349798273 0.0646462335371531527 -0.152598037304594841
0.585425735552857707 0.0271355896485999948 -0.0494149824737863952
0.58166610513407635 0.036720078056408624 0.0417831774241853859
0.607323221761842391 0.0487543170137065274 0.117094663506223537
0.649020707109292716 0.0568232396680896298 0.148852002681533424
0.646528122862491617 0.14814072739341963 -0.153205411439731154
0.636749643105475327 0.161441978607176295 0.149263350643275644
0.645967814072703206 0.196150817326180671 -0.132588414389702536
0.608031463688813778 0.240340788851762632 -0.109640941105898171
0.659847825316815517 0.204707390734284567 -0.0717442161060438954
0.620214287324259317 0.247429160267714249 -0.0276732129159493537
0.665572774183967431 0.201214796229658599 0.0171065860095366007
0.62062227444162732 0.241267427844485932 0.0633285923531541617
0.659767510263203349 0.185241961062881849 0.101561456020254848
0.611251676614185668 0.224164614861540712 0.127414538053790993
0.67926150804769847 -0.109085200857470074 -0.115960837171327685
0.689860431610763492 -0.130635858505135982 -0.0377434555451979029
0.686884163363384981 -0.142785714161572624 0.0518274847811418804
0.673869448808994687 -0.156079734657484037 0.116869076809684766
0.684403163541371318 -0.0100454256580859835 -0.118760280228034934
0.699698012466561381 -0.0400164487017485651 -0.0431694897461863056
0.698506085405408594 -0.055952303075403817 0.046449915340028132
0.681524852922177571 -0.0863510726275385915 0.119305719399467866
0.681734351043466025 0.0873413925184867157 -0.119388658739256553
0.698476824826753551 0.0575229102041322632 -0.04529766714670376
0.699486659550988987 0.0414560591512762588 0.0442773492231581106
0.683960459249761343 0.010652729065944673 0.118541202642621607
0.673782291705386727 0.156902127552344645 -0.11678053070939759
0.686517410183782539 0.143726794666751034 -0.0511344375120198827
0.689237744571127076 0.131274546064620162 0.0380978591304631381
0.678404097032778819 0.109004470052094932 0.115403498912547489
3 2 1 0
3 4 3 0
3 4 0 1
3 6 5 3
3 6 3 4
3 8 7 5
3 8 5 6
3 9 7 8
3 2 0 10
3 2 10 11
3 12 0 3
3 10 0 12
3 13 3 5
3 12 3 13
3 14 5 7
3 13 5 14
3 7 9 15
3 7 15 14
3 11 10 16
3 11 16 17
3 18 10 12
3 16 10 18
3 19 12 13
3 18 12 19
3 20 13 14
3 19 13 20
3 14 15 21
3 14 21 20
3 17 16 22
3 17 22 23
3 24 16 18
3 22 16 24
3 25 18 19
3 24 18 25
3 26 19 20
3 25 19 26
3 20 21 27
3 20 27 26
3 28 23 22
3 28 22 24
3 28 24 29
3 29 24 25
3 29 25 30
3 30 25 26
3 30 26 31
3 31 26 27
3 34 33 32
3 36 35 32
3 36 32 33
3 38 37 35
3 38 35 36
3 40 39 37
3 40 37 38
3 41 39 40
3 34 32 1
3 2 34 1
3 42 34 2
3 1 32 4
3 4 32 35
3 4 35 6
3 6 35 37
3 6 37 8
3 8 37 39
3 9 8 39
3 41 9 39
3 43 9 41
3 11 45 44
3 42 11 44
3 2 11 42
3 47 46 45
3 45 46 44
3 49 48 47
3 47 48 46
3 51 50 48
3 48 49 51
3 43 50 51
3 15 43 51
3 9 43 15
3 17 52 45
3 17 45 11
3 45 53 47
3 45 52 53
3 47 54 49
3 47 53 54
3 49 55 51
3 49 54 59
3 55 21 15
3 55 15 51
3 52 57 86
3 17 57 52
3 23 57 17
3 52 56 53
3 53 56 58
3 53 58 54
3 54 58 59
3 59 55 49
3 55 59 60
3 21 55 60
3 61 21 60
3 27 21 61
3 23 28 62
3 63 23 62
3 57 23 63
3 29 64 28
3 28 64 62
3 30 65 29
3 29 65 64
3 31 66 30
3 30 66 65
3 67 66 31
3 27 67 31
3 61 67 27
3 68 63 62
3 68 62 64
3 68 64 69
3 69 64 65
3 69 65 70
3 70 65 66
3 70 66 71
3 71 66 67
3 73 72 33
3 73 33 34
3 33 74 36
3 72 74 33
3 36 75 38
3 74 75 36
3 38 76 40
3 75 76 38
3 41 40 76
3 41 76 77
3 42 79 78
3 78 73 34
3 34 42 78
3 79 80 78
3 81 83 108
3 83 81 43
3 83 43 41
3 41 77 83
3 44 79 42
3 80 79 44
3 80 44 46
3 46 84 80
3 85 46 48
3 85 84 46
3 50 81 82
3 85 50 82
3 48 50 85
3 81 50 43
3 86 56 52
3 56 86 87
3 88 56 87
3 58 56 88
3 59 58 88
3 90 88 116
3 89 91 90
3 90 60 88
3 60 59 88
3 90 61 60
3 92 86 57
3 57 93 92
3 63 93 57
3 86 92 87
3 91 94 61
3 61 90 91
3 94 95 71
3 67 61 94
3 96 93 63
3 96 63 68
3 97 68 69
3 97 96 68
3 98 69 70
3 98 97 69
3 99 70 71
3 99 98 70
3 71 67 94
3 71 95 99
3 101 100 72
3 101 72 73
3 72 102 74
3 100 102 72
3 74 103 75
3 102 103 74
3 75 104 76
3 103 104 75
3 77 76 104
3 77 104 105
3 73 78 106
3 107 73 106
3 101 73 107
3 80 106 78
3 108 82 81
3 109 108 83
3 77 109 83
3 105 109 77
3 110 107 106
3 112 110 111
3 111 110 84
3 110 106 84
3 106 80 84
3 85 113 84
3 84 113 111
3 114 113 85
3 114 85 82
3 115 114 82
3 108 115 82
3 115 108 109
3 112 111 118
3 117 112 118
3 118 111 113
3 118 116 117
3 113 114 119
3 113 119 118
3 122 121 120
3 120 121 117
3 120 117 116
3 87 120 116
3 88 87 116
3 116 89 90
3 89 116 118
3 124 123 91
3 124 91 89
3 119 124 89
3 118 119 89
3 123 124 148
3 122 120 92
3 93 122 92
3 126 122 93
3 92 120 87
3 123 94 91
3 95 94 123
3 125 95 123
3 127 95 125
3 128 126 93
3 128 93 96
3 129 96 97
3 129 128 96
3 130 97 98
3 130 129 97
3 131 98 99
3 131 130 98
3 99 95 127
3 99 127 131
3 101 132 100
3 100 132 133
3 134 100 133
3 102 100 134
3 102 135 103
3 134 135 102
3 135 137 136
3 136 104 103
3 103 135 136
3 136 105 104
3 132 139 163
3 101 139 132
3 107 139 101
3 132 138 133
3 137 140 136
3 105 136 140
3 141 105 140
3 109 105 141
3 107 110 142
3 142 143 139
3 139 107 142
3 112 142 110
3 144 114 115
3 145 144 115
3 109 145 115
3 141 145 109
3 143 142 146
3 143 146 147
3 117 146 112
3 112 146 142
3 148 119 144
3 144 119 114
3 144 145 149
3 144 149 148
3 147 146 121
3 122 147 121
3 150 147 122
3 121 146 117
3 148 124 119
3 148 125 123
3 149 125 148
3 151 125 149
3 126 153 152
3 150 126 152
3 122 126 150
3 153 154 152
3 157 156 155
3 155 151 173
3 127 151 155
3 125 151 127
3 128 153 126
3 158 154 153
3 128 158 153
3 129 158 128
3 159 129 130
3 159 158 129
3 131 155 156
3 156 159 130
3 130 131 156
3 155 131 127
3 133 160 134
3 161 135 134
3 161 134 160
3 161 137 135
3 163 162 138
3 163 138 132
3 133 138 160
3 138 164 160
3 138 162 164
3 160 164 161
3 161 164 165
3 161 165 137
3 137 165 166
3 166 140 137
3 141 140 166
3 141 166 167
3 143 163 139
3 143 168 163
3 167 145 141
3 169 145 167
3 147 168 143
3 147 170 168
3 169 149 145
3 171 149 169
3 150 170 147
3 150 172 170
3 171 151 149
3 173 151 171
3 174 172 150
3 174 150 152
3 176 175 154
3 175 152 154
3 175 174 152
3 178 177 176
3 176 177 175
3 156 157 178
3 178 157 179
3 179 177 178
3 173 157 155
3 157 173 179
3 158 176 154
3 176 158 159
3 176 159 178
3 178 159 156
3 181 180 162
3 181 162 163
3 162 182 164
3 180 182 162
3 164 183 165
3 182 183 164
3 165 184 166
3 183 184 165
3 167 166 184
3 167 184 185
3 168 181 163
3 168 186 181
3 185 169 167
3 187 169 185
3 170 186 168
3 170 188 186
3 187 171 169
3 189 171 187
3 172 188 170
3 172 190 188
3 189 173 171
3 191 173 189
3 192 190 172
3 192 172 174
3 193 174 175
3 193 192 174
3 194 175 177
3 194 193 175
3 195 177 179
3 195 194 177
3 179 173 191
3 179 191 195
3 197 196 180
3 197 180 181
3 180 198 182
3 196 198 180
3 182 199 183
3 198 199 182
3 183 200 184
3 199 200 183
3 185 184 200
3 185 200 201
3 186 197 181
3 186 202 197
3 201 187 185
3 203 187 201
3 188 202 186
3 188 204 202
3 203 189 187
3 205 189 203
3 190 204 188
3 190 206 204
3 205 191 189
3 207 191 205
3 208 206 190
3 208 190 192
3 209 192 193
3 209 208 192
3 210 193 194
3 210 209 193
3 211 194 195
3 211 210 194
3 195 191 207
3 195 207 211
3 213 212 196
3 213 196 197
3 196 214 198
3 212 214 196
3 198 215 199
3 214 215 198
3 199 216 200
3 215 216 199
3 201 200 216
3 201 216 217
3 202 213 197
3 202 218 213
3 217 203 201
3 219 203 217
3 204 218 202
3 204 220 218
3 219 205 203
3 221 205 219
3 206 220 204
3 206 222 220
3 221 207 205
3 223 207 221
3 224 222 206
3 224 206 208
3 225 208 209
3 225 224 208
3 226 209 210
3 226 225 209
3 227 210 211
3 227 226 210
3 211 207 223
3 211 223 227
3 230 229 228
3 232 231 228
3 232 228 229
3 233 231 232
3 235 234 212
3 235 212 213
3 228 214 230
3 230 214 212
3 212 234 230
3 214 228 215
3 215 228 231
3 233 236 231
3 231 236 216
3 216 215 231
3 217 216 236
3 217 236 237
3 218 235 213
3 218 238 260
3 237 219 217
3 239 219 237
3 220 238 218
3 220 240 263
3 239 221 219
3 221 239 270
3 222 240 220
3 222 242 240
3 241 223 221
3 243 223 241
3 244 242 222
3 244 222 224
3 246 244 245
3 245 244 224
3 224 225 245
3 226 247 225
3 225 247 245
3 247 226 248
3 226 249 248
3 226 227 249
3 227 223 243
3 227 243 249
3 250 246 245
3 250 245 247
3 250 247 251
3 251 247 248
3 254 253 252
3 229 230 252
3 252 253 255
3 255 229 252
3 229 256 232
3 255 256 229
3 258 257 233
3 232 258 233
3 256 258 232
3 259 257 258
3 254 252 234
3 235 254 234
3 260 254 235
3 234 252 230
3 257 236 233
3 237 236 257
3 259 237 257
3 261 237 259
3 238 263 262
3 238 262 291
3 260 235 218
3 263 264 262
3 267 266 271
3 261 267 265
3 239 261 265
3 237 261 239
3 240 268 263
3 263 238 220
3 264 263 268
3 268 269 264
3 271 265 267
3 271 270 265
3 270 241 221
3 270 239 265
3 273 272 268
3 240 273 268
3 242 273 240
3 268 272 269
3 271 274 270
3 241 270 274
3 241 274 306
3 243 241 275
3 242 244 276
3 277 242 276
3 273 242 277
3 246 276 244
3 278 248 249
3 279 278 249
3 243 279 249
3 275 279 243
3 280 277 276
3 280 276 246
3 246 250 281
3 281 280 246
3 282 250 251
3 282 281 250
3 251 248 278
3 283 251 278
3 282 251 283
3 283 278 279
3 285 284 253
3 285 253 254
3 253 286 255
3 284 286 253
3 255 287 256
3 286 287 255
3 256 288 258
3 287 288 256
3 259 258 288
3 259 288 289
3 260 291 290
3 290 285 254
3 254 260 290
3 291 292 290
3 295 294 293
3 295 293 261
3 295 261 259
3 259 289 295
3 291 260 238
3 297 296 264
3 264 296 262
3 296 292 262
3 292 291 262
3 299 298 297
3 297 298 328
3 298 299 294
3 294 299 266
3 266 293 294
3 266 267 293
3 293 267 261
3 300 297 264
3 264 269 300
3 299 297 300
3 300 301 299
3 301 271 266
3 301 266 299
3 273 302 272
3 302 303 272
3 272 303 269
3 269 303 330
3 300 269 330
3 300 304 301
3 301 304 305
3 305 307 306
3 305 306 274
3 301 305 274
3 271 301 274
3 306 275 241
3 309 308 302
3 302 273 277
3 277 309 302
3 302 308 303
3 307 310 306
3 275 306 310
3 310 311 279
3 279 275 310
3 312 309 277
3 312 277 280
3 313 280 281
3 313 312 280
3 314 281 282
3 314 313 281
3 315 282 283
3 315 314 282
3 283 279 311
3 283 311 315
3 317 316 284
3 317 284 285
3 284 318 286
3 316 318 284
3 286 319 287
3 318 319 286
3 287 320 288
3 319 320 287
3 289 288 320
3 289 320 321
3 285 290 322
3 322 323 317
3 317 285 322
3 292 322 290
3 324 294 295
3 324 295 289
3 289 325 324
3 321 325 289
3 326 323 322
3 326 322 292
3 292 296 327
3 327 326 292
3 328 296 297
3 328 327 296
3 298 294 324
3 329 298 324
3 328 298 329
3 329 324 325
3 331 330 308
3 330 304 300
3 330 331 333
3 333 304 330
3 304 334 305
3 333 334 304
3 336 335 307
3 307 305 334
3 334 336 307
3 337 335 336
3 308 332 331
3 309 332 308
3 338 332 309
3 308 330 303
3 335 310 307
3 311 310 335
3 335 337 339
3 339 311 335
3 340 338 309
3 340 309 312
3 341 312 313
3 341 340 312
3 342 313 314
3 342 341 313
3 343 314 315
3 343 342 314
3 315 311 339
3 315 339 343
3 317 344 316
3 345 318 316
3 345 316 344
3 346 319 318
3 346 318 345
3 347 320 319
3 347 319 346
3 347 321 320
3 349 348 344
3 317 349 344
3 323 349 317
3 344 348 345
3 345 348 350
3 345 350 346
3 346 350 351
3 346 351 347
3 347 351 352
3 321 347 352
3 353 321 352
3 325 321 353
3 323 326 354
3 355 323 354
3 349 323 355
3 327 356 326
3 326 356 354
3 328 357 327
3 327 357 356
3 329 358 328
3 328 358 357
3 359 358 329
3 325 359 329
3 353 359 325
3 355 354 360
3 355 360 361
3 362 354 356
3 360 354 362
3 363 356 357
3 362 356 363
3 364 357 358
3 363 357 364
3 358 359 365
3 358 365 364
3 361 360 331
3 332 361 331
3 366 361 332
3 331 360 333
3 333 360 362
3 333 362 334
3 334 362 363
3 334 363 336
3 336 363 364
3 337 336 364
3 365 337 364
3 367 337 365
3 338 369 368
3 366 338 368
3 332 338 366
3 371 370 369
3 369 370 368
3 373 372 371
3 371 372 370
3 375 374 373
3 373 374 372
3 367 374 375
3 339 367 375
3 337 367 339
3 340 369 338
3 369 340 341
3 369 341 371
3 371 341 342
3 371 342 373
3 373 342 343
3 373 343 375
3 375 343 339
3 349 376 348
3 377 350 348
3 377 348 376
3 378 351 350
3 378 350 377
3 379 352 351
3 379 351 378
3 379 353 352
3 355 380 376
3 355 376 349
3 376 381 377
3 376 380 381
3 377 382 378
3 377 381 382
3 378 383 379
3 378 382 383
3 383 359 353
3 383 353 379
3 361 384 380
3 361 380 355
3 380 385 381
3 380 384 385
3 381 386 382
3 381 385 386
3 382 387 383
3 382 386 387
3 387 365 359
3 387 359 383
3 366 388 384
3 366 384 361
3 384 389 385
3 384 388 389
3 385 390 386
3 385 389 390
3 386 391 387
3 386 390 391
3 391 367 365
3 391 365 387
3 368 388 366
3 388 368 370
3 388 370 389
3 389 370 372
3 389 372 390
3 390 372 374
3 390 374 391
3 391 374 367
