ply
format ascii 1.0
element vertex 392
property double x
property double y
property double z
element face 788
property list uchar int vertex_indices
end_header
-0.690884790922466019 -0.15789473684210531 -0.15789473684210531
-0.684210526315789491 -0.18127662257144328 -0.15789473684210531
-0.684210526315789491 -0.15789473684210531 -0.18547389381810242
-0.703621864318847656 -0.15789473684210531 -0.0526315789473684736
-0.684210526315789491 -0.22589819054854543 -0.0526315789473684736
-0.703621864318847656 -0.15789473684210531 0.0526315789473683626
-0.684210526315789491 -0.22589819054854543 0.0526315789473683626
-0.690884790922466019 -0.15789473684210531 0.15789473684210531
-0.684210526315789491 -0.18127662257144328 0.15789473684210531
-0.684210526315789491 -0.15789473684210531 0.18547389381810242
-0.696968379773591717 -0.0526315789473684736 -0.15789473684210531
-0.684210526315789491 -0.0526315789473684736 -0.191568525213944296
-0.716908705861944995 -0.0526315789473684736 -0.0526315789473684736
-0.716908705861944995 -0.0526315789473684736 0.0526315789473683626
-0.696968379773591717 -0.0526315789473684736 0.15789473684210531
-0.684210526315789491 -0.0526315789473684736 0.19156847502055907
-0.696968379773591717 0.0526315789473683626 -0.15789473684210531
-0.684210526315789491 0.0526315789473683626 -0.191568525213944296
-0.716908705861944995 0.0526315789473683626 -0.0526315789473684736
-0.716908705861944995 0.0526315789473683626 0.0526315789473683626
-0.696968379773591717 0.0526315789473683626 0.15789473684210531
-0.684210526315789491 0.0526315789473683626 0.19156847502055907
-0.690884790922466019 0.15789473684210531 -0.15789473684210531
-0.684210526315789491 0.15789473684210531 -0.18547389381810242
-0.703621864318847656 0.15789473684210531 -0.0526315789473684736
-0.703621864318847656 0.15789473684210531 0.0526315789473683626
-0.690884790922466019 0.15789473684210531 0.15789473684210531
-0.684210526315789491 0.15789473684210531 0.18547389381810242
-0.684210526315789491 0.18127662257144328 -0.15789473684210531
-0.684210526315789491 0.225898240741930545 -0.0526315789473684736
-0.684210526315789491 0.225898240741930545 0.0526315789473683626
-0.684210526315789491 0.18127662257144328 0.15789473684210531
-0.600134498194644372 -0.263157894736842146 -0.15789473684210531
-0.578947368421052655 -0.273178401746247967 -0.15789473684210531
-0.578947368421052655 -0.263157894736842146 -0.182232806557103277
-0.645952124344675194 -0.263157894736842146 -0.0526315789473684736
-0.578947368421052655 -0.294847990337171129 -0.0526315789473684736
-0.645952124344675194 -0.263157894736842146 0.0526315789473683626
-0.578947368421052655 -0.294847990337171129 0.0526315789473683626
-0.600134498194644372 -0.263157894736842146 0.15789473684210531
-0.578947368421052655 -0.273178401746247967 0.15789473684210531
-0.578947368421052655 -0.263157894736842146 0.182232806557103055
-0.578947368421052655 -0.15789473684210531 -0.166060497886256209
-0.578947368421052655 -0.15789473684210531 0.166060497886256098
-0.578947368421052655 -0.14447904887952312 -0.15789473684210531
-0.644640872353001715 -0.0526315789473684736 -0.15789473684210531
-0.578947368421052655 -0.0580098001580490186 -0.0526315789473684736
-0.582794139259739996 -0.0526315789473684736 -0.0526315789473684736
-0.578947368421052655 -0.0580098001580490186 0.0526315789473683626
-0.582794139259739996 -0.0526315789473684736 0.0526315789473683626
-0.578947368421052655 -0.14447904887952312 0.15789473684210531
-0.644640872353001715 -0.0526315789473684736 0.15789473684210531
-0.644640872353001715 0.0526315789473683626 -0.15789473684210531
-0.582794139259739996 0.0526315789473683626 -0.0526315789473684736
-0.582794139259739996 0.0526315789473683626 0.0526315789473683626
-0.644640872353001715 0.0526315789473683626 0.15789473684210531
-0.578947368421052655 0.144479048879522898 -0.15789473684210531
-0.578947368421052655 0.15789473684210531 -0.166060497886256209
-0.578947368421052655 0.0580098001580489075 -0.0526315789473684736
-0.578947368421052655 0.0580098001580489075 0.0526315789473683626
-0.578947368421052655 0.144479048879522898 0.15789473684210531
-0.578947368421052655 0.15789473684210531 0.166060497886256098
-0.600134498194644372 0.263157894736842035 -0.15789473684210531
-0.578947368421052655 0.263157894736842035 -0.182232806557103277
-0.645952124344675194 0.263157894736842035 -0.0526315789473684736
-0.645952124344675194 0.263157894736842035 0.0526315789473683626
-0.600134498194644372 0.263157894736842035 0.15789473684210531
-0.578947368421052655 0.263157894736842035 0.182232806557103055
-0.578947368421052655 0.273178401746247967 -0.15789473684210531
-0.578947368421052655 0.294847990337171018 -0.0526315789473684736
-0.578947368421052655 0.294847990337171018 0.0526315789473683626
-0.578947368421052655 0.273178401746247967 0.15789473684210531
-0.473684210526315819 -0.278821292676423749 -0.15789473684210531
-0.473684210526315819 -0.263157894736842146 -0.190143785978618474
-0.473684210526315819 -0.304384432340923161 -0.0526315789473684736
-0.473684210526315819 -0.304384432340923161 0.0526315789473683626
-0.473684210526315819 -0.278821292676423749 0.15789473684210531
-0.473684210526315819 -0.263157894736842146 0.190143785978618363
-0.473684210526315819 -0.182588527077122809 -0.15789473684210531
-0.531326093171772262 -0.15789473684210531 -0.15789473684210531
-0.473684210526315819 -0.15789473684210531 -0.138126674451326092
-0.531326093171772262 -0.15789473684210531 0.15789473684210531
-0.473684210526315819 -0.15789473684210531 0.138126674451326092
-0.473684210526315819 -0.182588527077122809 0.15789473684210531
-0.473684210526315819 -0.0994955364026521849 -0.0526315789473684736
-0.473684210526315819 -0.0994955364026521849 0.0526315789473683626
-0.531326093171772262 0.15789473684210531 -0.15789473684210531
-0.473684210526315819 0.15789473684210531 -0.138126674451326092
-0.473684210526315819 0.0994955364026521849 -0.0526315789473684736
-0.473684210526315819 0.0994955364026521849 0.0526315789473683626
-0.531326093171772262 0.15789473684210531 0.15789473684210531
-0.473684210526315819 0.15789473684210531 0.138126674451326092
-0.473684210526315819 0.182588577270507812 -0.15789473684210531
-0.473684210526315819 0.263157894736842035 -0.190143785978618474
-0.473684210526315819 0.182588577270507812 0.15789473684210531
-0.473684210526315819 0.263157894736842035 0.190143785978618363
-0.473684210526315819 0.278821242483038523 -0.15789473684210531
-0.473684210526315819 0.30438443234092305 -0.0526315789473684736
-0.473684210526315819 0.30438443234092305 0.0526315789473683626
-0.473684210526315819 0.278821242483038523 0.15789473684210531
-0.368421052631578982 -0.270343429163882654 -0.15789473684210531
-0.368421052631578982 -0.263157894736842146 -0.176660035785875857
-0.368421052631578982 -0.290496876365260115 -0.0526315789473684736
-0.368421052631578982 -0.290496876365260115 0.0526315789473683626
-0.368421052631578982 -0.270343429163882654 0.15789473684210531
-0.368421052631578982 -0.263157894736842146 0.176660035785875857
-0.432559515300550035 -0.15789473684210531 -0.15789473684210531
-0.368421052631578982 -0.15789473684210531 -0.17330997868588105
-0.432559515300550035 -0.15789473684210531 0.15789473684210531
-0.368421052631578982 -0.15789473684210531 0.173310028879265943
-0.368421052631578982 -0.129752811632658394 -0.15789473684210531
-0.392886161804199219 -0.0526315789473684736 -0.0526315789473684736
-0.368421052631578982 -0.0526315789473684736 -0.0734055167750309323
-0.392886161804199219 -0.0526315789473684736 0.0526315789473683626
-0.368421052631578982 -0.0526315789473684736 0.0734055167750307103
-0.368421052631578982 -0.129752811632658394 0.15789473684210531
-0.392886161804199219 0.0526315789473683626 -0.0526315789473684736
-0.368421052631578982 0.0526315789473683626 -0.0734055167750309323
-0.392886161804199219 0.0526315789473683626 0.0526315789473683626
-0.368421052631578982 0.0526315789473683626 0.0734055167750307103
-0.432559515300550035 0.15789473684210531 -0.15789473684210531
-0.368421052631578982 0.129752811632658283 -0.15789473684210531
-0.368421052631578982 0.15789473684210531 -0.17330997868588105
-0.432559515300550035 0.15789473684210531 0.15789473684210531
-0.368421052631578982 0.129752811632658283 0.15789473684210531
-0.368421052631578982 0.15789473684210531 0.173310028879265943
-0.368421052631578982 0.263157894736842035 -0.176660035785875857
-0.368421052631578982 0.263157894736842035 0.176660035785875857
-0.368421052631578982 0.270343378970497428 -0.15789473684210531
-0.368421052631578982 0.290496826171875 -0.0526315789473684736
-0.368421052631578982 0.290496826171875 0.0526315789473683626
-0.368421052631578982 0.270343378970497428 0.15789473684210531
-0.32365427519145773 -0.263157894736842146 -0.15789473684210531
-0.263157894736842146 -0.263157894736842146 -0.107177031667609057
-0.263157894736842146 -0.270903486954538475 -0.0526315789473684736
-0.263157894736842146 -0.270903486954538475 0.0526315789473683626
-0.32365427519145773 -0.263157894736842146 0.15789473684210531
-0.263157894736842146 -0.263157894736842146 0.107177031667608835
-0.263157894736842146 -0.219018735383686325 -0.15789473684210531
-0.263157894736842146 -0.15789473684210531 -0.193011685421592305
-0.263157894736842146 -0.219018735383686325 0.15789473684210531
-0.263157894736842146 -0.15789473684210531 0.19301163522820719
-0.282267118755139879 -0.0526315789473684736 -0.15789473684210531
-0.263157894736842146 -0.0526315789473684736 -0.16726473758095195
-0.282267118755139879 -0.0526315789473684736 0.15789473684210531
-0.263157894736842146 -0.0526315789473684736 0.167264737580951728
-0.282267118755139879 0.0526315789473683626 -0.15789473684210531
-0.263157894736842146 0.0526315789473683626 -0.16726473758095195
-0.282267118755139879 0.0526315789473683626 0.15789473684210531
-0.263157894736842146 0.0526315789473683626 0.167264737580951728
-0.263157894736842146 0.15789473684210531 -0.193011685421592305
-0.263157894736842146 0.15789473684210531 0.19301163522820719
-0.263157894736842146 0.219018735383686103 -0.15789473684210531
-0.32365427519145773 0.263157894736842035 -0.15789473684210531
-0.263157894736842146 0.263157894736842035 -0.107177031667609057
-0.32365427519145773 0.263157894736842035 0.15789473684210531
-0.263157894736842146 0.263157894736842035 0.107177031667608835
-0.263157894736842146 0.219018735383686103 0.15789473684210531
-0.263157894736842146 0.270903537147923368 -0.0526315789473684736
-0.263157894736842146 0.270903537147923368 0.0526315789473683626
-0.219112546820389609 -0.263157894736842146 -0.0526315789473684736
-0.219112546820389609 -0.263157894736842146 0.0526315789473683626
-0.15789473684210531 -0.183452405427631637 -0.15789473684210531
-0.15789473684210531 -0.15789473684210531 -0.186925737481368315
-0.15789473684210531 -0.229787123830694995 -0.0526315789473684736
-0.15789473684210531 -0.229787123830694995 0.0526315789473683626
-0.15789473684210531 -0.183452405427631637 0.15789473684210531
-0.15789473684210531 -0.15789473684210531 0.186925687287982978
-0.15789473684210531 -0.0526315789473684736 -0.1907251257645457
-0.15789473684210531 -0.0526315789473684736 0.190725125764545478
-0.15789473684210531 0.0526315789473683626 -0.1907251257645457
-0.15789473684210531 0.0526315789473683626 0.190725125764545478
-0.15789473684210531 0.15789473684210531 -0.186925737481368315
-0.15789473684210531 0.15789473684210531 0.186925687287982978
-0.15789473684210531 0.183452405427631415 -0.15789473684210531
-0.15789473684210531 0.229787123830694773 -0.0526315789473684736
-0.219112546820389609 0.263157894736842035 -0.0526315789473684736
-0.15789473684210531 0.229787123830694773 0.0526315789473683626
-0.219112546820389609 0.263157894736842035 0.0526315789473683626
-0.15789473684210531 0.183452405427631415 0.15789473684210531
-0.0526315789473684736 -0.16790947161222769 -0.15789473684210531
-0.0526315789473684736 -0.15789473684210531 -0.172553664759585779
-0.0526315789473684736 -0.203866506877698472 -0.0526315789473684736
-0.0526315789473684736 -0.203866506877698472 0.0526315789473683626
-0.0526315789473684736 -0.16790947161222769 0.15789473684210531
-0.0526315789473684736 -0.15789473684210531 0.172553614566200553
-0.0526315789473684736 -0.0526315789473684736 -0.193607531095805974
-0.0526315789473684736 -0.0526315789473684736 0.193607531095805863
-0.0526315789473684736 0.0526315789473683626 -0.193607531095805974
-0.0526315789473684736 0.0526315789473683626 0.193607531095805863
-0.0526315789473684736 0.15789473684210531 -0.172553664759585779
-0.0526315789473684736 0.15789473684210531 0.172553614566200553
-0.0526315789473684736 0.167909421418842353 -0.15789473684210531
-0.0526315789473684736 0.203866456684313357 -0.0526315789473684736
-0.0526315789473684736 0.203866456684313357 0.0526315789473683626
-0.0526315789473684736 0.167909421418842353 0.15789473684210531
0.0526315789473683626 -0.16790947161222769 -0.15789473684210531
0.0526315789473683626 -0.15789473684210531 -0.172553664759585779
0.0526315789473683626 -0.203866506877698472 -0.0526315789473684736
0.0526315789473683626 -0.203866506877698472 0.0526315789473683626
0.0526315789473683626 -0.16790947161222769 0.15789473684210531
0.0526315789473683626 -0.15789473684210531 0.172553614566200553
0.0526315789473683626 -0.0526315789473684736 -0.193607531095805974
0.0526315789473683626 -0.0526315789473684736 0.193607531095805863
0.0526315789473683626 0.0526315789473683626 -0.193607531095805974
0.0526315789473683626 0.0526315789473683626 0.193607531095805863
0.0526315789473683626 0.15789473684210531 -0.172553664759585779
0.0526315789473683626 0.15789473684210531 0.172553614566200553
0.0526315789473683626 0.167909421418842353 -0.15789473684210531
0.0526315789473683626 0.203866456684313357 -0.0526315789473684736
0.0526315789473683626 0.203866456684313357 0.0526315789473683626
0.0526315789473683626 0.167909421418842353 0.15789473684210531
0.15789473684210531 -0.183452405427631637 -0.15789473684210531
0.15789473684210531 -0.15789473684210531 -0.186925737481368315
0.15789473684210531 -0.229787123830694995 -0.0526315789473684736
0.15789473684210531 -0.229787123830694995 0.0526315789473683626
0.15789473684210531 -0.183452405427631637 0.15789473684210531
0.15789473684210531 -0.15789473684210531 0.186925687287982978
0.15789473684210531 -0.0526315789473684736 -0.1907251257645457
0.15789473684210531 -0.0526315789473684736 0.190725125764545478
0.15789473684210531 0.0526315789473683626 -0.1907251257645457
0.15789473684210531 0.0526315789473683626 0.190725125764545478
0.15789473684210531 0.15789473684210531 -0.186925737481368315
0.15789473684210531 0.15789473684210531 0.186925687287982978
0.15789473684210531 0.183452405427631415 -0.15789473684210531
0.15789473684210531 0.229787123830694773 -0.0526315789473684736
0.15789473684210531 0.229787123830694773 0.0526315789473683626
0.15789473684210531 0.183452405427631415 0.15789473684210531
0.219112597013774613 -0.263157894736842146 -0.0526315789473684736
0.263157894736842035 -0.270903486954538475 -0.0526315789473684736
0.263157894736842035 -0.263157894736842146 -0.107177031667609057
0.219112597013774613 -0.263157894736842146 0.0526315789473683626
0.263157894736842035 -0.270903486954538475 0.0526315789473683626
0.263157894736842035 -0.263157894736842146 0.107177031667608835
0.263157894736842035 -0.219018735383686325 -0.15789473684210531
0.263157894736842035 -0.15789473684210531 -0.193011685421592305
0.263157894736842035 -0.219018735383686325 0.15789473684210531
0.263157894736842035 -0.15789473684210531 0.19301163522820719
0.263157894736842035 -0.0526315789473684736 -0.16726473758095195
0.263157894736842035 -0.0526315789473684736 0.167264737580951728
0.263157894736842035 0.0526315789473683626 -0.16726473758095195
0.263157894736842035 0.0526315789473683626 0.167264737580951728
0.263157894736842035 0.15789473684210531 -0.193011685421592305
0.263157894736842035 0.15789473684210531 0.19301163522820719
0.263157894736842035 0.219018735383686103 -0.15789473684210531
0.219112597013774613 0.263157894736842035 -0.0526315789473684736
0.263157894736842035 0.263157894736842035 -0.107177031667609057
0.219112597013774613 0.263157894736842035 0.0526315789473683626
0.263157894736842035 0.263157894736842035 0.107177031667608835
0.263157894736842035 0.219018735383686103 0.15789473684210531
0.263157894736842035 0.270903537147923368 -0.0526315789473684736
0.263157894736842035 0.270903537147923368 0.0526315789473683626
0.323654275191457508 -0.263157894736842146 -0.15789473684210531
0.36842105263157876 -0.270343429163882654 -0.15789473684210531
0.36842105263157876 -0.263157894736842146 -0.176660035785875857
0.36842105263157876 -0.290496876365260115 -0.0526315789473684736
0.36842105263157876 -0.290496876365260115 0.0526315789473683626
0.323654275191457508 -0.263157894736842146 0.15789473684210531
0.36842105263157876 -0.270343429163882654 0.15789473684210531
0.36842105263157876 -0.263157894736842146 0.176660035785875857
0.36842105263157876 -0.15789473684210531 -0.17330997868588105
0.36842105263157876 -0.15789473684210531 0.173310028879265943
0.36842105263157876 -0.129752811632658394 -0.15789473684210531
0.282267118755139768 -0.0526315789473684736 -0.15789473684210531
0.36842105263157876 -0.0526315789473684736 -0.0734055167750309323
0.282267118755139768 -0.0526315789473684736 0.15789473684210531
0.36842105263157876 -0.0526315789473684736 0.0734055167750307103
0.36842105263157876 -0.129752811632658394 0.15789473684210531
0.282267118755139768 0.0526315789473683626 -0.15789473684210531
0.36842105263157876 0.0526315789473683626 -0.0734055167750309323
0.282267118755139768 0.0526315789473683626 0.15789473684210531
0.36842105263157876 0.0526315789473683626 0.0734055167750307103
0.36842105263157876 0.129752811632658283 -0.15789473684210531
0.36842105263157876 0.15789473684210531 -0.17330997868588105
0.36842105263157876 0.129752811632658283 0.15789473684210531
0.36842105263157876 0.15789473684210531 0.173310028879265943
0.323654275191457508 0.263157894736842035 -0.15789473684210531
0.36842105263157876 0.263157894736842035 -0.176660035785875857
0.323654275191457508 0.263157894736842035 0.15789473684210531
0.36842105263157876 0.263157894736842035 0.176660035785875857
0.36842105263157876 0.270343378970497428 -0.15789473684210531
0.36842105263157876 0.290496826171875 -0.0526315789473684736
0.36842105263157876 0.290496826171875 0.0526315789473683626
0.36842105263157876 0.270343378970497428 0.15789473684210531
0.473684210526315708 -0.278821292676423749 -0.15789473684210531
0.473684210526315708 -0.263157894736842146 -0.190143785978618474
0.473684210526315708 -0.304384432340923161 -0.0526315789473684736
0.473684210526315708 -0.304384432340923161 0.0526315789473683626
0.473684210526315708 -0.278821292676423749 0.15789473684210531
0.473684210526315708 -0.263157894736842146 0.190143785978618363
0.473684210526315708 -0.182588527077122809 -0.15789473684210531
0.432559465107164698 -0.15789473684210531 -0.15789473684210531
0.473684210526315708 -0.15789473684210531 -0.138126674451326092
0.432559465107164698 -0.15789473684210531 0.15789473684210531
0.473684210526315708 -0.15789473684210531 0.138126674451326092
0.473684210526315708 -0.182588527077122809 0.15789473684210531
0.473684210526315708 -0.0994955364026521849 -0.0526315789473684736
0.392886111610813993 -0.0526315789473684736 -0.0526315789473684736
0.473684210526315708 -0.0994955364026521849 0.0526315789473683626
0.392886111610813993 -0.0526315789473684736 0.0526315789473683626
0.392886111610813993 0.0526315789473683626 -0.0526315789473684736
0.392886111610813993 0.0526315789473683626 0.0526315789473683626
0.432559465107164698 0.15789473684210531 -0.15789473684210531
0.473684210526315708 0.15789473684210531 -0.138126674451326092
0.473684210526315708 0.0994955364026521849 -0.0526315789473684736
0.473684210526315708 0.0994955364026521849 0.0526315789473683626
0.432559465107164698 0.15789473684210531 0.15789473684210531
0.473684210526315708 0.15789473684210531 0.138126674451326092
0.473684210526315708 0.182588577270507812 -0.15789473684210531
0.473684210526315708 0.263157894736842035 -0.190143785978618474
0.473684210526315708 0.182588577270507812 0.15789473684210531
0.473684210526315708 0.263157894736842035 0.190143785978618363
0.473684210526315708 0.278821242483038523 -0.15789473684210531
0.473684210526315708 0.30438443234092305 -0.0526315789473684736
0.473684210526315708 0.30438443234092305 0.0526315789473683626
0.473684210526315708 0.278821242483038523 0.15789473684210531
0.578947368421052655 -0.273178401746247967 -0.15789473684210531
0.578947368421052655 -0.263157894736842146 -0.182232806557103277
0.578947368421052655 -0.294847990337171129 -0.0526315789473684736
0.578947368421052655 -0.294847990337171129 0.0526315789473683626
0.578947368421052655 -0.273178401746247967 0.15789473684210531
0.578947368421052655 -0.263157894736842146 0.182232806557103055
0.53132609317177204 -0.15789473684210531 -0.15789473684210531
0.578947368421052655 -0.15789473684210531 -0.166060497886256209
0.53132609317177204 -0.15789473684210531 0.15789473684210531
0.578947368421052655 -0.15789473684210531 0.166060497886256098
0.578947368421052655 -0.14447904887952312 -0.15789473684210531
0.578947368421052655 -0.0580098001580490186 -0.0526315789473684736
0.578947368421052655 -0.0580098001580490186 0.0526315789473683626
0.578947368421052655 -0.14447904887952312 0.15789473684210531
0.53132609317177204 0.15789473684210531 -0.15789473684210531
0.578947368421052655 0.144479048879522898 -0.15789473684210531
0.578947368421052655 0.15789473684210531 -0.166060497886256209
0.578947368421052655 0.0580098001580489075 -0.0526315789473684736
0.578947368421052655 0.0580098001580489075 0.0526315789473683626
0.53132609317177204 0.15789473684210531 0.15789473684210531
0.578947368421052655 0.144479048879522898 0.15789473684210531
0.578947368421052655 0.15789473684210531 0.166060497886256098
0.578947368421052655 0.263157894736842035 -0.182232806557103277
0.578947368421052655 0.263157894736842035 0.182232806557103055
0.578947368421052655 0.273178401746247967 -0.15789473684210531
0.578947368421052655 0.294847990337171018 -0.0526315789473684736
0.578947368421052655 0.294847990337171018 0.0526315789473683626
0.578947368421052655 0.273178401746247967 0.15789473684210531
0.60013449819464415 -0.263157894736842146 -0.15789473684210531
0.645952124344675083 -0.263157894736842146 -0.0526315789473684736
0.645952124344675083 -0.263157894736842146 0.0526315789473683626
0.60013449819464415 -0.263157894736842146 0.15789473684210531
0.68421052631578938 -0.18127662257144328 -0.15789473684210531
0.68421052631578938 -0.15789473684210531 -0.18547389381810242
0.68421052631578938 -0.22589819054854543 -0.0526315789473684736
0.68421052631578938 -0.22589819054854543 0.0526315789473683626
0.68421052631578938 -0.18127662257144328 0.15789473684210531
0.68421052631578938 -0.15789473684210531 0.18547389381810242
0.644640872353001493 -0.0526315789473684736 -0.15789473684210531
0.68421052631578938 -0.0526315789473684736 -0.191568525213944296
0.582794189453125 -0.0526315789473684736 -0.0526315789473684736
0.582794189453125 -0.0526315789473684736 0.0526315789473683626
0.644640872353001493 -0.0526315789473684736 0.15789473684210531
0.68421052631578938 -0.0526315789473684736 0.19156847502055907
0.644640872353001493 0.0526315789473683626 -0.15789473684210531
0.68421052631578938 0.0526315789473683626 -0.191568525213944296
0.582794189453125 0.0526315789473683626 -0.0526315789473684736
0.582794189453125 0.0526315789473683626 0.0526315789473683626
0.644640872353001493 0.0526315789473683626 0.15789473684210531
0.68421052631578938 0.0526315789473683626 0.19156847502055907
0.68421052631578938 0.15789473684210531 -0.18547389381810242
0.68421052631578938 0.15789473684210531 0.18547389381810242
0.68421052631578938 0.18127662257144328 -0.15789473684210531
0.60013449819464415 0.263157894736842035 -0.15789473684210531
0.68421052631578938 0.225898240741930545 -0.0526315789473684736
0.645952124344675083 0.263157894736842035 -0.0526315789473684736
0.68421052631578938 0.225898240741930545 0.0526315789473683626
0.645952124344675083 0.263157894736842035 0.0526315789473683626
0.68421052631578938 0.18127662257144328 0.15789473684210531
0.60013449819464415 0.263157894736842035 0.15789473684210531
0.690884841115851023 -0.15789473684210531 -0.15789473684210531
0.70362191451223266 -0.15789473684210531 -0.0526315789473684736
0.70362191451223266 -0.15789473684210531 0.0526315789473683626
0.690884841115851023 -0.15789473684210531 0.15789473684210531
0.696968480160361725 -0.0526315789473684736 -0.15789473684210531
0.716908705861944773 -0.0526315789473684736 -0.0526315789473684736
0.716908705861944773 -0.0526315789473684736 0.0526315789473683626
0.696968480160361725 -0.0526315789473684736 0.15789473684210531
0.696968480160361725 0.0526315789473683626 -0.15789473684210531
0.716908705861944773 0.0526315789473683626 -0.0526315789473684736
0.716908705861944773 0.0526315789473683626 0.0526315789473683626
0.696968480160361725 0.0526315789473683626 0.15789473684210531
0.690884841115851023 0.15789473684210531 -0.15789473684210531
0.70362191451223266 0.15789473684210531 -0.0526315789473684736
0.70362191451223266 0.15789473684210531 0.0526315789473683626
0.690884841115851023 0.15789473684210531 0.15789473684210531
3 2 1 0
3 4 3 0
3 4 0 1
3 6 5 3
3 6 3 4
3 8 7 5
3 8 5 6
3 9 7 8
3 2 0 10
3 2 10 11
3 12 0 3
3 10 0 12
3 13 3 5
3 12 3 13
3 14 5 7
3 13 5 14
3 7 9 15
3 7 15 14
3 11 10 16
3 11 16 17
3 18 10 12
3 16 10 18
3 19 12 13
3 18 12 19
3 20 13 14
3 19 13 20
3 14 15 21
3 14 21 20
3 17 16 22
3 17 22 23
3 24 16 18
3 22 16 24
3 25 18 19
3 24 18 25
3 26 19 20
3 25 19 26
3 20 21 27
3 20 27 26
3 28 23 22
3 28 22 24
3 28 24 29
3 29 24 25
3 29 25 30
3 30 25 26
3 30 26 31
3 31 26 27
3 34 33 32
3 36 35 32
3 36 32 33
3 38 37 35
3 38 35 36
3 40 39 37
3 40 37 38
3 41 39 40
3 34 32 1
3 2 34 1
3 42 34 2
3 1 32 4
3 4 32 35
3 4 35 6
3 6 35 37
3 6 37 8
3 8 37 39
3 9 8 39
3 41 9 39
3 43 9 41
3 11 45 44
3 42 11 44
3 2 11 42
3 47 46 45
3 45 46 44
3 49 48 47
3 47 48 46
3 51 50 49
3 49 50 48
3 43 50 51
3 15 43 51
3 9 43 15
3 17 52 45
3 17 45 11
3 45 53 47
3 45 52 53
3 47 54 49
3 47 53 54
3 49 55 51
3 49 54 55
3 55 21 15
3 55 15 51
3 57 56 52
3 17 57 52
3 23 57 17
3 52 56 53
3 53 56 58
3 53 58 54
3 54 58 59
3 54 59 55
3 55 59 60
3 21 55 60
3 61 21 60
3 27 21 61
3 23 28 62
3 63 23 62
3 57 23 63
3 29 64 28
3 28 64 62
3 30 65 29
3 29 65 64
3 31 66 30
3 30 66 65
3 67 66 31
3 27 67 31
3 61 67 27
3 68 63 62
3 68 62 64
3 68 64 69
3 69 64 65
3 69 65 70
3 70 65 66
3 70 66 71
3 71 66 67
3 73 72 33
3 73 33 34
3 33 74 36
3 72 74 33
3 36 75 38
3 74 75 36
3 38 76 40
3 75 76 38
3 41 40 76
3 41 76 77
3 42 79 78
3 73 42 78
3 34 42 73
3 79 80 78
3 83 82 81
3 77 83 81
3 43 77 81
3 41 77 43
3 44 79 42
3 84 80 79
3 44 84 79
3 46 84 44
3 85 46 48
3 85 84 46
3 50 81 82
3 85 50 82
3 48 50 85
3 81 50 43
3 57 86 56
3 56 86 87
3 88 56 87
3 58 56 88
3 58 89 59
3 88 89 58
3 89 91 90
3 60 89 90
3 59 89 60
3 90 61 60
3 93 92 86
3 57 93 86
3 63 93 57
3 86 92 87
3 91 94 90
3 61 90 94
3 95 61 94
3 67 61 95
3 96 93 63
3 96 63 68
3 97 68 69
3 97 96 68
3 98 69 70
3 98 97 69
3 99 70 71
3 99 98 70
3 71 67 95
3 71 95 99
3 101 100 72
3 101 72 73
3 72 102 74
3 100 102 72
3 74 103 75
3 102 103 74
3 75 104 76
3 103 104 75
3 77 76 104
3 77 104 105
3 73 78 106
3 107 73 106
3 101 73 107
3 80 106 78
3 108 82 83
3 109 108 83
3 77 109 83
3 105 109 77
3 110 107 106
3 112 110 111
3 111 110 84
3 110 106 84
3 106 80 84
3 85 113 84
3 84 113 111
3 114 113 85
3 114 85 82
3 115 114 82
3 108 115 82
3 115 108 109
3 112 111 116
3 112 116 117
3 118 111 113
3 116 111 118
3 113 114 119
3 113 119 118
3 122 121 120
3 120 121 117
3 120 117 116
3 87 120 116
3 88 87 116
3 88 116 89
3 89 116 118
3 124 123 91
3 124 91 89
3 119 124 89
3 118 119 89
3 125 123 124
3 122 120 92
3 93 122 92
3 126 122 93
3 92 120 87
3 123 94 91
3 95 94 123
3 125 95 123
3 127 95 125
3 128 126 93
3 128 93 96
3 129 96 97
3 129 128 96
3 130 97 98
3 130 129 97
3 131 98 99
3 131 130 98
3 99 95 127
3 99 127 131
3 101 132 100
3 100 132 133
3 134 100 133
3 102 100 134
3 102 135 103
3 134 135 102
3 135 137 136
3 104 135 136
3 103 135 104
3 136 105 104
3 139 138 132
3 101 139 132
3 107 139 101
3 132 138 133
3 137 140 136
3 105 136 140
3 141 105 140
3 109 105 141
3 107 110 142
3 143 107 142
3 139 107 143
3 112 142 110
3 144 114 115
3 145 144 115
3 109 145 115
3 141 145 109
3 143 142 146
3 143 146 147
3 117 146 112
3 112 146 142
3 148 119 144
3 144 119 114
3 144 145 149
3 144 149 148
3 147 146 121
3 122 147 121
3 150 147 122
3 121 146 117
3 148 124 119
3 125 124 148
3 149 125 148
3 151 125 149
3 126 153 152
3 150 126 152
3 122 126 150
3 153 154 152
3 157 156 155
3 151 157 155
3 127 151 155
3 125 151 127
3 128 153 126
3 158 154 153
3 128 158 153
3 129 158 128
3 159 129 130
3 159 158 129
3 131 155 156
3 159 131 156
3 130 131 159
3 155 131 127
3 133 160 134
3 161 135 134
3 161 134 160
3 161 137 135
3 163 162 138
3 163 138 139
3 133 138 160
3 138 164 160
3 138 162 164
3 160 164 161
3 161 164 165
3 161 165 137
3 165 140 137
3 165 166 140
3 141 140 166
3 141 166 167
3 143 163 139
3 143 168 163
3 167 145 141
3 169 145 167
3 147 168 143
3 147 170 168
3 169 149 145
3 171 149 169
3 150 170 147
3 150 172 170
3 171 151 149
3 173 151 171
3 174 172 150
3 174 150 152
3 176 175 154
3 175 152 154
3 175 174 152
3 178 177 176
3 176 177 175
3 156 157 178
3 157 177 178
3 157 179 177
3 157 151 173
3 157 173 179
3 158 176 154
3 176 158 159
3 176 159 178
3 178 159 156
3 181 180 162
3 181 162 163
3 162 182 164
3 180 182 162
3 164 183 165
3 182 183 164
3 165 184 166
3 183 184 165
3 167 166 184
3 167 184 185
3 168 181 163
3 168 186 181
3 185 169 167
3 187 169 185
3 170 186 168
3 170 188 186
3 187 171 169
3 189 171 187
3 172 188 170
3 172 190 188
3 189 173 171
3 191 173 189
3 192 190 172
3 192 172 174
3 193 174 175
3 193 192 174
3 194 175 177
3 194 193 175
3 195 177 179
3 195 194 177
3 179 173 191
3 179 191 195
3 197 196 180
3 197 180 181
3 180 198 182
3 196 198 180
3 182 199 183
3 198 199 182
3 183 200 184
3 199 200 183
3 185 184 200
3 185 200 201
3 186 197 181
3 186 202 197
3 201 187 185
3 203 187 201
3 188 202 186
3 188 204 202
3 203 189 187
3 205 189 203
3 190 204 188
3 190 206 204
3 205 191 189
3 207 191 205
3 208 206 190
3 208 190 192
3 209 192 193
3 209 208 192
3 210 193 194
3 210 209 193
3 211 194 195
3 211 210 194
3 195 191 207
3 195 207 211
3 213 212 196
3 213 196 197
3 196 214 198
3 212 214 196
3 198 215 199
3 214 215 198
3 199 216 200
3 215 216 199
3 201 200 216
3 201 216 217
3 202 213 197
3 202 218 213
3 217 203 201
3 219 203 217
3 204 218 202
3 204 220 218
3 219 205 203
3 221 205 219
3 206 220 204
3 206 222 220
3 221 207 205
3 223 207 221
3 224 222 206
3 224 206 208
3 225 208 209
3 225 224 208
3 226 209 210
3 226 225 209
3 227 210 211
3 227 226 210
3 211 207 223
3 211 223 227
3 230 229 228
3 232 231 228
3 232 228 229
3 233 231 232
3 235 234 212
3 235 212 213
3 228 214 230
3 214 234 230
3 214 212 234
3 214 228 215
3 215 228 231
3 233 236 231
3 236 215 231
3 236 216 215
3 217 216 236
3 217 236 237
3 218 235 213
3 218 238 235
3 237 219 217
3 239 219 237
3 220 238 218
3 220 240 238
3 239 221 219
3 241 221 239
3 222 240 220
3 222 242 240
3 241 223 221
3 243 223 241
3 244 242 222
3 244 222 224
3 246 244 245
3 244 225 245
3 244 224 225
3 226 247 225
3 225 247 245
3 247 226 248
3 226 249 248
3 226 227 249
3 227 223 243
3 227 243 249
3 250 246 245
3 250 245 247
3 250 247 251
3 251 247 248
3 254 253 252
3 229 230 252
3 253 229 252
3 255 229 253
3 229 256 232
3 255 256 229
3 258 257 233
3 232 258 233
3 256 258 232
3 259 257 258
3 254 252 234
3 235 254 234
3 260 254 235
3 234 252 230
3 257 236 233
3 237 236 257
3 259 237 257
3 261 237 259
3 238 263 262
3 260 238 262
3 235 238 260
3 263 264 262
3 267 266 265
3 261 267 265
3 239 261 265
3 237 261 239
3 240 268 263
3 240 263 238
3 264 263 269
3 269 263 268
3 265 266 270
3 270 266 271
3 270 241 239
3 270 239 265
3 273 272 268
3 240 273 268
3 242 273 240
3 268 272 269
3 271 274 270
3 241 270 274
3 275 241 274
3 243 241 275
3 242 244 276
3 277 242 276
3 273 242 277
3 246 276 244
3 278 248 249
3 279 278 249
3 243 279 249
3 275 279 243
3 280 277 276
3 280 276 246
3 250 280 246
3 281 280 250
3 282 250 251
3 282 281 250
3 251 248 278
3 283 251 278
3 282 251 283
3 283 278 279
3 285 284 253
3 285 253 254
3 253 286 255
3 284 286 253
3 255 287 256
3 286 287 255
3 256 288 258
3 287 288 256
3 259 258 288
3 259 288 289
3 260 291 290
3 285 260 290
3 254 260 285
3 291 292 290
3 295 294 293
3 289 295 293
3 261 289 293
3 259 289 261
3 262 291 260
3 297 296 264
3 264 296 262
3 296 292 262
3 292 291 262
3 299 298 297
3 297 298 296
3 298 299 294
3 294 299 293
3 299 266 293
3 266 267 293
3 293 267 261
3 269 300 297
3 269 297 264
3 297 301 299
3 297 300 301
3 301 271 266
3 301 266 299
3 273 302 272
3 302 303 272
3 272 303 269
3 303 304 269
3 304 300 269
3 300 304 301
3 301 304 305
3 305 307 306
3 305 306 274
3 301 305 274
3 271 301 274
3 306 275 274
3 309 308 302
3 273 309 302
3 277 309 273
3 302 308 303
3 307 310 306
3 275 306 310
3 311 275 310
3 279 275 311
3 312 309 277
3 312 277 280
3 313 280 281
3 313 312 280
3 314 281 282
3 314 313 281
3 315 282 283
3 315 314 282
3 283 279 311
3 283 311 315
3 317 316 284
3 317 284 285
3 284 318 286
3 316 318 284
3 286 319 287
3 318 319 286
3 287 320 288
3 319 320 287
3 289 288 320
3 289 320 321
3 285 290 322
3 323 285 322
3 317 285 323
3 292 322 290
3 324 294 295
3 325 324 295
3 289 325 295
3 321 325 289
3 326 323 322
3 326 322 292
3 296 326 292
3 327 326 296
3 328 296 298
3 328 327 296
3 298 294 324
3 329 298 324
3 328 298 329
3 329 324 325
3 332 331 330
3 304 303 330
3 331 304 330
3 333 304 331
3 304 334 305
3 333 334 304
3 336 335 307
3 305 336 307
3 334 336 305
3 337 335 336
3 332 330 308
3 309 332 308
3 338 332 309
3 308 330 303
3 335 310 307
3 311 310 335
3 337 311 335
3 339 311 337
3 340 338 309
3 340 309 312
3 341 312 313
3 341 340 312
3 342 313 314
3 342 341 313
3 343 314 315
3 343 342 314
3 315 311 339
3 315 339 343
3 317 344 316
3 345 318 316
3 345 316 344
3 346 319 318
3 346 318 345
3 347 320 319
3 347 319 346
3 347 321 320
3 349 348 344
3 317 349 344
3 323 349 317
3 344 348 345
3 345 348 350
3 345 350 346
3 346 350 351
3 346 351 347
3 347 351 352
3 321 347 352
3 353 321 352
3 325 321 353
3 323 326 354
3 355 323 354
3 349 323 355
3 327 356 326
3 326 356 354
3 328 357 327
3 327 357 356
3 329 358 328
3 328 358 357
3 359 358 329
3 325 359 329
3 353 359 325
3 355 354 360
3 355 360 361
3 362 354 356
3 360 354 362
3 363 356 357
3 362 356 363
3 364 357 358
3 363 357 364
3 358 359 365
3 358 365 364
3 361 360 331
3 332 361 331
3 366 361 332
3 331 360 333
3 333 360 362
3 333 362 334
3 334 362 363
3 334 363 336
3 336 363 364
3 337 336 364
3 365 337 364
3 367 337 365
3 338 369 368
3 366 338 368
3 332 338 366
3 371 370 369
3 369 370 368
3 373 372 371
3 371 372 370
3 375 374 373
3 373 374 372
3 367 374 375
3 339 367 375
3 337 367 339
3 340 369 338
3 369 340 341
3 369 341 371
3 371 341 342
3 371 342 373
3 373 342 343
3 373 343 375
3 375 343 339
3 349 376 348
3 377 350 348
3 377 348 376
3 378 351 350
3 378 350 377
3 379 352 351
3 379 351 378
3 379 353 352
3 355 380 376
3 355 376 349
3 376 381 377
3 376 380 381
3 377 382 378
3 377 381 382
3 378 383 379
3 378 382 383
3 383 359 353
3 383 353 379
3 361 384 380
3 361 380 355
3 380 385 381
3 380 384 385
3 381 386 382
3 381 385 386
3 382 387 383
3 382 386 387
3 387 365 359
3 387 359 383
3 366 388 384
3 366 384 361
3 384 389 385
3 384 388 389
3 385 390 386
3 385 389 390
3 386 391 387
3 386 390 391
3 391 367 365
3 391 365 387
3 368 388 366
3 388 368 370
3 388 370 389
3 389 370 372
3 389 372 390
3 390 372 374
3 390 374 391
3 391 374 367
