ply
format ascii 1.0
element vertex 472
property double x
property double y
property double z
element face 940
property list uchar int vertex_indices
end_header
-0.902833874409189496 -0.102632058541898663 -0.0244893303048458084
-0.872561585649925031 -0.16755237872205303 -0.00227596838307960033
-0.879554555779492153 -0.130580295302084204 -0.0865853322287303273
-0.88432457357466776 -0.119296043814847708 0.0767354507359887528
-0.829848549352789622 -0.215211373297432285 0.045379072451280221
-0.842217325448729293 -0.183335649642006021 0.0933977434437628512
-0.905153062571494416 -0.0448604238467040714 -0.0885882039620562445
-0.882193841026432501 -0.0543975756804489924 -0.142029053917046039
-0.84528688131729246 -0.0468247794222661287 -0.197137696371199683
-0.919196907142315611 -0.0276622733962173725 -0.0232010896506938506
-0.910623042597351384 -0.0356809745691447217 0.0514184721243531942
-0.853449238356716822 -0.0999640341050198888 0.16886264220649011
-0.88103035005987862 -0.0192925413702998289 0.143259366719089065
-0.845523975423804974 -0.0333140014055704203 0.205874332525624898
-0.898183084481816274 0.0407825638070842475 -0.110925647425204235
-0.871385961171249335 0.0362855153911613576 -0.16752829023642396
-0.914324863721152292 0.0434736964995533146 -0.0395636621882263437
-0.916621226302890335 0.0346999236417651416 0.0302780768571943026
-0.889872660613760691 0.0684236400146288892 0.107651581325720391
-0.83477659834882556 0.0460308992098647993 0.208328324326773978
-0.844873345273872367 0.103331734182401797 -0.182621585523600249
-0.877235954931039563 0.117535148636194922 -0.115973518384103094
-0.893861702590791896 0.122420576934776981 -0.0435627892523556062
-0.89798427311166551 0.111273728770653529 0.0359203807943425449
-0.857713599890157385 0.161183151876954145 0.0993505521359091953
-0.845039486785198468 0.0900022935553660558 0.17657926011309194
-0.85794120500939175 0.181625957021800788 -0.0556180459580796621
-0.8628211062103327 0.180497047248074305 0.0285103632255360555
-0.833149930126992788 -0.204031555818539601 -0.0585669798454740292
-0.720446861212350798 -0.274930312521305398 -0.069704422127049373
-0.782803089972153643 -0.245897311041097799 -0.0694548065905353368
-0.802735960906000412 -0.24518411169072174 0.0128113017579520993
-0.753403534542135378 -0.271609129680905281 0.0265140563009000352
-0.777951917591166997 -0.252826116078076812 0.0766948547181290352
-0.846881892069128783 -0.131982627958021487 -0.147401587844650073
-0.800618742780454196 -0.191205199971122453 -0.149562670495005517
-0.775354394032719996 -0.165484316917771268 -0.210489323755166186
-0.839437047148288262 -0.155369816975233666 0.145371744524306429
-0.775786703056616456 -0.200734802188190203 0.168786716272445708
-0.790871618481503447 -0.150423627664545922 0.207924666910594858
-0.806775394489898989 -0.112201804611291991 -0.213484236312636355
-0.763572735735742469 -0.123690131743885878 -0.24698516947691676
-0.774018574034619267 -0.0528732332190126053 -0.256031463164178019
-0.802439783699172904 -0.0340908341495934492 0.250464372466615848
-0.803022035559490144 -0.0920991621908670705 0.232681591131443488
-0.752825236416489241 -0.0731621360607082188 0.270126692684653891
-0.820240282534857146 0.0341642719347863832 -0.226838916921878575
-0.754192545968992101 0.0395513327287366906 -0.269098125028824131
-0.810421136512793794 0.0196153544829436866 0.243113899421925655
-0.756577578801084893 0.00421171461139129878 0.275477262880117202
-0.795481939048090392 0.0967379351766372714 -0.235025633925024235
-0.835784720333101916 0.166759296897033782 -0.138856881272423571
-0.801129568769562761 0.145613208288697976 -0.20335600018246075
-0.840801087309024142 0.142796721040558711 0.152604840002405623
-0.773850033920432834 0.16594433233999592 0.201767823999305429
-0.762459417002739781 0.069526065809101284 0.260750069654956673
-0.772400768550757899 0.196740182071841019 -0.176866810383548345
-0.800779982828725201 0.226161924702187267 -0.0929788723246114668
-0.748497415624889806 0.267969903819554989 -0.0726341261569852237
-0.804681381849875699 0.241191060709533917 0.00173180726377974645
-0.805091196357786032 0.22807144990223821 0.0878727006795773369
-0.788817503098881323 0.205721263780078184 0.150806923869249543
-0.742998755159566149 0.280917464893717661 -0.00344867324255675959
-0.750284384160441631 0.269404758485590645 0.0695865592827048518
-0.752547389386621801 -0.22526257155815288 -0.156622222237935982
-0.634672302282659251 -0.285023168071926458 -0.117450746933615319
-0.682851689255933869 -0.240967713923588123 -0.177161708785017746
-0.647151583439410816 -0.304804673922541347 -0.0322183781529467236
-0.672690805626956601 -0.295844047933135013 0.0426001562806608419
-0.769792034932071267 -0.234440848958830717 0.123631267362677474
-0.706386857724270567 -0.271268358028739331 0.111936351292486233
-0.67831654859742907 -0.239220167547809781 0.184945750048053498
-0.726664180412955885 -0.179346245993752512 -0.22870558655010037
-0.645864403264363895 -0.192966591348178007 -0.243771209450132004
-0.700819511266316808 -0.126691453637021667 -0.269466219604258095
-0.748563171603162991 -0.134162713351713703 0.251073568550686355
-0.712957521128845251 -0.184871686719044914 0.231189884698083881
-0.683265232154419255 -0.138492849789793093 0.270799987799293373
-0.68301393438376834 -0.0475473722991681461 -0.292666139049951979
-0.675613379176059792 -0.0597900308345586107 0.293813893112939983
-0.667824974605442323 0.0464064227648214797 -0.295643027699351968
-0.675872004981842522 0.0294722692604992911 0.297579282536010292
-0.737347635477011765 0.131027766971821974 -0.248303714697980904
-0.640878246125300532 0.132834735201585008 -0.277712046636305998
-0.765968679847338296 0.120605825235385669 0.235566787184334797
-0.676305919822497881 0.109057183108351691 0.280222941170753637
-0.689390593595589851 0.198578679120035989 -0.224030783187850802
-0.728450288440561922 0.244746023315533495 -0.149871582696531586
-0.638523360210399238 0.24883740891343914 -0.187488194831923471
-0.744517196249830815 0.249848858547822628 0.134611432342205933
-0.689968577898933288 0.226826164806215286 0.194988945125902202
-0.679050669927422579 0.170296952143636826 0.248619722432630808
-0.66391793927069398 0.282898149904373453 -0.114426874185672836
-0.671083791484217373 0.300045867794451582 -0.0295594392161949784
-0.672172834175703948 0.295914466020075984 0.0582240557632161329
-0.673439935922843236 0.271389051762658873 0.137850355374976308
-0.53059102346434539 -0.289259961730229831 -0.122426090963903417
-0.566742561993464622 -0.247528761155944382 -0.192071131348201918
-0.566170782603346856 -0.310191010280124135 -0.0442191028387796392
-0.578576474836748345 -0.30891648136470784 0.0452564436335307421
-0.595657830698131385 -0.280178159212625622 0.136851065735251826
-0.573255380287454486 -0.231286675109403872 0.21576230850596062
-0.543506891224558863 -0.193397227509047975 -0.251172943875050791
-0.607726458967850935 -0.131563748364183247 -0.284345318737526886
-0.636106637577316003 -0.197541601016235191 0.244560882562771614
-0.582560154010312248 -0.149546016954173022 0.273594557778704117
-0.584800184632274345 -0.0468815731874134972 -0.306693789012626838
-0.578374857271742093 -0.0511818170048154095 0.304921245922958717
-0.56864762462060181 0.0466659653193415153 -0.307075891843614557
-0.578152925528533923 0.0436885680255030134 0.306931610815436962
-0.537363953724866894 0.127000050953241378 -0.287377671112464206
-0.579134056344764558 0.129276650535824711 0.285599772976563138
-0.586898002299026778 0.194961486574634163 -0.24760529383766941
-0.52638455243793203 0.240391147438399677 -0.204503000489574982
-0.58318974344744956 0.246022172790763216 0.200007070327943348
-0.583194476762696978 0.195754128737976929 0.248560080556056523
-0.565285186658253891 0.285233125327100212 -0.132196550987672634
-0.575059871607671802 0.30772424370899315 -0.0442156173105385242
-0.577449647599602711 0.306831964850277028 0.049352156279238904
-0.5788641844117004 0.283530231024410662 0.1345491861593415
-0.444049198600884987 -0.28466881002380251 -0.109311591214220002
-0.436675037826710966 -0.212438299352275345 -0.208385949730678505
-0.47153543281275645 -0.301582586467578295 -0.0443151335493797705
-0.497466171093686405 -0.307606939230421039 0.0292491508904449832
-0.491465799438655315 -0.288559243782573027 0.109878259382552024
-0.501456358648643019 -0.257894332201436594 0.177802755677402446
-0.457099706923136784 -0.173461925527187727 -0.255390959448216048
-0.509351393334095515 -0.129021032372138772 -0.284871305677105335
-0.468870929320748642 -0.206377535348253149 0.223723227462405388
-0.477947723946055669 -0.127341411746795807 0.276979157746921778
-0.486010502616343987 -0.0447002499147348339 -0.302016826258268756
-0.479074758245402577 -0.0390171843748746208 0.30044853878182548
-0.470479077904146614 0.0459422821756036645 -0.300107845734360001
-0.480281324136430932 0.0555507429709949652 0.298650816156482979
-0.451057868354753588 0.114855783955672391 -0.282956940519493272
-0.485817694795798505 0.14232825334854915 0.274287150103146304
-0.432816414297196361 0.201126785619768989 -0.226258019638344438
-0.447721202810490437 0.248146352314884022 -0.184500502219355489
-0.486950820876697776 0.242957905653051393 0.193237675383229585
-0.502237102436665528 0.203233215187888644 0.240232774867573773
-0.470477655398283234 0.276675069312769306 -0.137796176605569975
-0.477139965820778555 0.299088138844199103 -0.054754583515564309
-0.47925560077311663 0.300893093597700667 0.0392223012115864786
-0.482029069979149627 0.28041974217167781 0.125066422434460839
-0.443834589130774559 -0.259709222169084042 -0.156178885996353073
-0.380777183555675969 -0.263434711314459391 -0.114843319684827527
-0.384458168137612688 -0.279166644431707134 -0.0469917369338188617
-0.409582900625828139 -0.283893693395855407 0.0506379226021165391
-0.420919603849158275 -0.257157442287457461 0.14657789874408278
-0.354841865690465885 -0.254200520943744901 0.10213133107537771
-0.420017175945058718 -0.117374535959389292 -0.273704379089183825
-0.373695317440040031 -0.14599222760288455 -0.241063746700785231
-0.33720026714287521 -0.220082867709613828 -0.146591288074769205
-0.364128301421501988 -0.222303543454594799 0.163074101878517619
-0.383994323308230023 -0.165825253574296311 0.230400816394425251
-0.321399695062477286 -0.121876214604707545 0.228115895640449762
-0.355973170376841508 -0.0920477165059684493 -0.260607609799584083
-0.398044837099859161 -0.0364449112492934504 -0.284331051322592732
-0.391334014409252751 -0.10032680262796792 0.268159740521912715
-0.391338556101140267 -0.0146747871297388498 0.283158670542707436
-0.385919744915628415 0.0525322857833090823 -0.278354575477444965
-0.398164750525190736 0.0781148619057288746 0.27580787402369189
-0.39506429901674478 0.133405737211425068 -0.258071211854164095
-0.47694658495441189 0.172131406736714704 -0.257354586970372556
-0.345503728446987624 0.159599317419126224 -0.216657412592804605
-0.414426311013752269 0.168545975867082309 0.240373688589436529
-0.340186687881348759 0.159760025739905498 0.211277387205505679
-0.348134462903023023 0.105268337359922831 0.249235039789184376
-0.375384968400475749 0.225172898092096313 -0.174669015510189873
-0.402279651560818352 0.260735753687980853 -0.141716843616778887
-0.33928124160725992 0.244904316916361442 -0.108543529614609807
-0.401625087245830681 0.2315395600750495 0.174121543427360193
-0.39477513775267481 0.267594225666770824 0.103400859626118419
-0.325104728549043931 0.219014882967071611 0.1355260612906595
-0.394031757620325496 0.277587571094025876 -0.0741995408305990423
-0.391204996944019556 0.28295347527558512 0.0158315918140102679
-0.315507434608455872 -0.245517925719552887 -0.0690815028582715679
-0.324205877301527501 -0.256007203172810172 0.0214111133915949291
-0.24539622795417021 -0.193551407939420134 -0.0947809267720948201
-0.304387529405143964 -0.148334298421056887 -0.194207405286790619
-0.254653537666811702 -0.217965878390588536 -0.0137449034534966735
-0.283190713155753393 -0.219165671459810169 0.0844074651832996958
-0.297802448584775559 -0.177619678993126279 0.168085486689203312
-0.235635965912842221 -0.120940984014623887 0.166864274532959544
-0.325148685017554728 -0.0160672510422754933 -0.257830017141882917
-0.294298950867651454 -0.0739436954614971498 -0.229717329880485793
-0.331324716203251934 -0.0562805723434893698 0.257604230073775253
-0.274508550355262004 -0.0443389986147301046 0.224333040476518725
-0.321105600536672475 0.0762278242895203517 -0.24455637842295036
-0.25987995644496642 0.0198057650148307438 -0.218933046441163626
-0.326193378602880224 0.0239327893351873114 0.257301664943396069
-0.272498410056202789 0.0617970876769181887 0.217204015064328265
-0.261948596095766928 0.111253364309865793 -0.193310793859483604
-0.2639497391061707 0.142717797974329708 0.174145532231372524
-0.278829836649436946 0.185333392305364553 -0.140667685846109614
-0.26367863009984327 0.21780683014413682 -0.0463439012793684102
-0.323644548483541905 0.256641754333452821 -0.0215585454536353881
-0.276317374666566085 0.225608659957860447 0.0477833152580753109
-0.33268601552037097 0.255974621358636634 0.0595133931348625494
-0.242029856474163974 0.180809759846069285 0.11221366115739842
-0.229427843073886611 -0.145061720377880093 -0.146579009317553549
-0.159875484838000126 -0.134300512847932429 -0.0946256544409434519
-0.175766735704505822 -0.166951252325550803 -0.0194714537835326482
-0.21303931882732316 -0.186536880604336125 0.0485721998407712893
-0.233589508809629059 -0.172641070752235309 0.116410232747957948
-0.18106465271297198 -0.149151944011290644 0.0808832123538213016
-0.154990965325980085 -0.0843966271115741684 -0.137249840414527313
-0.210380846222047557 -0.0573977985026534188 -0.179722714708174802
-0.148183722821089381 -0.094928228687835195 0.116649394943271104
-0.188845261636368528 -0.0233750726976022262 0.171070670987868878
-0.190027049501639261 0.0441061361216540451 -0.172365174668362098
-0.196334321952840701 0.0738797114172103087 0.167609644942036368
-0.121102248929209011 0.0935236483637927468 -0.110007191222239925
-0.189791370217205685 0.121927213607518889 -0.135424622237880016
-0.139617628551255812 0.131649644768633445 -0.0774017649824017551
-0.205536086665097345 0.133568798416802886 0.140898515786603951
-0.17151365200740179 0.145556457745352308 0.0829199975405643247
-0.160699245549584174 0.10104394300952832 0.127272480678720268
-0.19344084792910321 0.168476679884559916 -0.064456140153275901
-0.203399119187579913 0.182635588887558376 0.0257052335843653453
-0.0918696795437646957 -0.120434365948426075 -0.0454975827534915903
-0.114800050085881872 -0.12857284809992553 0.0335054353820556788
-0.13014787394150204 -0.0134689594284699531 -0.142533892850564475
-0.0724956208520074197 -0.0546102614032635963 -0.0993209180532030611
-0.0243786899343813555 -0.107645531088974428 -0.00677997308073271035
-0.0604689947890159896 -0.0901683683928468371 0.0684060758323367241
-0.1025042896527526 -0.0346310799152340157 0.121887116745329177
-0.0100077189030640199 -0.0511309680396404356 0.0942827088993255513
-0.134997246704947338 0.0583449240546704759 -0.139207861697917934
-0.0579284458217827619 0.0438281307437027173 -0.100658250190449133
-0.132961567656183083 0.0428092696247897031 0.133557838734304962
-0.0594463946328306347 0.0260945741922534412 0.0982340956590037756
-0.0545791766069356615 0.100046835872993387 -0.041729341352769754
-0.126977396330485465 0.137188452449567372 -0.000412857104205974126
-0.0299600225357537255 0.0781889865760765496 0.0511942035312624513
-0.113351239613422 0.0999215230105435503 0.0789590972985320938
0.00862674758294417268 -0.0743482569449631092 -0.0663606218995835273
0.0882612566489383576 -0.0429695025690916069 -0.103335431293836377
0.0527904754894458969 -0.104017650677754842 0.0466037080446019408
0.0358578557493896347 -0.00788199111118266862 0.10127619591742669
0.0427261837937599961 0.0186298871597948869 -0.0979679950313055992
0.0836228650218194813 0.0540492029980861183 0.101898215053324664
0.0521099464921562922 0.0940482168973493238 -0.0520323497678103278
0.050525352075957819 0.101249713115543885 0.0301505650024211924
0.0699327125667699723 -0.1013241917491116 -0.0411288956668142622
0.216579346089703445 -0.185023686566619716 -0.0568562269720129937
0.170033101560698841 -0.1413645830344957 -0.0702715638160147787
0.126004636205104908 -0.131026967403009259 -0.00225898899526797651
0.18839519747079661 -0.170742733326643997 0.0229157994203885822
0.153098818298251116 -0.138248332798358298 0.0800427004383616747
0.130798538251458513 -0.0902914997954398779 -0.096870044352366097
0.191207533615498443 -0.102379724149841617 -0.146010732109270541
0.162677388701892411 -0.0358252977459570729 -0.1542837533683728
0.122797359486706115 -0.0347368441302746134 0.136495961897415308
0.09927516367579034 -0.0808363266284311405 0.109952516659028499
0.192475080121948333 -0.0494762141683459597 0.173312944879689013
0.133518972504722555 0.0366421880240618766 -0.138733001398324673
0.206452342453046334 0.0425841892060626753 -0.182230205815330976
0.145076096711703101 0.0229750013747427803 0.151096013347193275
0.208607048835061509 0.0358670398494981557 0.185557594128274994
0.125177695628136409 0.0945409091951114056 -0.106958632404100501
0.130829496426502712 0.135726791314711659 -0.0560965217494402632
0.174975797135059397 0.144123913479041188 -0.0977964697783674647
0.123088226166568643 0.13933706806895238 0.0122486905427356581
0.136410152124022438 0.12337373402566422 0.0841611471395324745
0.166289539691963806 0.0878873948298853347 0.143245659538190906
0.195714023407101811 0.175474526046547868 -0.0340043900543000113
0.193597092502173912 0.169330438720086296 0.0660025383819056455
0.214328718244168548 -0.154207435095710166 -0.122964146218449588
0.25818777887759764 -0.188813125848027397 -0.12202436028235833
0.262345304798352164 -0.146494727501209732 -0.170628781899487547
0.283372266067152045 -0.225692338681580673 -0.0671922753311027521
0.25764978561632218 -0.217063224027156276 0.0216013252248340067
0.184966174630347951 -0.114184433705362826 0.140343122101297207
0.246302086931051989 -0.182790531578074983 0.110131074836966075
0.265877317187938778 -0.135148046352450146 0.180152449848661411
0.250462305668557927 -0.0557397408940527583 -0.204520187747344789
0.277824954787387945 -0.0545383488801138849 0.222454351949061185
0.279661555189762823 0.0386352261530638133 -0.228945687662415714
0.296394331316767012 0.0624080887599405484 0.231559097618536186
0.19271396363460952 0.11196837596416527 -0.147092852102475496
0.264126379889323526 0.117238142869979967 -0.192753814120689371
0.202439297464650114 0.143381599212187821 0.129434987766018889
0.248461461055233285 0.120499754934887182 0.179961638754145892
0.241889082846796888 0.165082744086476135 -0.129838683928906684
0.289817035443286797 0.21696062481605341 -0.0737504281160585723
0.276916831941416419 0.219785482244832575 0.0554139585480377811
0.270093274813919759 0.180962249059684693 0.139039247904675339
0.321895580736807962 -0.253286342349772542 0.00449165960427337814
0.429621971911952949 -0.280028708755525713 -0.0739955241300503941
0.353479685219407702 -0.254291728632943581 -0.081944468627780237
0.31798962564702743 -0.238185290929874172 0.089351870147130863
0.394354833682509454 -0.278935891801739944 0.0223482659642680534
0.372624018022432224 -0.264501611419760863 0.0879932133220611284
0.319702057294994346 -0.210081661765077393 -0.145498386032165472
0.335674986989424551 -0.147054018121699437 -0.215910083622512572
0.339711788115559576 -0.205779820196520413 0.167077814972492883
0.349676883914277092 -0.148932588247264991 0.226490330529377726
0.320362715268677822 -0.051572260545435511 -0.249539599000587503
0.377765517789392824 -0.118046047596969808 -0.258593870216598853
0.385564487126375255 -0.0480870891346991472 -0.278659862059236707
0.351062458408496036 -0.0990692715511225785 0.25542481590067323
0.33055738870385587 -0.0195724026586493877 0.260472883011392486
0.398697488535077749 -0.0730652756695470279 0.279945228651792
0.333557392548657849 0.0241183415871605057 -0.261607477806045652
0.395852705519669779 0.0416665340675407281 -0.28037090283911531
0.345922499122509441 0.0585412005909075189 0.265005085994482248
0.395150867782808946 0.0143783311639638298 0.286125636738994382
0.335408157636009396 0.100685101909840785 -0.242727872420246127
0.322557729556331996 0.166456251582051851 -0.188706322216087324
0.355907678356517654 0.165664974393280373 0.212119062575325312
0.405792737367000944 0.0860900103705731917 0.280854597183011034
0.368788747935680172 0.216426421949887482 -0.164710807489349187
0.351170833885030842 0.256535307115263289 -0.0798587657448139171
0.412035558896087895 0.278992060097406402 -0.094584979916490633
0.330695365280599285 0.257678090630180989 0.0159121650846383855
0.349678325512124411 0.255421432139039506 0.0971973185704930881
0.35364697023858771 0.228051778153607165 0.147725295344413726
0.396468568196659099 0.285029847884187004 -0.0176758414716965719
0.397646083522545657 0.279303591347012103 0.0723960679055193762
0.383675788367186799 -0.228669052506107751 -0.161780936551124743
0.519729093251863561 -0.286671770552665073 -0.118837185603968234
0.466562093881850881 -0.243090232656746646 -0.180094311299066778
0.508801702916186094 -0.307196758650203017 -0.0336186346411391779
0.482830684654968423 -0.299574659256321707 0.0418897705312098745
0.398439004020261112 -0.247748235312773901 0.152125657317256718
0.451370736412918472 -0.277689061048443597 0.117610653319838027
0.490891850214446535 -0.247768707449807946 0.190603915047015182
0.413797597264110029 -0.179495015609812208 -0.233234977470162197
0.506626203685220489 -0.194178940171938624 -0.245352427627687247
0.451427388978182853 -0.127589898698085707 -0.275634355885215454
0.415517036770469028 -0.147885147582048293 0.258471402732495914
0.426099607301486161 -0.20466537983426919 0.21803564700497749
0.474760409021385943 -0.130245424578701086 0.280248301972460701
0.472459809804525843 -0.0470234077173267082 -0.298893524908037833
0.479765193210029695 -0.0567747038104673141 0.298991984487291806
0.485456087510753365 0.0478566116437042291 -0.298740858497328121
0.481436328718138185 0.034869711167548896 0.303285225788581136
0.405852433066315132 0.138456281576452483 -0.248901728826322971
0.514693005815998084 0.134338353831275265 -0.278186679243870028
0.38580930861567031 0.121727522483981943 0.258938890300843494
0.480076718824517301 0.113506928467533491 0.287252956093980216
0.46227050601913211 0.204375830112060397 -0.223381510737660355
0.419208254446220063 0.253884601236594953 -0.152157697212001619
0.515848486043013477 0.252113577189251481 -0.187627983392780445
0.403310347165659 0.260576044219322456 0.138239556994901786
0.460311584117097494 0.231365068411520158 0.198168111105687272
0.472446641492316077 0.172202298064463466 0.254745500980334827
0.49057683214528669 0.286237071071989924 -0.120004741243677798
0.483305168625872361 0.303276169349150082 -0.0365304784869661739
0.480693991492112782 0.299494348256416965 0.0559468257896893265
0.479234756856450672 0.275522941453954229 0.139025148164986095
0.623304681424625473 -0.287219300296186031 -0.121948066624937373
0.586241191996750177 -0.247108218550017217 -0.190904819980039081
0.590368887794261998 -0.309494825552140862 -0.0472278182721482531
0.579802589966413096 -0.308597316038332736 0.0438492263126564683
0.562053954388003207 -0.281574259508058922 0.137754213753276844
0.581866970215637047 -0.231330172664524575 0.216150840235389829
0.612399227222293896 -0.191447939891414926 -0.249187447798361023
0.547824389013449431 -0.131564176197559557 -0.285648307209705687
0.505466742840022798 -0.193571903811123214 0.247946299974230039
0.571496069236551496 -0.147253802467366274 0.274414797626670481
0.570780550215833071 -0.0462890972518935837 -0.307394170381202703
0.577893009497785326 -0.048759982731899007 0.305136245158017516
0.587360397825323566 0.0464424040632897481 -0.306597599285430733
0.578393623750017571 0.0460128048097729406 0.307228228091231348
0.62467626332791526 0.122514366433097224 -0.285059067293647717
0.576197122403872442 0.130636840399777993 0.28613941202674853
0.587108544804180732 0.195653897231652496 -0.243615146463425025
0.622319515661940215 0.249282464073072918 -0.191255324512475844
0.570787508036600721 0.246820884247961253 0.200112105983049515
0.570962863988324409 0.19657667106230739 0.249226127179679652
0.589102772188896728 0.286214404501389352 -0.131415050839358338
0.580726073170153234 0.307608926102656999 -0.0463980475211627566
0.578046879369457978 0.30696618331515263 0.0470447917733351345
0.575593781990971776 0.284131209848423993 0.13343477692843253
0.72100783604308516 -0.273484381283791711 -0.0941786227223947309
0.711863063800111329 -0.210629878438988949 -0.197978601978511692
0.671579057192771667 -0.299507079142362909 -0.0563557741739886126
0.671593144512767415 -0.301311167019730264 0.0222847503245726837
0.6624794987031567 -0.285355189108282614 0.111015188607625978
0.649425806260050753 -0.256999028410157593 0.176692661289590686
0.70844994120216731 -0.160034526440281932 -0.248402497437672815
0.644901810831026712 -0.125613826895673242 -0.283434431363717709
0.677165727212078683 -0.206350546734939078 0.218347440103543261
0.674724480706436869 -0.124503092188069459 0.271205033427939612
0.665897186681792985 -0.0432203592530806882 -0.299730358474603831
0.676472830747718357 -0.0348813307164342404 0.294759161962360294
0.685037446143083151 0.041561940270223835 -0.295937461085849229
0.673244713597861089 0.0579002635864919318 0.294139842132260909
0.723075438341218568 0.096862281281230686 -0.273370162827303642
0.664523362804176343 0.14317367615193044 0.271346789720145254
0.712967482294845634 0.198657741135883747 -0.210948807787775333
0.715336105733786809 0.246418409530498733 -0.163461183952044314
0.661485769429273285 0.241663888067020327 0.191284368574960478
0.647714228899523126 0.20285761226097862 0.238842962746086129
0.681119719262754053 0.275873756468352771 -0.131680721471148315
0.676135012428698445 0.295423496499775395 -0.0545351493856849126
0.67433048065515977 0.296977933709831998 0.0362846573428347793
0.669134809186480606 0.277375522535885821 0.121954311288459238
0.705707862629916582 -0.252859005450142449 -0.14993453273504373
0.791443358774738259 -0.231496054005633389 -0.100301613664572117
0.744109280609217993 -0.278089537871986925 -0.0139400368887211672
0.738559221031502067 -0.272272679927304972 0.0753210681646651337
0.710166179600019487 -0.2554076168842907 0.149498380079201326
0.756003167592377512 -0.232473188122437974 0.142327373428268539
0.717888340473868514 -0.106436395071087209 -0.27385178929664955
0.792285565803936054 -0.140712164871120066 -0.204417636819339915
0.780898092854077297 -0.215334211107862994 -0.146724962608085208
0.803783057061605466 -0.19851258214629916 0.141119204300591577
0.750476179154297096 -0.171046728266257275 0.215082211505432608
0.805219205927934611 -0.14922362076247192 0.196016919978021703
0.777011478201518169 -0.0954866015255426415 -0.245817668101375592
0.746150659924356141 -0.036974002204605512 -0.277335437971202969
0.768835941081846497 -0.095214688595144592 0.245717110792883997
0.75765342366092947 -0.00521882230779300866 0.270057001869850655
0.758094644313244581 0.031651403836555056 -0.274040218284346049
0.744223009959256276 0.0860414899967185953 0.265500673991182712
0.789596405281766778 0.103462009946512279 -0.234015416178353863
0.705980971848740646 0.150942599347533707 -0.252428766688193529
0.780340618245079165 0.147994129707899602 -0.216128464614647048
0.716177402423900489 0.171993947837893735 0.236479036126941322
0.823962470463677654 0.124715150156833737 0.191883282957053231
0.775558582174567412 0.14131779827496399 0.221597298460728204
0.792010706449089108 0.206097058712224723 -0.144140184652294528
0.735126701941659744 0.264142013091349381 -0.125880214274125268
0.780080281872087777 0.243587406681662844 -0.103429954699911439
0.735135131941190734 0.22346604513910362 0.174388291800864986
0.750489659502374784 0.257012486115563765 0.100130385459737001
0.793471459186664396 0.198724036861511244 0.154163306609768763
0.749142738983300527 0.271568664718287389 -0.0704817477584892549
0.755914757741815047 0.271746226052747564 0.0152770699301710711
0.80122235168604361 -0.240027303964286592 -0.0299479415867217012
0.793109978907968305 -0.242320055124390171 0.0582012095356013032
0.812227238532927776 -0.171222241262729974 -0.160678794474814368
0.848035797132244751 -0.173072750177595436 -0.105309070464810209
0.858491819471967843 -0.18428165008978406 -0.0341657190245085243
0.850794589508522714 -0.185997417580437835 0.0602791381719507968
0.844600961723869004 -0.15577314432373815 0.142679620009028701
0.878121922190902349 -0.118625270338836269 0.115613431315227402
0.805111720098842354 -0.0171850319454790387 -0.244035086158041314
0.84478362361637549 -0.0590363721509476191 -0.19440736611774212
0.868340290565988937 -0.105177404591143275 -0.132745982731063361
0.843851119577413211 -0.102015836390740744 0.182985582856263235
0.823652692454523772 -0.0302660854402076497 0.224038986631047432
0.87542824389056817 -0.0399693197723011706 0.16252523593234669
0.792681293008115739 0.0530776168344337801 -0.249399007080348872
0.850702670571147013 0.0356904871158973194 -0.194538230051186867
0.803282903880452759 0.0561887373339168758 0.237335168589823287
0.857253903340971957 0.0440880780401974801 0.186336682075524396
0.84511993068091007 0.110947053918655836 -0.176259371807952286
0.810316901525225175 0.163724324043583974 -0.173834083551962365
0.858915011741558154 0.149029086701349456 -0.119706464384483749
0.840806300406230056 0.166744758808641202 0.135707386672884511
0.867640043205437306 0.161763620663968821 0.0870961564526157167
0.871328494391299557 0.109416965252129336 0.137160368084606049
0.845320473672029227 0.194594361766892154 -0.0682887999833436676
0.809734187164642849 0.238492932357387472 -0.0247940511023763098
0.864640430210809163 0.181628389270188678 0.0163558148804582512
0.817181753890071638 0.220771125705950505 0.0701667692460777176
0.892988392534981634 -0.122530852862495487 -0.0436792098226583408
0.892262420471669815 -0.128034226934250456 0.0406826431639799035
0.890884581557468636 -0.013916842788955875 -0.129669095120208633
0.910698138563628579 -0.0421224368375651553 -0.0487264088539669932
0.913119809326260135 -0.0652702938783190634 0.0250361577641717327
0.902076975172257822 -0.0506959220861828153 0.0974434964461950853
0.886769928686221065 0.0744064090640842168 -0.123859189733767278
0.909927150788681915 0.048528892182248963 -0.0455107704889732567
0.914630931944593106 0.0140842601680690963 0.0398358853976853028
0.894153276991904167 0.0361312236656990277 0.12243224319351953
0.888243004195866881 0.131894425736364618 -0.0480542258032086445
0.895906447139613982 0.107840892774196853 0.0485346745197777832
3 2 1 0
3 3 0 1
3 1 4 5
3 5 3 1
3 7 6 14
3 6 7 2
3 0 6 2
3 9 6 0
3 10 0 3
3 9 0 10
3 3 5 37
3 12 3 11
3 10 3 12
3 13 12 11
3 7 14 15
3 15 8 7
3 16 6 9
3 14 6 16
3 17 9 10
3 16 9 17
3 18 10 12
3 17 10 18
3 12 13 19
3 12 19 25
3 15 14 21
3 21 20 15
3 14 22 21
3 16 22 14
3 23 22 16
3 16 17 23
3 18 25 53
3 23 18 24
3 17 18 23
3 25 18 12
3 26 21 22
3 22 23 27
3 27 26 22
3 27 23 24
3 30 29 32
3 31 28 30
3 30 32 31
3 33 31 32
3 35 34 40
3 35 30 28
3 28 34 35
3 2 34 28
3 1 2 28
3 1 28 4
3 4 28 31
3 38 37 5
3 4 33 69
3 69 5 4
3 31 33 4
3 39 37 38
3 42 41 40
3 40 41 36
3 40 36 35
3 8 40 34
3 7 8 34
3 7 34 2
3 37 11 3
3 44 43 13
3 44 13 11
3 39 44 11
3 37 39 11
3 45 43 44
3 42 40 8
3 42 46 47
3 15 46 8
3 8 46 42
3 48 19 13
3 13 43 48
3 43 45 49
3 43 49 48
3 50 47 46
3 52 50 20
3 20 51 52
3 50 46 20
3 46 15 20
3 21 51 20
3 53 24 18
3 54 53 25
3 19 55 84
3 84 25 19
3 48 55 19
3 55 48 49
3 56 52 51
3 57 58 87
3 57 56 51
3 51 26 57
3 51 21 26
3 27 59 26
3 26 59 57
3 60 59 27
3 60 27 24
3 61 60 24
3 53 61 24
3 61 53 54
3 58 57 59
3 59 62 58
3 62 59 63
3 63 59 60
3 66 65 29
3 29 30 64
3 29 64 66
3 67 29 65
3 29 68 32
3 67 68 29
3 70 69 33
3 32 70 33
3 68 70 32
3 71 69 70
3 74 73 72
3 72 73 66
3 72 66 64
3 36 72 64
3 35 36 64
3 35 64 30
3 69 38 5
3 76 75 39
3 76 39 38
3 71 76 38
3 69 71 38
3 77 75 76
3 74 72 41
3 42 74 41
3 78 74 42
3 41 72 36
3 75 44 39
3 45 44 75
3 77 45 75
3 79 45 77
3 47 78 42
3 47 80 78
3 79 49 45
3 81 49 79
3 47 50 82
3 82 83 80
3 80 47 82
3 52 82 50
3 84 54 25
3 85 84 55
3 55 49 81
3 81 85 55
3 86 83 82
3 88 86 87
3 87 86 56
3 86 82 56
3 82 52 56
3 87 56 57
3 89 60 61
3 90 89 61
3 90 61 54
3 91 90 54
3 84 91 54
3 91 84 85
3 92 88 87
3 92 87 58
3 58 62 93
3 93 92 58
3 94 62 63
3 94 93 62
3 63 60 89
3 95 63 89
3 94 63 95
3 95 89 90
3 97 96 65
3 97 65 66
3 65 98 67
3 96 98 65
3 67 99 68
3 98 99 67
3 68 100 70
3 99 100 68
3 71 70 100
3 71 100 101
3 103 102 73
3 103 73 74
3 66 73 97
3 97 73 102
3 101 104 71
3 71 104 76
3 77 76 104
3 77 104 105
3 78 103 74
3 78 106 103
3 105 79 77
3 107 79 105
3 80 106 78
3 80 108 106
3 107 81 79
3 109 81 107
3 83 108 80
3 83 110 108
3 109 85 81
3 111 85 109
3 112 110 83
3 112 83 86
3 86 88 112
3 112 88 113
3 115 114 90
3 90 91 115
3 91 85 111
3 91 111 115
3 116 113 88
3 116 88 92
3 117 92 93
3 117 116 92
3 118 93 94
3 118 117 93
3 119 94 95
3 119 118 94
3 95 90 114
3 95 114 119
3 144 96 97
3 97 121 144
3 96 122 98
3 120 122 96
3 98 123 99
3 122 123 98
3 99 124 100
3 123 124 99
3 100 124 125
3 125 101 100
3 127 126 102
3 127 102 103
3 97 102 121
3 121 102 126
3 125 128 101
3 101 128 105
3 105 104 101
3 105 128 129
3 106 127 103
3 106 130 127
3 129 107 105
3 131 107 129
3 108 130 106
3 108 132 130
3 131 109 107
3 133 109 131
3 110 132 108
3 110 134 132
3 133 111 109
3 135 111 133
3 163 110 112
3 163 112 113
3 113 136 163
3 136 113 137
3 139 138 114
3 114 115 139
3 115 111 135
3 115 135 139
3 140 137 113
3 140 113 116
3 141 116 117
3 141 140 116
3 142 117 118
3 142 141 117
3 143 118 119
3 143 142 118
3 119 114 138
3 119 138 143
3 144 120 96
3 120 144 145
3 146 120 145
3 122 120 146
3 122 147 123
3 146 147 122
3 147 149 148
3 124 147 148
3 123 147 124
3 148 125 124
3 127 150 126
3 150 151 126
3 126 151 121
3 121 151 179
3 152 144 121
3 144 152 145
3 149 153 148
3 154 153 182
3 153 154 128
3 148 153 128
3 125 148 128
3 154 129 128
3 157 156 150
3 150 127 130
3 130 157 150
3 150 156 151
3 155 158 154
3 129 154 158
3 158 159 131
3 131 129 158
3 132 157 130
3 132 160 157
3 159 133 131
3 161 133 159
3 134 163 162
3 160 134 162
3 132 134 160
3 162 163 136
3 167 166 165
3 161 167 165
3 135 161 165
3 133 161 135
3 163 134 110
3 169 168 137
3 137 168 136
3 168 164 136
3 136 164 162
3 169 170 168
3 173 172 171
3 173 171 166
3 166 171 165
3 171 138 165
3 138 139 165
3 165 139 135
3 140 169 137
3 174 170 169
3 140 174 169
3 141 174 140
3 175 141 142
3 175 174 141
3 143 171 172
3 172 175 142
3 142 143 172
3 171 143 138
3 145 176 146
3 177 147 146
3 177 146 176
3 177 149 147
3 152 179 200
3 179 152 121
3 145 152 176
3 176 152 178
3 178 180 176
3 176 180 177
3 177 180 181
3 177 181 149
3 181 153 149
3 181 182 153
3 182 155 154
3 155 182 183
3 157 184 156
3 184 185 156
3 185 151 156
3 185 179 151
3 158 155 186
3 155 187 186
3 155 183 187
3 186 159 158
3 160 188 184
3 160 184 157
3 185 184 189
3 189 184 188
3 186 187 190
3 190 187 191
3 190 161 159
3 190 159 186
3 162 188 160
3 162 164 188
3 188 164 192
3 192 189 188
3 190 191 167
3 191 166 167
3 191 193 166
3 190 167 161
3 194 192 164
3 194 164 168
3 196 195 170
3 170 195 194
3 194 168 170
3 198 197 196
3 196 197 195
3 172 173 198
3 173 197 198
3 173 199 197
3 173 166 193
3 173 193 199
3 174 196 170
3 196 174 175
3 196 175 198
3 198 175 172
3 200 178 152
3 178 200 201
3 201 220 202
3 180 178 202
3 180 203 181
3 202 203 180
3 203 205 204
3 204 182 181
3 181 203 204
3 204 183 182
3 207 206 200
3 179 207 200
3 185 207 179
3 200 206 201
3 205 208 183
3 183 204 205
3 209 183 208
3 187 183 209
3 189 207 185
3 189 210 207
3 209 191 187
3 211 191 209
3 213 212 228
3 210 192 213
3 189 192 210
3 213 214 212
3 217 216 215
3 211 217 215
3 193 211 215
3 191 211 193
3 194 213 192
3 218 214 213
3 194 218 213
3 195 218 194
3 219 195 197
3 219 218 195
3 199 215 216
3 219 199 216
3 197 199 219
3 215 199 193
3 202 178 201
3 202 221 205
3 221 202 220
3 205 203 202
3 207 222 206
3 222 223 206
3 206 223 201
3 220 223 236
3 220 201 223
3 220 224 221
3 221 224 225
3 225 227 226
3 225 226 208
3 221 225 208
3 205 221 208
3 226 209 208
3 210 228 222
3 210 222 207
3 223 222 229
3 229 222 228
3 226 227 231
3 231 230 226
3 230 211 209
3 230 209 226
3 228 210 213
3 233 232 214
3 214 232 212
3 232 229 212
3 229 228 212
3 235 234 233
3 233 234 232
3 234 235 231
3 231 235 230
3 235 216 217
3 217 230 235
3 230 217 211
3 218 233 214
3 233 218 219
3 233 219 216
3 216 235 233
3 236 224 220
3 236 223 240
3 238 227 225
3 224 236 244
3 225 224 238
3 227 238 254
3 223 229 240
3 240 237 236
3 239 231 227
3 239 241 234
3 242 240 229
3 242 229 232
3 243 232 234
3 243 242 232
3 234 231 239
3 234 241 243
3 246 245 248
3 247 244 250
3 246 248 247
3 249 247 248
3 252 251 250
3 250 251 246
3 250 246 247
3 237 250 244
3 236 237 244
3 244 238 224
3 238 244 247
3 254 253 239
3 254 239 227
3 249 254 238
3 247 249 238
3 253 254 273
3 252 250 237
3 252 256 257
3 240 256 237
3 237 256 252
3 258 241 253
3 253 241 239
3 255 259 258
3 258 253 255
3 256 260 280
3 262 260 261
3 261 260 242
3 260 256 240
3 240 242 260
3 243 263 242
3 242 263 261
3 264 263 243
3 264 243 241
3 265 264 241
3 258 265 241
3 265 258 259
3 266 262 261
3 266 261 263
3 266 263 267
3 267 263 264
3 270 269 268
3 245 246 268
3 269 245 268
3 271 245 269
3 245 272 248
3 271 272 245
3 274 273 249
3 248 274 249
3 272 274 248
3 275 273 274
3 270 268 251
3 251 252 276
3 276 270 251
3 251 268 246
3 273 254 249
3 273 255 253
3 275 255 273
3 277 255 275
3 257 276 252
3 257 278 276
3 277 259 255
3 279 259 277
3 280 257 256
3 281 257 280
3 278 257 281
3 262 280 260
3 282 264 265
3 283 282 265
3 259 283 265
3 279 283 259
3 284 281 280
3 284 280 262
3 266 284 262
3 285 284 266
3 286 266 267
3 286 285 266
3 267 264 282
3 287 267 282
3 286 267 287
3 287 282 283
3 290 289 292
3 288 292 293
3 292 288 290
3 293 291 288
3 294 269 270
3 270 295 294
3 288 271 290
3 271 294 290
3 271 269 294
3 271 288 272
3 272 288 291
3 291 293 325
3 291 296 274
3 274 272 291
3 275 274 296
3 275 296 297
3 300 299 298
3 299 295 298
3 295 276 298
3 295 270 276
3 302 277 301
3 277 297 301
3 277 275 297
3 303 302 301
3 300 298 304
3 300 304 305
3 278 304 298
3 298 276 278
3 306 279 302
3 302 279 277
3 302 303 307
3 302 307 306
3 308 305 304
3 304 278 308
3 308 278 281
3 281 309 308
3 306 311 340
3 279 306 340
3 310 283 279
3 311 306 307
3 309 281 284
3 309 284 285
3 313 314 343
3 312 285 313
3 285 312 309
3 286 315 285
3 285 315 313
3 315 286 316
3 286 317 316
3 286 287 317
3 287 283 310
3 287 310 317
3 318 314 313
3 318 313 315
3 318 315 319
3 319 315 316
3 322 321 289
3 289 290 320
3 289 320 322
3 323 289 321
3 289 324 292
3 323 324 289
3 326 325 293
3 292 326 293
3 324 326 292
3 327 325 326
3 330 329 328
3 328 329 322
3 328 322 320
3 295 328 320
3 294 295 320
3 294 320 290
3 325 296 291
3 332 331 297
3 332 297 296
3 332 296 325
3 325 327 332
3 331 332 360
3 330 328 299
3 300 330 299
3 334 330 300
3 299 328 295
3 331 301 297
3 303 301 331
3 333 303 331
3 335 303 333
3 305 334 300
3 305 336 334
3 335 307 303
3 337 307 335
3 305 308 338
3 338 339 336
3 336 305 338
3 309 338 308
3 340 310 279
3 341 340 311
3 311 307 337
3 337 341 311
3 342 339 338
3 344 342 343
3 343 342 312
3 342 338 312
3 338 309 312
3 343 312 313
3 345 316 317
3 346 345 317
3 346 317 310
3 347 346 310
3 340 347 310
3 347 340 341
3 348 344 343
3 348 343 314
3 314 318 349
3 349 348 314
3 350 318 319
3 350 349 318
3 319 316 345
3 351 319 345
3 350 319 351
3 351 345 346
3 353 352 321
3 353 321 322
3 321 354 323
3 352 354 321
3 323 355 324
3 354 355 323
3 324 356 326
3 355 356 324
3 327 326 356
3 327 356 357
3 359 358 329
3 359 329 330
3 322 329 353
3 353 329 358
3 357 360 327
3 327 360 332
3 360 333 331
3 333 360 361
3 334 359 330
3 334 362 359
3 361 335 333
3 363 335 361
3 336 362 334
3 336 364 362
3 363 337 335
3 365 337 363
3 339 364 336
3 339 366 364
3 365 341 337
3 367 341 365
3 368 366 339
3 368 339 342
3 342 344 368
3 368 344 369
3 371 370 346
3 346 347 371
3 347 341 367
3 347 367 371
3 372 369 344
3 372 344 348
3 373 348 349
3 373 372 348
3 374 349 350
3 374 373 349
3 375 350 351
3 375 374 350
3 351 346 370
3 351 370 375
3 400 352 353
3 353 377 400
3 352 378 354
3 376 378 352
3 354 379 355
3 378 379 354
3 355 380 356
3 379 380 355
3 356 380 381
3 381 357 356
3 383 382 358
3 383 358 359
3 353 358 377
3 377 358 382
3 381 384 357
3 357 384 361
3 361 360 357
3 361 384 385
3 362 383 359
3 362 386 383
3 385 363 361
3 387 363 385
3 364 386 362
3 364 388 386
3 387 365 363
3 389 365 387
3 366 388 364
3 366 390 388
3 389 367 365
3 391 367 389
3 419 366 368
3 368 392 419
3 368 369 392
3 392 369 393
3 395 394 370
3 370 371 395
3 371 367 391
3 371 391 395
3 396 393 369
3 396 369 372
3 397 372 373
3 397 396 372
3 398 373 374
3 398 397 373
3 399 374 375
3 399 398 374
3 375 370 394
3 375 394 399
3 400 376 352
3 376 400 401
3 376 401 432
3 378 376 402
3 379 378 402
3 402 403 379
3 403 405 404
3 380 403 404
3 379 403 380
3 404 381 380
3 383 406 382
3 382 406 412
3 382 407 377
3 377 407 434
3 408 400 377
3 400 408 401
3 405 409 410
3 409 411 410
3 410 384 405
3 384 404 405
3 381 404 384
3 410 385 384
3 413 440 412
3 406 383 386
3 386 413 406
3 412 407 382
3 411 414 410
3 385 410 414
3 414 415 387
3 387 385 414
3 388 413 386
3 388 416 413
3 415 389 387
3 417 389 415
3 390 419 418
3 390 418 446
3 388 390 416
3 419 420 418
3 423 422 429
3 417 423 421
3 391 417 421
3 389 417 391
3 419 390 366
3 393 425 426
3 393 424 392
3 392 424 451
3 420 419 392
3 426 424 393
3 429 428 427
3 429 427 423
3 427 421 423
3 427 394 421
3 394 395 421
3 421 395 391
3 396 425 393
3 430 426 425
3 396 430 425
3 397 430 396
3 431 397 398
3 431 430 397
3 399 427 428
3 428 431 398
3 398 399 428
3 427 399 394
3 432 402 376
3 433 403 402
3 433 402 432
3 433 405 403
3 434 408 377
3 434 435 408
3 408 435 401
3 435 436 401
3 436 432 401
3 432 436 437
3 437 433 432
3 437 439 438
3 437 438 409
3 433 437 409
3 405 433 409
3 438 411 409
3 412 406 413
3 440 441 412
3 412 441 407
3 441 442 407
3 442 434 407
3 434 442 435
3 439 443 438
3 443 445 444
3 443 444 414
3 443 414 411
3 411 438 443
3 444 415 414
3 416 446 440
3 416 440 413
3 441 440 447
3 447 440 446
3 444 445 449
3 449 448 444
3 448 417 415
3 448 415 444
3 446 416 390
3 451 450 420
3 420 450 418
3 450 447 418
3 447 446 418
3 451 452 450
3 455 454 453
3 455 453 422
3 422 449 455
3 422 448 449
3 422 423 448
3 448 423 417
3 451 420 392
3 457 456 426
3 426 456 424
3 456 452 424
3 452 451 424
3 459 458 457
3 457 458 456
3 458 459 454
3 454 459 453
3 459 428 429
3 429 453 459
3 453 429 422
3 430 457 426
3 457 430 431
3 457 431 459
3 459 431 428
3 435 460 436
3 461 437 436
3 461 436 460
3 461 439 437
3 441 462 442
3 460 435 442
3 442 462 463
3 463 460 442
3 460 464 461
3 460 463 464
3 439 465 445
3 461 465 439
3 464 465 461
3 445 443 439
3 447 466 462
3 447 462 441
3 462 467 463
3 462 466 467
3 463 468 464
3 463 467 468
3 465 464 468
3 468 469 465
3 469 449 445
3 469 445 465
3 450 466 447
3 466 450 452
3 470 466 452
3 467 466 470
3 467 471 468
3 467 470 471
3 471 454 455
3 469 471 455
3 468 471 469
3 469 455 449
3 456 470 452
3 470 456 458
3 470 458 471
3 471 458 454
