ply
format ascii 1.0
element vertex 472
property double x
property double y
property double z
element face 940
property list uchar int vertex_indices
end_header
-0.907814264297485352 -0.15789473684210531 -0.0526315789473684736
-0.894736842105263164 -0.179671387923391324 -0.0526315789473684736
-0.894736842105263164 -0.15789473684210531 -0.0965628372995477324
-0.907814264297485352 -0.15789473684210531 0.0526315789473683626
-0.894736842105263164 -0.179671387923391324 0.0526315789473683626
-0.894736842105263164 -0.15789473684210531 0.0965628372995477324
-0.907814264297485352 -0.0526315789473684736 -0.15789473684210531
-0.894736842105263164 -0.0965628372995477324 -0.15789473684210531
-0.894736842105263164 -0.0526315789473684736 -0.179671387923391324
-0.940744343556855878 -0.0526315789473684736 -0.0526315789473684736
-0.940744343556855878 -0.0526315789473684736 0.0526315789473683626
-0.894736842105263164 -0.0965628372995477324 0.15789473684210531
-0.907814264297485352 -0.0526315789473684736 0.15789473684210531
-0.894736842105263164 -0.0526315789473684736 0.179671438116776327
-0.907814264297485352 0.0526315789473683626 -0.15789473684210531
-0.894736842105263164 0.0526315789473683626 -0.179671387923391324
-0.940744343556855878 0.0526315789473683626 -0.0526315789473684736
-0.940744343556855878 0.0526315789473683626 0.0526315789473683626
-0.907814264297485352 0.0526315789473683626 0.15789473684210531
-0.894736842105263164 0.0526315789473683626 0.179671438116776327
-0.894736842105263164 0.0965628372995477324 -0.15789473684210531
-0.894736842105263164 0.15789473684210531 -0.0965628372995477324
-0.907814264297485352 0.15789473684210531 -0.0526315789473684736
-0.907814264297485352 0.15789473684210531 0.0526315789473683626
-0.894736842105263164 0.15789473684210531 0.0965628372995477324
-0.894736842105263164 0.0965628372995477324 0.15789473684210531
-0.894736842105263164 0.179671438116776327 -0.0526315789473684736
-0.894736842105263164 0.179671438116776327 0.0526315789473683626
-0.81390291766116496 -0.263157894736842146 -0.0526315789473684736
-0.789473684210526327 -0.28173672525506277 -0.0526315789473684736
-0.789473684210526327 -0.263157894736842146 -0.109447780408357342
-0.81390291766116496 -0.263157894736842146 0.0526315789473683626
-0.789473684210526327 -0.28173672525506277 0.0526315789473683626
-0.789473684210526327 -0.263157894736842146 0.109447780408357342
-0.863199008138556212 -0.15789473684210531 -0.15789473684210531
-0.789473684210526327 -0.238697503742418826 -0.15789473684210531
-0.789473684210526327 -0.15789473684210531 -0.238697503742418826
-0.863199008138556212 -0.15789473684210531 0.15789473684210531
-0.789473684210526327 -0.238697503742418826 0.15789473684210531
-0.789473684210526327 -0.15789473684210531 0.2386974535490336
-0.81390291766116496 -0.0526315789473684736 -0.263157894736842146
-0.789473684210526327 -0.109447780408357342 -0.263157894736842146
-0.789473684210526327 -0.0526315789473684736 -0.28173672525506277
-0.81390291766116496 -0.0526315789473684736 0.263157894736842035
-0.789473684210526327 -0.109447780408357342 0.263157894736842035
-0.789473684210526327 -0.0526315789473684736 0.281736675061677655
-0.81390291766116496 0.0526315789473683626 -0.263157894736842146
-0.789473684210526327 0.0526315789473683626 -0.28173672525506277
-0.81390291766116496 0.0526315789473683626 0.263157894736842035
-0.789473684210526327 0.0526315789473683626 0.281736675061677655
-0.789473684210526327 0.109447780408357342 -0.263157894736842146
-0.863199008138556212 0.15789473684210531 -0.15789473684210531
-0.789473684210526327 0.15789473684210531 -0.238697503742418826
-0.863199008138556212 0.15789473684210531 0.15789473684210531
-0.789473684210526327 0.15789473684210531 0.2386974535490336
-0.789473684210526327 0.109447780408357342 0.263157894736842035
-0.789473684210526327 0.2386974535490336 -0.15789473684210531
-0.81390291766116496 0.263157894736842035 -0.0526315789473684736
-0.789473684210526327 0.263157894736842035 -0.109447780408357342
-0.81390291766116496 0.263157894736842035 0.0526315789473683626
-0.789473684210526327 0.263157894736842035 0.109447780408357342
-0.789473684210526327 0.2386974535490336 0.15789473684210531
-0.789473684210526327 0.281736675061677655 -0.0526315789473684736
-0.789473684210526327 0.281736675061677655 0.0526315789473683626
-0.747475247634084683 -0.263157894736842146 -0.15789473684210531
-0.684210526315789491 -0.290093170969109804 -0.15789473684210531
-0.684210526315789491 -0.263157894736842146 -0.198735739055432847
-0.684210526315789491 -0.325002168354235232 -0.0526315789473684736
-0.684210526315789491 -0.325002168354235232 0.0526315789473683626
-0.747475247634084683 -0.263157894736842146 0.15789473684210531
-0.684210526315789491 -0.290093170969109804 0.15789473684210531
-0.684210526315789491 -0.263157894736842146 0.198735688862047732
-0.747475247634084683 -0.15789473684210531 -0.263157894736842146
-0.684210526315789491 -0.198735739055432847 -0.263157894736842146
-0.684210526315789491 -0.15789473684210531 -0.290093170969109804
-0.747475247634084683 -0.15789473684210531 0.263157894736842035
-0.684210526315789491 -0.198735739055432847 0.263157894736842035
-0.684210526315789491 -0.15789473684210531 0.290093170969109693
-0.684210526315789491 -0.0526315789473684736 -0.325002168354235232
-0.684210526315789491 -0.0526315789473684736 0.325002168354235232
-0.684210526315789491 0.0526315789473683626 -0.325002168354235232
-0.684210526315789491 0.0526315789473683626 0.325002168354235232
-0.747475247634084683 0.15789473684210531 -0.263157894736842146
-0.684210526315789491 0.15789473684210531 -0.290093170969109804
-0.747475247634084683 0.15789473684210531 0.263157894736842035
-0.684210526315789491 0.15789473684210531 0.290093170969109693
-0.684210526315789491 0.198735688862047732 -0.263157894736842146
-0.747475247634084683 0.263157894736842035 -0.15789473684210531
-0.684210526315789491 0.263157894736842035 -0.198735739055432847
-0.747475247634084683 0.263157894736842035 0.15789473684210531
-0.684210526315789491 0.263157894736842035 0.198735688862047732
-0.684210526315789491 0.198735688862047732 0.263157894736842035
-0.684210526315789491 0.290093170969109693 -0.15789473684210531
-0.684210526315789491 0.325002168354235232 -0.0526315789473684736
-0.684210526315789491 0.325002168354235232 0.0526315789473683626
-0.684210526315789491 0.290093170969109693 0.15789473684210531
-0.578947368421052655 -0.304469961869089256 -0.15789473684210531
-0.578947368421052655 -0.263157894736842146 -0.220635163156609804
-0.578947368421052655 -0.339714753000359804 -0.0526315789473684736
-0.578947368421052655 -0.339714753000359804 0.0526315789473683626
-0.578947368421052655 -0.304469961869089256 0.15789473684210531
-0.578947368421052655 -0.263157894736842146 0.220635163156609693
-0.578947368421052655 -0.220635163156609804 -0.263157894736842146
-0.578947368421052655 -0.15789473684210531 -0.304469961869089256
-0.578947368421052655 -0.220635163156609804 0.263157894736842035
-0.578947368421052655 -0.15789473684210531 0.304469961869089145
-0.578947368421052655 -0.0526315789473684736 -0.339714753000359804
-0.578947368421052655 -0.0526315789473684736 0.339714753000359693
-0.578947368421052655 0.0526315789473683626 -0.339714753000359804
-0.578947368421052655 0.0526315789473683626 0.339714753000359693
-0.578947368421052655 0.15789473684210531 -0.304469961869089256
-0.578947368421052655 0.15789473684210531 0.304469961869089145
-0.578947368421052655 0.220635163156609693 -0.263157894736842146
-0.578947368421052655 0.263157894736842035 -0.220635163156609804
-0.578947368421052655 0.263157894736842035 0.220635163156609693
-0.578947368421052655 0.220635163156609693 0.263157894736842035
-0.578947368421052655 0.304469961869089145 -0.15789473684210531
-0.578947368421052655 0.339714753000359693 -0.0526315789473684736
-0.578947368421052655 0.339714753000359693 0.0526315789473683626
-0.578947368421052655 0.304469961869089145 0.15789473684210531
-0.473684210526315819 -0.293059449446828824 -0.15789473684210531
-0.473684210526315819 -0.263157894736842146 -0.203385704442074489
-0.473684210526315819 -0.327997358221756796 -0.0526315789473684736
-0.473684210526315819 -0.327997358221756796 0.0526315789473683626
-0.473684210526315819 -0.293059449446828824 0.15789473684210531
-0.473684210526315819 -0.263157894736842146 0.203385704442074378
-0.473684210526315819 -0.203385704442074489 -0.263157894736842146
-0.473684210526315819 -0.15789473684210531 -0.293059449446828824
-0.473684210526315819 -0.203385704442074489 0.263157894736842035
-0.473684210526315819 -0.15789473684210531 0.293059499640213827
-0.473684210526315819 -0.0526315789473684736 -0.327997358221756796
-0.473684210526315819 -0.0526315789473684736 0.3279974084151418
-0.473684210526315819 0.0526315789473683626 -0.327997358221756796
-0.473684210526315819 0.0526315789473683626 0.3279974084151418
-0.473684210526315819 0.15789473684210531 -0.293059449446828824
-0.473684210526315819 0.15789473684210531 0.293059499640213827
-0.473684210526315819 0.203385704442074378 -0.263157894736842146
-0.473684210526315819 0.263157894736842035 -0.203385704442074489
-0.473684210526315819 0.263157894736842035 0.203385704442074378
-0.473684210526315819 0.203385704442074378 0.263157894736842035
-0.473684210526315819 0.293059499640213827 -0.15789473684210531
-0.473684210526315819 0.3279974084151418 -0.0526315789473684736
-0.473684210526315819 0.3279974084151418 0.0526315789473683626
-0.473684210526315819 0.293059499640213827 0.15789473684210531
-0.373763636538856914 -0.263157894736842146 -0.15789473684210531
-0.368421052631578982 -0.263157894736842146 -0.152126713802939961
-0.368421052631578982 -0.295239749707673749 -0.0526315789473684736
-0.368421052631578982 -0.295239749707673749 0.0526315789473683626
-0.373763636538856914 -0.263157894736842146 0.15789473684210531
-0.368421052631578982 -0.263157894736842146 0.15212671380293985
-0.373763636538856914 -0.15789473684210531 -0.263157894736842146
-0.368421052631578982 -0.15789473684210531 -0.260224342346191406
-0.368421052631578982 -0.260224342346191406 -0.15789473684210531
-0.368421052631578982 -0.260224342346191406 0.15789473684210531
-0.373763636538856914 -0.15789473684210531 0.263157894736842035
-0.368421052631578982 -0.15789473684210531 0.26022439253957641
-0.368421052631578982 -0.152126713802939961 -0.263157894736842146
-0.368421052631578982 -0.0526315789473684736 -0.295239749707673749
-0.368421052631578982 -0.152126713802939961 0.263157894736842035
-0.368421052631578982 -0.0526315789473684736 0.295239699514288523
-0.368421052631578982 0.0526315789473683626 -0.295239749707673749
-0.368421052631578982 0.0526315789473683626 0.295239699514288523
-0.368421052631578982 0.15212671380293985 -0.263157894736842146
-0.373763636538856914 0.15789473684210531 -0.263157894736842146
-0.368421052631578982 0.15789473684210531 -0.260224342346191406
-0.373763636538856914 0.15789473684210531 0.263157894736842035
-0.368421052631578982 0.15789473684210531 0.26022439253957641
-0.368421052631578982 0.15212671380293985 0.263157894736842035
-0.368421052631578982 0.26022439253957641 -0.15789473684210531
-0.373763636538856914 0.263157894736842035 -0.15789473684210531
-0.368421052631578982 0.263157894736842035 -0.152126713802939961
-0.373763636538856914 0.263157894736842035 0.15789473684210531
-0.368421052631578982 0.263157894736842035 0.15212671380293985
-0.368421052631578982 0.26022439253957641 0.15789473684210531
-0.368421052631578982 0.295239699514288523 -0.0526315789473684736
-0.368421052631578982 0.295239699514288523 0.0526315789473683626
-0.289802400689376016 -0.263157894736842146 -0.0526315789473684736
-0.289802400689376016 -0.263157894736842146 0.0526315789473683626
-0.263157894736842146 -0.190399420888800464 -0.15789473684210531
-0.263157894736842146 -0.15789473684210531 -0.190399420888800464
-0.263157894736842146 -0.24327739916349711 -0.0526315789473684736
-0.263157894736842146 -0.24327739916349711 0.0526315789473683626
-0.263157894736842146 -0.190399420888800464 0.15789473684210531
-0.263157894736842146 -0.15789473684210531 0.190399471082185467
-0.289802400689376016 -0.0526315789473684736 -0.263157894736842146
-0.263157894736842146 -0.0526315789473684736 -0.24327739916349711
-0.289802400689376016 -0.0526315789473684736 0.263157894736842035
-0.263157894736842146 -0.0526315789473684736 0.24327739916349711
-0.289802400689376016 0.0526315789473683626 -0.263157894736842146
-0.263157894736842146 0.0526315789473683626 -0.24327739916349711
-0.289802400689376016 0.0526315789473683626 0.263157894736842035
-0.263157894736842146 0.0526315789473683626 0.24327739916349711
-0.263157894736842146 0.15789473684210531 -0.190399420888800464
-0.263157894736842146 0.15789473684210531 0.190399471082185467
-0.263157894736842146 0.190399471082185467 -0.15789473684210531
-0.263157894736842146 0.24327739916349711 -0.0526315789473684736
-0.289802400689376016 0.263157894736842035 -0.0526315789473684736
-0.263157894736842146 0.24327739916349711 0.0526315789473683626
-0.289802400689376016 0.263157894736842035 0.0526315789473683626
-0.263157894736842146 0.190399471082185467 0.15789473684210531
-0.210079494275544842 -0.15789473684210531 -0.15789473684210531
-0.15789473684210531 -0.15789473684210531 -0.0840889780144943311
-0.15789473684210531 -0.17328322561163656 -0.0526315789473684736
-0.15789473684210531 -0.17328322561163656 0.0526315789473683626
-0.210079494275544842 -0.15789473684210531 0.15789473684210531
-0.15789473684210531 -0.15789473684210531 0.08408897801449422
-0.15789473684210531 -0.0840889780144943311 -0.15789473684210531
-0.15789473684210531 -0.0526315789473684736 -0.17328322561163656
-0.15789473684210531 -0.0840889780144943311 0.15789473684210531
-0.15789473684210531 -0.0526315789473684736 0.173283225611636338
-0.15789473684210531 0.0526315789473683626 -0.17328322561163656
-0.15789473684210531 0.0526315789473683626 0.173283225611636338
-0.15789473684210531 0.08408897801449422 -0.15789473684210531
-0.210079494275544842 0.15789473684210531 -0.15789473684210531
-0.15789473684210531 0.15789473684210531 -0.0840889780144943311
-0.210079494275544842 0.15789473684210531 0.15789473684210531
-0.15789473684210531 0.15789473684210531 0.08408897801449422
-0.15789473684210531 0.08408897801449422 0.15789473684210531
-0.15789473684210531 0.173283225611636338 -0.0526315789473684736
-0.15789473684210531 0.173283225611636338 0.0526315789473683626
-0.119423816078587652 -0.15789473684210531 -0.0526315789473684736
-0.119423816078587652 -0.15789473684210531 0.0526315789473683626
-0.119423816078587652 -0.0526315789473684736 -0.15789473684210531
-0.0526315789473684736 -0.0526315789473684736 -0.0979811015881990599
-0.0526315789473684736 -0.0979811015881990599 -0.0526315789473684736
-0.0526315789473684736 -0.0979811015881990599 0.0526315789473683626
-0.119423816078587652 -0.0526315789473684736 0.15789473684210531
-0.0526315789473684736 -0.0526315789473684736 0.0979811015881990599
-0.119423816078587652 0.0526315789473683626 -0.15789473684210531
-0.0526315789473684736 0.0526315789473683626 -0.0979811015881990599
-0.119423816078587652 0.0526315789473683626 0.15789473684210531
-0.0526315789473684736 0.0526315789473683626 0.0979811015881990599
-0.0526315789473684736 0.0979811015881990599 -0.0526315789473684736
-0.119423816078587652 0.15789473684210531 -0.0526315789473684736
-0.0526315789473684736 0.0979811015881990599 0.0526315789473683626
-0.119423816078587652 0.15789473684210531 0.0526315789473683626
0.0526315789473683626 -0.0979811015881990599 -0.0526315789473684736
0.0526315789473683626 -0.0526315789473684736 -0.0979811015881990599
0.0526315789473683626 -0.0979811015881990599 0.0526315789473683626
0.0526315789473683626 -0.0526315789473684736 0.0979811015881990599
0.0526315789473683626 0.0526315789473683626 -0.0979811015881990599
0.0526315789473683626 0.0526315789473683626 0.0979811015881990599
0.0526315789473683626 0.0979811015881990599 -0.0526315789473684736
0.0526315789473683626 0.0979811015881990599 0.0526315789473683626
0.11942381607858743 -0.15789473684210531 -0.0526315789473684736
0.15789473684210531 -0.17328322561163656 -0.0526315789473684736
0.15789473684210531 -0.15789473684210531 -0.0840889780144943311
0.11942381607858743 -0.15789473684210531 0.0526315789473683626
0.15789473684210531 -0.17328322561163656 0.0526315789473683626
0.15789473684210531 -0.15789473684210531 0.08408897801449422
0.11942381607858743 -0.0526315789473684736 -0.15789473684210531
0.15789473684210531 -0.0840889780144943311 -0.15789473684210531
0.15789473684210531 -0.0526315789473684736 -0.17328322561163656
0.11942381607858743 -0.0526315789473684736 0.15789473684210531
0.15789473684210531 -0.0840889780144943311 0.15789473684210531
0.15789473684210531 -0.0526315789473684736 0.173283225611636338
0.11942381607858743 0.0526315789473683626 -0.15789473684210531
0.15789473684210531 0.0526315789473683626 -0.17328322561163656
0.11942381607858743 0.0526315789473683626 0.15789473684210531
0.15789473684210531 0.0526315789473683626 0.173283225611636338
0.15789473684210531 0.08408897801449422 -0.15789473684210531
0.11942381607858743 0.15789473684210531 -0.0526315789473684736
0.15789473684210531 0.15789473684210531 -0.0840889780144943311
0.11942381607858743 0.15789473684210531 0.0526315789473683626
0.15789473684210531 0.15789473684210531 0.08408897801449422
0.15789473684210531 0.08408897801449422 0.15789473684210531
0.15789473684210531 0.173283225611636338 -0.0526315789473684736
0.15789473684210531 0.173283225611636338 0.0526315789473683626
0.210079494275544842 -0.15789473684210531 -0.15789473684210531
0.263157894736842035 -0.190399420888800464 -0.15789473684210531
0.263157894736842035 -0.15789473684210531 -0.190399420888800464
0.263157894736842035 -0.24327739916349711 -0.0526315789473684736
0.263157894736842035 -0.24327739916349711 0.0526315789473683626
0.210079494275544842 -0.15789473684210531 0.15789473684210531
0.263157894736842035 -0.190399420888800464 0.15789473684210531
0.263157894736842035 -0.15789473684210531 0.190399471082185467
0.263157894736842035 -0.0526315789473684736 -0.24327739916349711
0.263157894736842035 -0.0526315789473684736 0.24327739916349711
0.263157894736842035 0.0526315789473683626 -0.24327739916349711
0.263157894736842035 0.0526315789473683626 0.24327739916349711
0.210079494275544842 0.15789473684210531 -0.15789473684210531
0.263157894736842035 0.15789473684210531 -0.190399420888800464
0.210079494275544842 0.15789473684210531 0.15789473684210531
0.263157894736842035 0.15789473684210531 0.190399471082185467
0.263157894736842035 0.190399471082185467 -0.15789473684210531
0.263157894736842035 0.24327739916349711 -0.0526315789473684736
0.263157894736842035 0.24327739916349711 0.0526315789473683626
0.263157894736842035 0.190399471082185467 0.15789473684210531
0.28980235049599079 -0.263157894736842146 -0.0526315789473684736
0.36842105263157876 -0.295239749707673749 -0.0526315789473684736
0.36842105263157876 -0.263157894736842146 -0.152126713802939961
0.28980235049599079 -0.263157894736842146 0.0526315789473683626
0.36842105263157876 -0.295239749707673749 0.0526315789473683626
0.36842105263157876 -0.263157894736842146 0.15212671380293985
0.36842105263157876 -0.260224342346191406 -0.15789473684210531
0.36842105263157876 -0.15789473684210531 -0.260224342346191406
0.36842105263157876 -0.260224342346191406 0.15789473684210531
0.36842105263157876 -0.15789473684210531 0.26022439253957641
0.28980235049599079 -0.0526315789473684736 -0.263157894736842146
0.36842105263157876 -0.152126713802939961 -0.263157894736842146
0.36842105263157876 -0.0526315789473684736 -0.295239749707673749
0.36842105263157876 -0.152126713802939961 0.263157894736842035
0.28980235049599079 -0.0526315789473684736 0.263157894736842035
0.36842105263157876 -0.0526315789473684736 0.295239699514288523
0.28980235049599079 0.0526315789473683626 -0.263157894736842146
0.36842105263157876 0.0526315789473683626 -0.295239749707673749
0.28980235049599079 0.0526315789473683626 0.263157894736842035
0.36842105263157876 0.0526315789473683626 0.295239699514288523
0.36842105263157876 0.15212671380293985 -0.263157894736842146
0.36842105263157876 0.15789473684210531 -0.260224342346191406
0.36842105263157876 0.15789473684210531 0.26022439253957641
0.36842105263157876 0.15212671380293985 0.263157894736842035
0.36842105263157876 0.26022439253957641 -0.15789473684210531
0.28980235049599079 0.263157894736842035 -0.0526315789473684736
0.36842105263157876 0.263157894736842035 -0.152126713802939961
0.28980235049599079 0.263157894736842035 0.0526315789473683626
0.36842105263157876 0.263157894736842035 0.15212671380293985
0.36842105263157876 0.26022439253957641 0.15789473684210531
0.36842105263157876 0.295239699514288523 -0.0526315789473684736
0.36842105263157876 0.295239699514288523 0.0526315789473683626
0.373763636538856803 -0.263157894736842146 -0.15789473684210531
0.473684210526315708 -0.293059449446828824 -0.15789473684210531
0.473684210526315708 -0.263157894736842146 -0.203385704442074489
0.473684210526315708 -0.327997358221756796 -0.0526315789473684736
0.473684210526315708 -0.327997358221756796 0.0526315789473683626
0.373763636538856803 -0.263157894736842146 0.15789473684210531
0.473684210526315708 -0.293059449446828824 0.15789473684210531
0.473684210526315708 -0.263157894736842146 0.203385704442074378
0.373763636538856803 -0.15789473684210531 -0.263157894736842146
0.473684210526315708 -0.203385704442074489 -0.263157894736842146
0.473684210526315708 -0.15789473684210531 -0.293059449446828824
0.373763636538856803 -0.15789473684210531 0.263157894736842035
0.473684210526315708 -0.203385704442074489 0.263157894736842035
0.473684210526315708 -0.15789473684210531 0.293059499640213827
0.473684210526315708 -0.0526315789473684736 -0.327997358221756796
0.473684210526315708 -0.0526315789473684736 0.3279974084151418
0.473684210526315708 0.0526315789473683626 -0.327997358221756796
0.473684210526315708 0.0526315789473683626 0.3279974084151418
0.373763636538856803 0.15789473684210531 -0.263157894736842146
0.473684210526315708 0.15789473684210531 -0.293059449446828824
0.373763636538856803 0.15789473684210531 0.263157894736842035
0.473684210526315708 0.15789473684210531 0.293059499640213827
0.473684210526315708 0.203385704442074378 -0.263157894736842146
0.373763636538856803 0.263157894736842035 -0.15789473684210531
0.473684210526315708 0.263157894736842035 -0.203385704442074489
0.373763636538856803 0.263157894736842035 0.15789473684210531
0.473684210526315708 0.263157894736842035 0.203385704442074378
0.473684210526315708 0.203385704442074378 0.263157894736842035
0.473684210526315708 0.293059499640213827 -0.15789473684210531
0.473684210526315708 0.3279974084151418 -0.0526315789473684736
0.473684210526315708 0.3279974084151418 0.0526315789473683626
0.473684210526315708 0.293059499640213827 0.15789473684210531
0.578947368421052655 -0.304469961869089256 -0.15789473684210531
0.578947368421052655 -0.263157894736842146 -0.220635163156609804
0.578947368421052655 -0.339714753000359804 -0.0526315789473684736
0.578947368421052655 -0.339714753000359804 0.0526315789473683626
0.578947368421052655 -0.304469961869089256 0.15789473684210531
0.578947368421052655 -0.263157894736842146 0.220635163156609693
0.578947368421052655 -0.220635163156609804 -0.263157894736842146
0.578947368421052655 -0.15789473684210531 -0.304469961869089256
0.578947368421052655 -0.220635163156609804 0.263157894736842035
0.578947368421052655 -0.15789473684210531 0.304469961869089145
0.578947368421052655 -0.0526315789473684736 -0.339714753000359804
0.578947368421052655 -0.0526315789473684736 0.339714753000359693
0.578947368421052655 0.0526315789473683626 -0.339714753000359804
0.578947368421052655 0.0526315789473683626 0.339714753000359693
0.578947368421052655 0.15789473684210531 -0.304469961869089256
0.578947368421052655 0.15789473684210531 0.304469961869089145
0.578947368421052655 0.220635163156609693 -0.263157894736842146
0.578947368421052655 0.263157894736842035 -0.220635163156609804
0.578947368421052655 0.263157894736842035 0.220635163156609693
0.578947368421052655 0.220635163156609693 0.263157894736842035
0.578947368421052655 0.304469961869089145 -0.15789473684210531
0.578947368421052655 0.339714753000359693 -0.0526315789473684736
0.578947368421052655 0.339714753000359693 0.0526315789473683626
0.578947368421052655 0.304469961869089145 0.15789473684210531
0.68421052631578938 -0.290093170969109804 -0.15789473684210531
0.68421052631578938 -0.263157894736842146 -0.198735739055432847
0.68421052631578938 -0.325002168354235232 -0.0526315789473684736
0.68421052631578938 -0.325002168354235232 0.0526315789473683626
0.68421052631578938 -0.290093170969109804 0.15789473684210531
0.68421052631578938 -0.263157894736842146 0.198735688862047732
0.68421052631578938 -0.198735739055432847 -0.263157894736842146
0.68421052631578938 -0.15789473684210531 -0.290093170969109804
0.68421052631578938 -0.198735739055432847 0.263157894736842035
0.68421052631578938 -0.15789473684210531 0.290093170969109693
0.68421052631578938 -0.0526315789473684736 -0.325002168354235232
0.68421052631578938 -0.0526315789473684736 0.325002168354235232
0.68421052631578938 0.0526315789473683626 -0.325002168354235232
0.68421052631578938 0.0526315789473683626 0.325002168354235232
0.68421052631578938 0.15789473684210531 -0.290093170969109804
0.68421052631578938 0.15789473684210531 0.290093170969109693
0.68421052631578938 0.198735688862047732 -0.263157894736842146
0.68421052631578938 0.263157894736842035 -0.198735739055432847
0.68421052631578938 0.263157894736842035 0.198735688862047732
0.68421052631578938 0.198735688862047732 0.263157894736842035
0.68421052631578938 0.290093170969109693 -0.15789473684210531
0.68421052631578938 0.325002168354235232 -0.0526315789473684736
0.68421052631578938 0.325002168354235232 0.0526315789473683626
0.68421052631578938 0.290093170969109693 0.15789473684210531
0.747475272730776963 -0.263157894736842146 -0.15789473684210531
0.789473684210526105 -0.263157894736842146 -0.109447780408357342
0.789473684210526105 -0.28173672525506277 -0.0526315789473684736
0.789473684210526105 -0.28173672525506277 0.0526315789473683626
0.747475272730776963 -0.263157894736842146 0.15789473684210531
0.789473684210526105 -0.263157894736842146 0.109447780408357342
0.747475272730776963 -0.15789473684210531 -0.263157894736842146
0.789473684210526105 -0.15789473684210531 -0.238697503742418826
0.789473684210526105 -0.238697503742418826 -0.15789473684210531
0.789473684210526105 -0.238697503742418826 0.15789473684210531
0.747475272730776963 -0.15789473684210531 0.263157894736842035
0.789473684210526105 -0.15789473684210531 0.2386974535490336
0.789473684210526105 -0.109447780408357342 -0.263157894736842146
0.789473684210526105 -0.0526315789473684736 -0.28173672525506277
0.789473684210526105 -0.109447780408357342 0.263157894736842035
0.789473684210526105 -0.0526315789473684736 0.281736675061677655
0.789473684210526105 0.0526315789473683626 -0.28173672525506277
0.789473684210526105 0.0526315789473683626 0.281736675061677655
0.789473684210526105 0.109447780408357342 -0.263157894736842146
0.747475272730776963 0.15789473684210531 -0.263157894736842146
0.789473684210526105 0.15789473684210531 -0.238697503742418826
0.747475272730776963 0.15789473684210531 0.263157894736842035
0.789473684210526105 0.15789473684210531 0.2386974535490336
0.789473684210526105 0.109447780408357342 0.263157894736842035
0.789473684210526105 0.2386974535490336 -0.15789473684210531
0.747475272730776963 0.263157894736842035 -0.15789473684210531
0.789473684210526105 0.263157894736842035 -0.109447780408357342
0.747475272730776963 0.263157894736842035 0.15789473684210531
0.789473684210526105 0.263157894736842035 0.109447780408357342
0.789473684210526105 0.2386974535490336 0.15789473684210531
0.789473684210526105 0.281736675061677655 -0.0526315789473684736
0.789473684210526105 0.281736675061677655 0.0526315789473683626
0.813903005499588605 -0.263157894736842146 -0.0526315789473684736
0.813903005499588605 -0.263157894736842146 0.0526315789473683626
0.863198932848478595 -0.15789473684210531 -0.15789473684210531
0.894736842105263053 -0.15789473684210531 -0.0965628372995477324
0.894736842105263053 -0.179671387923391324 -0.0526315789473684736
0.894736842105263053 -0.179671387923391324 0.0526315789473683626
0.863198932848478595 -0.15789473684210531 0.15789473684210531
0.894736842105263053 -0.15789473684210531 0.0965628372995477324
0.813903005499588605 -0.0526315789473684736 -0.263157894736842146
0.894736842105263053 -0.0526315789473684736 -0.179671387923391324
0.894736842105263053 -0.0965628372995477324 -0.15789473684210531
0.894736842105263053 -0.0965628372995477324 0.15789473684210531
0.813903005499588605 -0.0526315789473684736 0.263157894736842035
0.894736842105263053 -0.0526315789473684736 0.179671438116776327
0.813903005499588605 0.0526315789473683626 -0.263157894736842146
0.894736842105263053 0.0526315789473683626 -0.179671387923391324
0.813903005499588605 0.0526315789473683626 0.263157894736842035
0.894736842105263053 0.0526315789473683626 0.179671438116776327
0.894736842105263053 0.0965628372995477324 -0.15789473684210531
0.863198932848478595 0.15789473684210531 -0.15789473684210531
0.894736842105263053 0.15789473684210531 -0.0965628372995477324
0.863198932848478595 0.15789473684210531 0.15789473684210531
0.894736842105263053 0.15789473684210531 0.0965628372995477324
0.894736842105263053 0.0965628372995477324 0.15789473684210531
0.894736842105263053 0.179671438116776327 -0.0526315789473684736
0.813903005499588605 0.263157894736842035 -0.0526315789473684736
0.894736842105263053 0.179671438116776327 0.0526315789473683626
0.813903005499588605 0.263157894736842035 0.0526315789473683626
0.907814226652446488 -0.15789473684210531 -0.0526315789473684736
0.907814226652446488 -0.15789473684210531 0.0526315789473683626
0.907814226652446488 -0.0526315789473684736 -0.15789473684210531
0.940744299637643833 -0.0526315789473684736 -0.0526315789473684736
0.940744299637643833 -0.0526315789473684736 0.0526315789473683626
0.907814226652446488 -0.0526315789473684736 0.15789473684210531
0.907814226652446488 0.0526315789473683626 -0.15789473684210531
0.940744299637643833 0.0526315789473683626 -0.0526315789473684736
0.940744299637643833 0.0526315789473683626 0.0526315789473683626
0.907814226652446488 0.0526315789473683626 0.15789473684210531
0.907814226652446488 0.15789473684210531 -0.0526315789473684736
0.907814226652446488 0.15789473684210531 0.0526315789473683626
3 2 1 0
3 4 3 0
3 4 0 1
3 5 3 4
3 8 7 6
3 6 7 2
3 0 6 2
3 9 6 0
3 10 0 3
3 9 0 10
3 3 5 11
3 12 3 11
3 10 3 12
3 13 12 11
3 8 6 14
3 8 14 15
3 16 6 9
3 14 6 16
3 17 9 10
3 16 9 17
3 18 10 12
3 17 10 18
3 12 13 19
3 12 19 18
3 20 15 14
3 22 21 20
3 14 22 20
3 16 22 14
3 23 16 17
3 22 16 23
3 18 25 24
3 23 18 24
3 17 18 23
3 25 18 19
3 26 21 22
3 26 22 23
3 26 23 27
3 27 23 24
3 30 29 28
3 32 31 28
3 32 28 29
3 33 31 32
3 36 35 34
3 34 35 30
3 34 30 28
3 2 34 28
3 1 2 28
3 1 28 4
3 4 28 31
3 38 37 5
3 38 5 4
3 33 38 4
3 31 33 4
3 39 37 38
3 42 41 40
3 40 41 36
3 40 36 34
3 8 40 34
3 7 8 34
3 7 34 2
3 37 11 5
3 44 43 13
3 44 13 11
3 39 44 11
3 37 39 11
3 45 43 44
3 42 40 46
3 42 46 47
3 15 46 8
3 8 46 40
3 48 19 43
3 43 19 13
3 43 45 49
3 43 49 48
3 50 47 46
3 52 50 51
3 51 50 20
3 50 46 20
3 46 15 20
3 21 51 20
3 53 24 25
3 54 53 25
3 54 25 19
3 55 54 19
3 48 55 19
3 55 48 49
3 56 52 51
3 58 56 57
3 57 56 26
3 56 51 26
3 51 21 26
3 27 59 26
3 26 59 57
3 60 59 27
3 60 27 24
3 61 60 24
3 53 61 24
3 61 53 54
3 62 58 57
3 62 57 59
3 62 59 63
3 63 59 60
3 66 65 64
3 29 30 64
3 65 29 64
3 67 29 65
3 29 68 32
3 67 68 29
3 70 69 33
3 32 70 33
3 68 70 32
3 71 69 70
3 74 73 72
3 72 73 66
3 72 66 64
3 36 72 64
3 35 36 64
3 35 64 30
3 69 38 33
3 76 75 39
3 76 39 38
3 71 76 38
3 69 71 38
3 77 75 76
3 74 72 41
3 42 74 41
3 78 74 42
3 41 72 36
3 75 44 39
3 45 44 75
3 77 45 75
3 79 45 77
3 47 78 42
3 47 80 78
3 79 49 45
3 81 49 79
3 47 50 82
3 83 47 82
3 80 47 83
3 52 82 50
3 84 54 55
3 85 84 55
3 49 85 55
3 81 85 49
3 86 83 82
3 88 86 87
3 87 86 56
3 86 82 56
3 82 52 56
3 58 87 56
3 89 60 61
3 90 89 61
3 90 61 54
3 91 90 54
3 84 91 54
3 91 84 85
3 92 88 87
3 92 87 58
3 62 92 58
3 93 92 62
3 94 62 63
3 94 93 62
3 63 60 89
3 95 63 89
3 94 63 95
3 95 89 90
3 97 96 65
3 97 65 66
3 65 98 67
3 96 98 65
3 67 99 68
3 98 99 67
3 68 100 70
3 99 100 68
3 71 70 100
3 71 100 101
3 103 102 73
3 103 73 74
3 66 73 97
3 97 73 102
3 101 104 71
3 71 104 76
3 77 76 104
3 77 104 105
3 78 103 74
3 78 106 103
3 105 79 77
3 107 79 105
3 80 106 78
3 80 108 106
3 107 81 79
3 109 81 107
3 83 108 80
3 83 110 108
3 109 85 81
3 111 85 109
3 112 110 83
3 112 83 86
3 86 88 112
3 112 88 113
3 115 114 91
3 91 114 90
3 91 85 111
3 91 111 115
3 116 113 88
3 116 88 92
3 117 92 93
3 117 116 92
3 118 93 94
3 118 117 93
3 119 94 95
3 119 118 94
3 95 90 114
3 95 114 119
3 121 120 96
3 121 96 97
3 96 122 98
3 120 122 96
3 98 123 99
3 122 123 98
3 99 124 100
3 123 124 99
3 101 100 124
3 101 124 125
3 127 126 102
3 127 102 103
3 97 102 121
3 121 102 126
3 125 128 101
3 101 128 104
3 105 104 128
3 105 128 129
3 106 127 103
3 106 130 127
3 129 107 105
3 131 107 129
3 108 130 106
3 108 132 130
3 131 109 107
3 133 109 131
3 110 132 108
3 110 134 132
3 133 111 109
3 135 111 133
3 136 134 110
3 136 110 112
3 112 113 136
3 136 113 137
3 139 138 115
3 115 138 114
3 115 111 135
3 115 135 139
3 140 137 113
3 140 113 116
3 141 116 117
3 141 140 116
3 142 117 118
3 142 141 117
3 143 118 119
3 143 142 118
3 119 114 138
3 119 138 143
3 121 144 120
3 120 144 145
3 146 120 145
3 122 120 146
3 122 147 123
3 146 147 122
3 147 149 148
3 124 147 148
3 123 147 124
3 148 125 124
3 127 150 126
3 150 151 126
3 126 151 121
3 151 152 121
3 152 144 121
3 144 152 145
3 149 153 148
3 153 155 154
3 153 154 128
3 148 153 128
3 125 148 128
3 154 129 128
3 157 156 150
3 127 157 150
3 130 157 127
3 150 156 151
3 155 158 154
3 129 154 158
3 159 129 158
3 131 129 159
3 132 157 130
3 132 160 157
3 159 133 131
3 161 133 159
3 134 163 162
3 160 134 162
3 132 134 160
3 163 164 162
3 167 166 165
3 161 167 165
3 135 161 165
3 133 161 135
3 136 163 134
3 169 168 137
3 137 168 136
3 168 164 136
3 164 163 136
3 169 170 168
3 173 172 171
3 173 171 166
3 166 171 165
3 171 138 165
3 138 139 165
3 165 139 135
3 140 169 137
3 174 170 169
3 140 174 169
3 141 174 140
3 175 141 142
3 175 174 141
3 143 171 172
3 175 143 172
3 142 143 175
3 171 143 138
3 145 176 146
3 177 147 146
3 177 146 176
3 177 149 147
3 179 178 152
3 179 152 151
3 145 152 176
3 152 180 176
3 152 178 180
3 176 180 177
3 177 180 181
3 177 181 149
3 181 153 149
3 181 182 153
3 155 153 182
3 155 182 183
3 157 184 156
3 184 185 156
3 185 151 156
3 185 179 151
3 158 155 186
3 155 187 186
3 155 183 187
3 186 159 158
3 160 188 184
3 160 184 157
3 185 184 189
3 189 184 188
3 186 187 190
3 190 187 191
3 190 161 159
3 190 159 186
3 162 188 160
3 162 164 188
3 164 189 188
3 164 192 189
3 190 191 167
3 191 166 167
3 191 193 166
3 190 167 161
3 194 192 164
3 194 164 168
3 196 195 170
3 195 168 170
3 195 194 168
3 198 197 196
3 196 197 195
3 172 173 198
3 173 197 198
3 173 199 197
3 173 166 193
3 173 193 199
3 174 196 170
3 196 174 175
3 196 175 198
3 198 175 172
3 179 200 178
3 178 200 201
3 202 178 201
3 180 178 202
3 180 203 181
3 202 203 180
3 203 205 204
3 182 203 204
3 181 203 182
3 204 183 182
3 207 206 200
3 179 207 200
3 185 207 179
3 200 206 201
3 205 208 204
3 183 204 208
3 209 183 208
3 187 183 209
3 189 207 185
3 189 210 207
3 209 191 187
3 211 191 209
3 192 213 212
3 210 192 212
3 189 192 210
3 213 214 212
3 217 216 215
3 211 217 215
3 193 211 215
3 191 211 193
3 194 213 192
3 218 214 213
3 194 218 213
3 195 218 194
3 219 195 197
3 219 218 195
3 199 215 216
3 219 199 216
3 197 199 219
3 215 199 193
3 201 220 202
3 221 203 202
3 221 202 220
3 221 205 203
3 207 222 206
3 222 223 206
3 206 223 201
3 223 224 201
3 224 220 201
3 220 224 221
3 221 224 225
3 225 227 226
3 225 226 208
3 221 225 208
3 205 221 208
3 226 209 208
3 210 228 222
3 210 222 207
3 223 222 229
3 229 222 228
3 226 227 230
3 230 227 231
3 230 211 209
3 230 209 226
3 212 228 210
3 233 232 214
3 214 232 212
3 232 229 212
3 229 228 212
3 235 234 233
3 233 234 232
3 234 235 231
3 231 235 230
3 235 216 230
3 216 217 230
3 230 217 211
3 218 233 214
3 233 218 219
3 233 219 235
3 235 219 216
3 237 236 224
3 237 224 223
3 224 238 225
3 236 238 224
3 227 225 238
3 227 238 239
3 229 237 223
3 229 240 237
3 239 231 227
3 241 231 239
3 242 240 229
3 242 229 232
3 243 232 234
3 243 242 232
3 234 231 241
3 234 241 243
3 246 245 244
3 248 247 244
3 248 244 245
3 249 247 248
3 252 251 250
3 250 251 246
3 250 246 244
3 237 250 244
3 236 237 244
3 236 244 238
3 238 244 247
3 254 253 239
3 254 239 238
3 249 254 238
3 247 249 238
3 255 253 254
3 252 250 256
3 252 256 257
3 240 256 237
3 237 256 250
3 258 241 253
3 253 241 239
3 253 255 259
3 253 259 258
3 260 257 256
3 262 260 261
3 261 260 242
3 260 256 242
3 256 240 242
3 243 263 242
3 242 263 261
3 264 263 243
3 264 243 241
3 265 264 241
3 258 265 241
3 265 258 259
3 266 262 261
3 266 261 263
3 266 263 267
3 267 263 264
3 270 269 268
3 245 246 268
3 269 245 268
3 271 245 269
3 245 272 248
3 271 272 245
3 274 273 249
3 248 274 249
3 272 274 248
3 275 273 274
3 270 268 251
3 252 270 251
3 276 270 252
3 251 268 246
3 273 254 249
3 255 254 273
3 275 255 273
3 277 255 275
3 257 276 252
3 257 278 276
3 277 259 255
3 279 259 277
3 257 260 280
3 281 257 280
3 278 257 281
3 262 280 260
3 282 264 265
3 283 282 265
3 259 283 265
3 279 283 259
3 284 281 280
3 284 280 262
3 266 284 262
3 285 284 266
3 286 266 267
3 286 285 266
3 267 264 282
3 287 267 282
3 286 267 287
3 287 282 283
3 290 289 288
3 292 291 288
3 292 288 289
3 293 291 292
3 295 294 269
3 295 269 270
3 288 271 290
3 271 294 290
3 271 269 294
3 271 288 272
3 272 288 291
3 293 296 291
3 296 272 291
3 296 274 272
3 275 274 296
3 275 296 297
3 300 299 298
3 299 295 298
3 295 276 298
3 295 270 276
3 302 277 301
3 277 297 301
3 277 275 297
3 303 302 301
3 300 298 304
3 300 304 305
3 278 304 276
3 276 304 298
3 306 279 302
3 302 279 277
3 302 303 307
3 302 307 306
3 308 305 304
3 304 278 308
3 278 309 308
3 278 281 309
3 311 310 306
3 310 279 306
3 310 283 279
3 311 306 307
3 312 309 281
3 312 281 284
3 314 312 313
3 312 285 313
3 312 284 285
3 286 315 285
3 285 315 313
3 315 286 316
3 286 317 316
3 286 287 317
3 287 283 310
3 287 310 317
3 318 314 313
3 318 313 315
3 318 315 319
3 319 315 316
3 322 321 320
3 289 290 320
3 321 289 320
3 323 289 321
3 289 324 292
3 323 324 289
3 326 325 293
3 292 326 293
3 324 326 292
3 327 325 326
3 330 329 328
3 328 329 322
3 328 322 320
3 295 328 320
3 294 295 320
3 294 320 290
3 325 296 293
3 332 331 297
3 332 297 296
3 327 332 296
3 325 327 296
3 333 331 332
3 330 328 299
3 300 330 299
3 334 330 300
3 299 328 295
3 331 301 297
3 303 301 331
3 333 303 331
3 335 303 333
3 305 334 300
3 305 336 334
3 335 307 303
3 337 307 335
3 305 308 338
3 339 305 338
3 336 305 339
3 309 338 308
3 340 310 311
3 341 340 311
3 307 341 311
3 337 341 307
3 342 339 338
3 344 342 343
3 343 342 312
3 342 338 312
3 338 309 312
3 314 343 312
3 345 316 317
3 346 345 317
3 346 317 310
3 347 346 310
3 340 347 310
3 347 340 341
3 348 344 343
3 348 343 314
3 318 348 314
3 349 348 318
3 350 318 319
3 350 349 318
3 319 316 345
3 351 319 345
3 350 319 351
3 351 345 346
3 353 352 321
3 353 321 322
3 321 354 323
3 352 354 321
3 323 355 324
3 354 355 323
3 324 356 326
3 355 356 324
3 327 326 356
3 327 356 357
3 359 358 329
3 359 329 330
3 322 329 353
3 353 329 358
3 357 360 327
3 327 360 332
3 333 332 360
3 333 360 361
3 334 359 330
3 334 362 359
3 361 335 333
3 363 335 361
3 336 362 334
3 336 364 362
3 363 337 335
3 365 337 363
3 339 364 336
3 339 366 364
3 365 341 337
3 367 341 365
3 368 366 339
3 368 339 342
3 342 344 368
3 368 344 369
3 371 370 347
3 347 370 346
3 347 341 367
3 347 367 371
3 372 369 344
3 372 344 348
3 373 348 349
3 373 372 348
3 374 349 350
3 374 373 349
3 375 350 351
3 375 374 350
3 351 346 370
3 351 370 375
3 377 376 352
3 377 352 353
3 352 378 354
3 376 378 352
3 354 379 355
3 378 379 354
3 355 380 356
3 379 380 355
3 357 356 380
3 357 380 381
3 383 382 358
3 383 358 359
3 353 358 377
3 377 358 382
3 381 384 357
3 357 384 360
3 361 360 384
3 361 384 385
3 362 383 359
3 362 386 383
3 385 363 361
3 387 363 385
3 364 386 362
3 364 388 386
3 387 365 363
3 389 365 387
3 366 388 364
3 366 390 388
3 389 367 365
3 391 367 389
3 392 390 366
3 392 366 368
3 368 369 392
3 392 369 393
3 395 394 371
3 371 394 370
3 371 367 391
3 371 391 395
3 396 393 369
3 396 369 372
3 397 372 373
3 397 396 372
3 398 373 374
3 398 397 373
3 399 374 375
3 399 398 374
3 375 370 394
3 375 394 399
3 377 400 376
3 376 400 401
3 402 376 401
3 378 376 402
3 378 403 379
3 402 403 378
3 403 405 404
3 380 403 404
3 379 403 380
3 404 381 380
3 383 406 382
3 406 407 382
3 382 407 377
3 407 408 377
3 408 400 377
3 400 408 401
3 405 409 404
3 409 411 410
3 409 410 384
3 404 409 384
3 381 404 384
3 410 385 384
3 413 412 406
3 383 413 406
3 386 413 383
3 406 412 407
3 411 414 410
3 385 410 414
3 415 385 414
3 387 385 415
3 388 413 386
3 388 416 413
3 415 389 387
3 417 389 415
3 390 419 418
3 416 390 418
3 388 390 416
3 419 420 418
3 423 422 421
3 417 423 421
3 391 417 421
3 389 417 391
3 392 419 390
3 425 424 393
3 393 424 392
3 424 420 392
3 420 419 392
3 425 426 424
3 429 428 427
3 429 427 422
3 422 427 421
3 427 394 421
3 394 395 421
3 421 395 391
3 396 425 393
3 430 426 425
3 396 430 425
3 397 430 396
3 431 397 398
3 431 430 397
3 399 427 428
3 431 399 428
3 398 399 431
3 427 399 394
3 401 432 402
3 433 403 402
3 433 402 432
3 433 405 403
3 407 434 408
3 434 435 408
3 408 435 401
3 435 436 401
3 436 432 401
3 432 436 433
3 433 436 437
3 437 439 438
3 437 438 409
3 433 437 409
3 405 433 409
3 438 411 409
3 413 440 412
3 440 441 412
3 412 441 407
3 441 442 407
3 442 434 407
3 434 442 435
3 439 443 438
3 443 445 444
3 443 444 414
3 438 443 414
3 411 438 414
3 444 415 414
3 416 446 440
3 416 440 413
3 441 440 447
3 447 440 446
3 444 445 448
3 448 445 449
3 448 417 415
3 448 415 444
3 418 446 416
3 451 450 420
3 420 450 418
3 450 447 418
3 447 446 418
3 451 452 450
3 455 454 453
3 455 453 449
3 449 453 448
3 453 422 448
3 422 423 448
3 448 423 417
3 424 451 420
3 457 456 426
3 426 456 424
3 456 452 424
3 452 451 424
3 459 458 457
3 457 458 456
3 458 459 454
3 454 459 453
3 459 428 453
3 428 429 453
3 453 429 422
3 430 457 426
3 457 430 431
3 457 431 459
3 459 431 428
3 435 460 436
3 461 437 436
3 461 436 460
3 461 439 437
3 441 462 442
3 460 435 442
3 462 460 442
3 463 460 462
3 460 464 461
3 460 463 464
3 465 443 439
3 461 465 439
3 464 465 461
3 465 445 443
3 447 466 462
3 447 462 441
3 462 467 463
3 462 466 467
3 463 468 464
3 463 467 468
3 464 469 465
3 464 468 469
3 469 449 445
3 469 445 465
3 450 466 447
3 466 450 452
3 470 466 452
3 467 466 470
3 467 471 468
3 467 470 471
3 471 454 455
3 469 471 455
3 468 471 469
3 469 455 449
3 456 470 452
3 470 456 458
3 470 458 471
3 471 458 454
