ply
format ascii 1.0
element vertex 38
property double x
property double y
property double z
element face 72
property list uchar int vertex_indices
end_header
-0.706666678190231323 -0.5 0
-0.5 -0.706666678190231323 0
-0.5 -0.5 -0.275555551052093506
-0.5 -0.5 0.275555610656738281
-0.873333334922790527 0 0
-0.5 0 -0.497777760028839111
-0.5 0 0.497777819633483887
-0.706666678190231323 0.5 0
-0.5 0.5 -0.275555551052093506
-0.5 0.5 0.275555610656738281
-0.5 0.706666707992553711 0
0 -0.873333334922790527 0
0 -0.5 -0.497777760028839111
0 -0.5 0.497777819633483887
-0.495000004768371582 0 -0.5
0 -0.495000004768371582 -0.5
0 0 -0.573333323001861572
0 -0.495000004768371582 0.5
-0.495000004768371582 0 0.5
0 0 0.573333382606506348
0 0.495000004768371582 -0.5
0 0.5 -0.497777760028839111
0 0.5 0.497777819633483887
0 0.495000004768371582 0.5
0 0.873333334922790527 0
0.5 -0.706666678190231323 0
0.5 -0.5 -0.275555551052093506
0.5 -0.5 0.275555610656738281
0.495000004768371582 0 -0.5
0.5 0 -0.497777760028839111
0.495000004768371582 0 0.5
0.5 0 0.497777819633483887
0.5 0.5 -0.275555551052093506
0.5 0.5 0.275555610656738281
0.5 0.706666707992553711 0
0.706666707992553711 -0.5 0
0.873333334922790527 0 0
0.706666707992553711 0.5 0
3 2 1 0
3 3 0 1
3 2 0 4
3 2 4 5
3 0 3 6
3 0 6 4
3 5 4 7
3 5 7 8
3 4 6 9
3 4 9 7
3 10 8 7
3 10 7 9
3 12 11 1
3 12 1 2
3 3 1 11
3 3 11 13
3 16 15 14
3 15 12 14
3 12 5 14
3 12 2 5
3 18 6 17
3 6 13 17
3 6 3 13
3 19 18 17
3 20 16 14
3 14 5 20
3 5 21 20
3 5 8 21
3 23 22 18
3 22 6 18
3 22 9 6
3 23 18 19
3 24 21 8
3 24 8 10
3 10 9 22
3 10 22 24
3 26 25 11
3 26 11 12
3 13 11 25
3 13 25 27
3 16 28 15
3 28 29 15
3 29 12 15
3 29 26 12
3 17 13 30
3 13 31 30
3 13 27 31
3 30 19 17
3 20 28 16
3 20 21 28
3 21 29 28
3 21 32 29
3 30 31 23
3 31 22 23
3 31 33 22
3 30 23 19
3 34 32 21
3 34 21 24
3 24 22 33
3 24 33 34
3 26 35 25
3 35 27 25
3 29 36 35
3 29 35 26
3 36 31 27
3 36 27 35
3 32 37 36
3 32 36 29
3 37 33 31
3 37 31 36
3 34 37 32
3 37 34 33
